NamdhinggoSILMaster-Regular.ufo
<glyph name="dollar" format="2">
  <advance width="850"/>
  <unicode hex="0024"/>
  <outline>
    <contour>
      <point x="437" y="995" type="curve" smooth="yes"/>
      <point x="233" y="995"/>
      <point x="73" y="825"/>
      <point x="74" y="698" type="curve" smooth="yes"/>
      <point x="75" y="554"/>
      <point x="159" y="490"/>
      <point x="403" y="440" type="curve" smooth="yes"/>
      <point x="577" y="404"/>
      <point x="652" y="306"/>
      <point x="652" y="240" type="curve" smooth="yes"/>
      <point x="652" y="155"/>
      <point x="581" y="84"/>
      <point x="428" y="84" type="curve" smooth="yes"/>
      <point x="298" y="84"/>
      <point x="206" y="143"/>
      <point x="204" y="214" type="curve"/>
      <point x="172" y="239" type="line"/>
      <point x="114" y="207"/>
      <point x="72" y="136"/>
      <point x="70" y="104" type="curve"/>
      <point x="141" y="11"/>
      <point x="268" y="-34"/>
      <point x="421" y="-34" type="curve" smooth="yes"/>
      <point x="572" y="-34"/>
      <point x="790" y="151"/>
      <point x="790" y="310" type="curve" smooth="yes"/>
      <point x="790" y="426"/>
      <point x="718" y="515"/>
      <point x="445" y="568" type="curve" smooth="yes"/>
      <point x="230" y="610"/>
      <point x="184" y="683"/>
      <point x="184" y="746" type="curve" smooth="yes"/>
      <point x="184" y="833"/>
      <point x="316" y="887"/>
      <point x="393" y="887" type="curve" smooth="yes"/>
      <point x="526" y="887"/>
      <point x="605" y="848"/>
      <point x="621" y="778" type="curve"/>
      <point x="659" y="772" type="line"/>
      <point x="691" y="803"/>
      <point x="725" y="848"/>
      <point x="744" y="887" type="curve"/>
      <point x="691" y="957"/>
      <point x="582" y="995"/>
    </contour>
    <contour>
      <point x="377" y="1105" type="curve"/>
      <point x="361" y="778"/>
      <point x="375" y="235"/>
      <point x="390" y="-182" type="curve"/>
      <point x="390" y="-182"/>
      <point x="439" y="-210"/>
      <point x="439" y="-210" type="curve"/>
      <point x="468" y="-185"/>
      <point x="487" y="-143"/>
      <point x="502" y="-109" type="curve"/>
      <point x="480" y="196"/>
      <point x="467" y="756"/>
      <point x="490" y="1138" type="curve"/>
      <point x="454" y="1170" type="line"/>
      <point x="420" y="1154"/>
      <point x="405" y="1132"/>
    </contour>
  </outline>
</glyph>
<glyph name="ampersand" format="2">
  <advance width="1297"/>
  <unicode hex="0026"/>
  <outline>
    <contour>
      <point x="1280" y="708" type="curve"/>
      <point x="1257" y="744" type="line"/>
      <point x="831" y="744" type="line"/>
      <point x="806" y="734"/>
      <point x="771" y="706"/>
      <point x="758" y="690" type="curve"/>
      <point x="781" y="661" type="line"/>
      <point x="854" y="661"/>
      <point x="929" y="581"/>
      <point x="929" y="475" type="curve" smooth="yes"/>
      <point x="929" y="316"/>
      <point x="759" y="87"/>
      <point x="508" y="87" type="curve" smooth="yes"/>
      <point x="378" y="87"/>
      <point x="249" y="176"/>
      <point x="249" y="353" type="curve" smooth="yes"/>
      <point x="249" y="499"/>
      <point x="324" y="622"/>
      <point x="587" y="789" type="curve"/>
      <point x="735" y="882"/>
      <point x="836" y="1007"/>
      <point x="836" y="1139" type="curve" smooth="yes"/>
      <point x="836" y="1261"/>
      <point x="776" y="1372"/>
      <point x="608" y="1372" type="curve" smooth="yes"/>
      <point x="440" y="1372"/>
      <point x="288" y="1218"/>
      <point x="288" y="1015" type="curve" smooth="yes"/>
      <point x="288" y="580"/>
      <point x="916" y="-28"/>
      <point x="1013" y="-28" type="curve" smooth="yes"/>
      <point x="1040" y="-28"/>
      <point x="1136" y="-2"/>
      <point x="1244" y="46" type="curve"/>
      <point x="1233" y="95" type="line"/>
      <point x="1164" y="79"/>
      <point x="1106" y="91"/>
      <point x="1053" y="135" type="curve"/>
      <point x="822" y="324"/>
      <point x="431" y="768"/>
      <point x="431" y="1069" type="curve" smooth="yes"/>
      <point x="431" y="1168"/>
      <point x="472" y="1265"/>
      <point x="557" y="1265" type="curve" smooth="yes"/>
      <point x="636" y="1265"/>
      <point x="681" y="1196"/>
      <point x="681" y="1108" type="curve" smooth="yes"/>
      <point x="681" y="1025"/>
      <point x="644" y="926"/>
      <point x="482" y="834" type="curve" smooth="yes"/>
      <point x="216" y="685"/>
      <point x="73" y="503"/>
      <point x="73" y="333" type="curve" smooth="yes"/>
      <point x="73" y="96"/>
      <point x="232" y="-28"/>
      <point x="472" y="-28" type="curve" smooth="yes"/>
      <point x="798" y="-28"/>
      <point x="1057" y="294"/>
      <point x="1057" y="514" type="curve" smooth="yes"/>
      <point x="1057" y="580"/>
      <point x="1053" y="612"/>
      <point x="1026" y="655" type="curve"/>
      <point x="1068" y="653"/>
      <point x="1138" y="636"/>
      <point x="1184" y="614" type="curve"/>
      <point x="1214" y="636"/>
      <point x="1249" y="669"/>
    </contour>
  </outline>
</glyph>
<glyph name="parenleft" format="2">
  <advance width="574"/>
  <unicode hex="0028"/>
  <outline>
    <contour>
      <point x="535" y="-316" type="line"/>
      <point x="447" y="-209"/>
      <point x="377" y="-79"/>
      <point x="327" y="72" type="curve" smooth="yes"/>
      <point x="278" y="220"/>
      <point x="255" y="383"/>
      <point x="255" y="561" type="curve" smooth="yes"/>
      <point x="255" y="745"/>
      <point x="282" y="911"/>
      <point x="338" y="1062" type="curve" smooth="yes"/>
      <point x="388" y="1200"/>
      <point x="455" y="1304"/>
      <point x="535" y="1373" type="curve"/>
      <point x="507" y="1413" type="line"/>
      <point x="386" y="1349"/>
      <point x="289" y="1236"/>
      <point x="216" y="1074" type="curve" smooth="yes"/>
      <point x="143" y="913"/>
      <point x="106" y="732"/>
      <point x="106" y="534" type="curve" smooth="yes"/>
      <point x="106" y="338"/>
      <point x="140" y="165"/>
      <point x="207" y="16" type="curve"/>
      <point x="278" y="-138"/>
      <point x="378" y="-262"/>
      <point x="507" y="-357" type="curve"/>
    </contour>
  </outline>
</glyph>
<glyph name="parenright" format="2">
  <advance width="574"/>
  <unicode hex="0029"/>
  <outline>
    <contour>
      <point x="39" y="-316" type="curve"/>
      <point x="67" y="-357" type="line"/>
      <point x="350" y="-148"/>
      <point x="468" y="174"/>
      <point x="468" y="534" type="curve" smooth="yes"/>
      <point x="468" y="865"/>
      <point x="347" y="1265"/>
      <point x="67" y="1413" type="curve"/>
      <point x="39" y="1373" type="line"/>
      <point x="243" y="1197"/>
      <point x="319" y="841"/>
      <point x="319" y="561" type="curve" smooth="yes"/>
      <point x="319" y="240"/>
      <point x="238" y="-75"/>
    </contour>
  </outline>
</glyph>
<glyph name="asterisk" format="2">
  <advance width="859"/>
  <unicode hex="002A"/>
  <outline>
    <contour>
      <point x="463" y="1131" type="line"/>
      <point x="505" y="1453" type="line"/>
      <point x="470" y="1477" type="line"/>
      <point x="442" y="1470"/>
      <point x="383" y="1442"/>
      <point x="356" y="1428" type="curve"/>
      <point x="396" y="1130" type="line"/>
      <point x="140" y="1328" type="line"/>
      <point x="103" y="1307" type="line"/>
      <point x="94" y="1282"/>
      <point x="90" y="1216"/>
      <point x="88" y="1185" type="curve"/>
      <point x="363" y="1072" type="line"/>
      <point x="66" y="948" type="line"/>
      <point x="66" y="903" type="line"/>
      <point x="83" y="885"/>
      <point x="137" y="848"/>
      <point x="163" y="831" type="curve"/>
      <point x="396" y="1013" type="line"/>
      <point x="354" y="692" type="line"/>
      <point x="393" y="671" type="line"/>
      <point x="420" y="676"/>
      <point x="477" y="703"/>
      <point x="503" y="719" type="curve"/>
      <point x="465" y="1013" type="line"/>
      <point x="718" y="816" type="line"/>
      <point x="756" y="838" type="line"/>
      <point x="766" y="866"/>
      <point x="769" y="929"/>
      <point x="771" y="960" type="curve"/>
      <point x="498" y="1074" type="line"/>
      <point x="794" y="1199" type="line"/>
      <point x="795" y="1241" type="line"/>
      <point x="775" y="1262"/>
      <point x="723" y="1297"/>
      <point x="696" y="1314" type="curve"/>
    </contour>
  </outline>
</glyph>
<glyph name="period" format="2">
  <advance width="415"/>
  <unicode hex="002E"/>
  <outline>
    <contour>
      <point x="325" y="108" type="curve" smooth="yes"/>
      <point x="325" y="174"/>
      <point x="296" y="207"/>
      <point x="238" y="207" type="curve" smooth="yes"/>
      <point x="205" y="207"/>
      <point x="176" y="193"/>
      <point x="152" y="165" type="curve" smooth="yes"/>
      <point x="128" y="137"/>
      <point x="116" y="103"/>
      <point x="116" y="63" type="curve" smooth="yes"/>
      <point x="116" y="-2"/>
      <point x="145" y="-35"/>
      <point x="204" y="-35" type="curve" smooth="yes"/>
      <point x="238" y="-35"/>
      <point x="267" y="-21"/>
      <point x="290" y="6" type="curve" smooth="yes"/>
      <point x="313" y="34"/>
      <point x="325" y="68"/>
    </contour>
  </outline>
</glyph>
<glyph name="colon" format="2">
  <advance width="415"/>
  <unicode hex="003A"/>
  <outline>
    <contour>
      <point x="295" y="138" type="curve" smooth="yes"/>
      <point x="295" y="204"/>
      <point x="266" y="237"/>
      <point x="208" y="237" type="curve" smooth="yes"/>
      <point x="175" y="237"/>
      <point x="146" y="223"/>
      <point x="122" y="195" type="curve" smooth="yes"/>
      <point x="98" y="167"/>
      <point x="86" y="133"/>
      <point x="86" y="93" type="curve" smooth="yes"/>
      <point x="86" y="28"/>
      <point x="115" y="-5"/>
      <point x="174" y="-5" type="curve" smooth="yes"/>
      <point x="208" y="-5"/>
      <point x="237" y="9"/>
      <point x="260" y="36" type="curve" smooth="yes"/>
      <point x="283" y="64"/>
      <point x="295" y="98"/>
    </contour>
    <contour>
      <point x="295" y="689" type="curve" smooth="yes"/>
      <point x="295" y="756"/>
      <point x="266" y="789"/>
      <point x="208" y="789" type="curve" smooth="yes"/>
      <point x="175" y="789"/>
      <point x="146" y="775"/>
      <point x="122" y="746" type="curve" smooth="yes"/>
      <point x="98" y="718"/>
      <point x="86" y="684"/>
      <point x="86" y="645" type="curve" smooth="yes"/>
      <point x="86" y="580"/>
      <point x="115" y="547"/>
      <point x="174" y="547" type="curve" smooth="yes"/>
      <point x="208" y="547"/>
      <point x="237" y="561"/>
      <point x="260" y="588" type="curve" smooth="yes"/>
      <point x="283" y="615"/>
      <point x="295" y="649"/>
    </contour>
  </outline>
</glyph>
<glyph name="semicolon" format="2">
  <advance width="415"/>
  <unicode hex="003B"/>
  <outline>
    <contour>
      <point x="346" y="60" type="curve" smooth="yes"/>
      <point x="346" y="132"/>
      <point x="322" y="180"/>
      <point x="273" y="203" type="curve"/>
      <point x="252" y="204"/>
      <point x="217" y="194"/>
      <point x="167" y="173" type="curve" smooth="yes"/>
      <point x="118" y="153"/>
      <point x="88" y="136"/>
      <point x="78" y="123" type="curve"/>
      <point x="92" y="83" type="line"/>
      <point x="163" y="86"/>
      <point x="198" y="59"/>
      <point x="198" y="1" type="curve" smooth="yes"/>
      <point x="198" y="-88"/>
      <point x="168" y="-167"/>
      <point x="107" y="-237" type="curve"/>
      <point x="146" y="-269" type="line"/>
      <point x="205" y="-225"/>
      <point x="254" y="-170"/>
      <point x="293" y="-103" type="curve" smooth="yes"/>
      <point x="328" y="-42"/>
      <point x="346" y="13"/>
    </contour>
    <contour>
      <point x="325" y="759" type="curve" smooth="yes"/>
      <point x="325" y="826"/>
      <point x="296" y="859"/>
      <point x="238" y="859" type="curve" smooth="yes"/>
      <point x="205" y="859"/>
      <point x="176" y="845"/>
      <point x="152" y="816" type="curve" smooth="yes"/>
      <point x="128" y="788"/>
      <point x="116" y="754"/>
      <point x="116" y="715" type="curve" smooth="yes"/>
      <point x="116" y="650"/>
      <point x="145" y="617"/>
      <point x="204" y="617" type="curve" smooth="yes"/>
      <point x="238" y="617"/>
      <point x="267" y="631"/>
      <point x="290" y="658" type="curve" smooth="yes"/>
      <point x="313" y="685"/>
      <point x="325" y="719"/>
    </contour>
  </outline>
</glyph>
<glyph name="less" format="2">
  <advance width="795"/>
  <unicode hex="003C"/>
  <outline>
    <contour>
      <point x="740" y="772" type="curve"/>
      <point x="719" y="794" type="line"/>
      <point x="83" y="556" type="line"/>
      <point x="73" y="535"/>
      <point x="64" y="505"/>
      <point x="55" y="468" type="curve"/>
      <point x="75" y="446" type="line"/>
      <point x="666" y="226" type="line"/>
      <point x="703" y="253"/>
      <point x="727" y="272"/>
      <point x="740" y="283" type="curve"/>
      <point x="726" y="317" type="line"/>
      <point x="227" y="502" type="line"/>
      <point x="713" y="684" type="line"/>
      <point x="722" y="703"/>
      <point x="731" y="732"/>
    </contour>
  </outline>
</glyph>
<glyph name="equal" format="2">
  <advance width="795"/>
  <unicode hex="003D"/>
  <outline>
    <contour>
      <point x="719" y="679" type="line"/>
      <point x="83" y="679" type="line"/>
      <point x="70" y="652"/>
      <point x="60" y="626"/>
      <point x="55" y="601" type="curve"/>
      <point x="75" y="579" type="line"/>
      <point x="713" y="579" type="line"/>
      <point x="725" y="604"/>
      <point x="734" y="630"/>
      <point x="740" y="657" type="curve"/>
    </contour>
    <contour>
      <point x="719" y="414" type="line"/>
      <point x="83" y="414" type="line"/>
      <point x="70" y="387"/>
      <point x="60" y="361"/>
      <point x="55" y="336" type="curve"/>
      <point x="75" y="314" type="line"/>
      <point x="713" y="314" type="line"/>
      <point x="725" y="339"/>
      <point x="734" y="365"/>
      <point x="740" y="392" type="curve"/>
    </contour>
  </outline>
</glyph>
<glyph name="A" format="2">
  <advance width="1172"/>
  <unicode hex="0041"/>
  <outline>
    <contour>
      <point x="751" y="425" type="line"/>
      <point x="787" y="321"/>
      <point x="823" y="216"/>
      <point x="860" y="112" type="curve" smooth="yes"/>
      <point x="862" y="106"/>
      <point x="863" y="101"/>
      <point x="863" y="96" type="curve" smooth="yes"/>
      <point x="863" y="66"/>
      <point x="825" y="53"/>
      <point x="743" y="48" type="curve"/>
      <point x="743" y="0" type="line"/>
      <point x="1154" y="0" type="line"/>
      <point x="1154" y="48" type="line"/>
      <point x="1073" y="57"/>
      <point x="1045" y="77"/>
      <point x="1033" y="112" type="curve" smooth="yes"/>
      <point x="897" y="498"/>
      <point x="760" y="885"/>
      <point x="625" y="1272" type="curve"/>
      <point x="588" y="1252"/>
      <point x="531" y="1220"/>
      <point x="498" y="1185" type="curve"/>
      <point x="143" y="112" type="line" smooth="yes"/>
      <point x="131" y="74"/>
      <point x="83" y="63"/>
      <point x="-2" y="48" type="curve"/>
      <point x="-2" y="0" type="line"/>
      <point x="393" y="0" type="line"/>
      <point x="393" y="48" type="line"/>
      <point x="302" y="58"/>
      <point x="258" y="70"/>
      <point x="258" y="100" type="curve" smooth="yes"/>
      <point x="258" y="103"/>
      <point x="258" y="107"/>
      <point x="259" y="112" type="curve"/>
      <point x="364" y="425" type="line"/>
    </contour>
    <contour>
      <point x="394" y="518" type="line"/>
      <point x="554" y="996" type="line"/>
      <point x="609" y="837"/>
      <point x="664" y="677"/>
      <point x="719" y="518" type="curve"/>
    </contour>
  </outline>
</glyph>
<glyph name="B" format="2">
  <advance width="1154"/>
  <unicode hex="0042"/>
  <anchor x="542" y="-100" name="L"/>
  <anchor x="542" y="1370" name="U"/>
  <outline>
    <contour>
      <point x="1046" y="356" type="curve"/>
      <point x="1046" y="541"/>
      <point x="913" y="690"/>
      <point x="735" y="723" type="curve"/>
      <point x="860" y="768"/>
      <point x="935" y="877"/>
      <point x="935" y="1020" type="curve" smooth="yes"/>
      <point x="935" y="1188"/>
      <point x="763" y="1290"/>
      <point x="485" y="1290" type="curve" smooth="yes"/>
      <point x="336" y="1290"/>
      <point x="146" y="1259"/>
      <point x="38" y="1230" type="curve"/>
      <point x="48" y="1162" type="line"/>
      <point x="161" y="1183"/>
      <point x="322" y="1200"/>
      <point x="427" y="1200" type="curve" smooth="yes"/>
      <point x="677" y="1200"/>
      <point x="754" y="1104"/>
      <point x="754" y="971" type="curve" smooth="yes"/>
      <point x="754" y="856"/>
      <point x="698" y="729"/>
      <point x="405" y="729" type="curve" smooth="yes"/>
      <point x="311" y="729" type="line"/>
      <point x="321" y="624" type="line"/>
      <point x="381" y="636"/>
      <point x="444" y="647"/>
      <point x="532" y="647" type="curve" smooth="yes"/>
      <point x="764" y="647"/>
      <point x="856" y="473"/>
      <point x="856" y="326" type="curve" smooth="yes"/>
      <point x="856" y="176"/>
      <point x="739" y="76"/>
      <point x="547" y="76" type="curve" smooth="yes"/>
      <point x="487" y="76"/>
      <point x="406" y="82"/>
      <point x="365" y="104" type="curve"/>
      <point x="123" y="0" type="line"/>
      <point x="253" y="-6"/>
      <point x="453" y="-14"/>
      <point x="573" y="-14" type="curve"/>
      <point x="857" y="-14"/>
      <point x="1046" y="129"/>
    </contour>
    <contour>
      <point x="48" y="0" type="line"/>
      <point x="514" y="0" type="line"/>
      <point x="514" y="49" type="line"/>
      <point x="417" y="67"/>
      <point x="375" y="94"/>
      <point x="375" y="110" type="curve" smooth="yes"/>
      <point x="375" y="1231" type="line"/>
      <point x="191" y="1210" type="line"/>
      <point x="191" y="112" type="line" smooth="yes"/>
      <point x="191" y="94"/>
      <point x="138" y="69"/>
      <point x="48" y="51" type="curve"/>
    </contour>
  </outline>
</glyph>
<glyph name="C" format="2">
  <advance width="1110"/>
  <unicode hex="0043"/>
  <anchor x="590" y="0" name="H"/>
  <anchor x="620" y="-100" name="L"/>
  <anchor x="620" y="1370" name="U"/>
  <outline>
    <contour>
      <point x="1032" y="211" type="curve"/>
      <point x="1028" y="221"/>
      <point x="1005" y="255"/>
      <point x="991" y="262" type="curve"/>
      <point x="846" y="141"/>
      <point x="725" y="102"/>
      <point x="653" y="102" type="curve" smooth="yes"/>
      <point x="467" y="102"/>
      <point x="247" y="272"/>
      <point x="247" y="623" type="curve" smooth="yes"/>
      <point x="247" y="1038"/>
      <point x="463" y="1174"/>
      <point x="600" y="1174" type="curve" smooth="yes"/>
      <point x="716" y="1174"/>
      <point x="809" y="1128"/>
      <point x="876" y="1051" type="curve"/>
      <point x="919" y="1043" type="line"/>
      <point x="950" y="1074"/>
      <point x="1028" y="1178"/>
      <point x="1013" y="1190" type="curve" smooth="yes"/>
      <point x="944" y="1245"/>
      <point x="823" y="1290"/>
      <point x="680" y="1290" type="curve" smooth="yes"/>
      <point x="344" y="1290"/>
      <point x="66" y="1012"/>
      <point x="66" y="586" type="curve" smooth="yes"/>
      <point x="66" y="199"/>
      <point x="322" y="-30"/>
      <point x="575" y="-30" type="curve" smooth="yes"/>
      <point x="717" y="-30"/>
      <point x="862" y="31"/>
    </contour>
  </outline>
</glyph>
<glyph name="D" format="2">
  <advance width="1177"/>
  <unicode hex="0044"/>
  <outline>
    <contour>
      <point x="1094" y="652" type="curve" smooth="yes"/>
      <point x="1094" y="1020"/>
      <point x="873" y="1246"/>
      <point x="506" y="1246" type="curve" smooth="yes"/>
      <point x="352" y="1246"/>
      <point x="164" y="1223"/>
      <point x="37" y="1190" type="curve"/>
      <point x="39" y="1167"/>
      <point x="42" y="1146"/>
      <point x="46" y="1124" type="curve"/>
      <point x="86" y="1129"/>
      <point x="130" y="1136"/>
      <point x="180" y="1142" type="curve"/>
      <point x="180" y="105" type="line" smooth="yes"/>
      <point x="180" y="88"/>
      <point x="130" y="65"/>
      <point x="45" y="48" type="curve"/>
      <point x="45" y="0" type="line"/>
      <point x="544" y="0" type="line" smooth="yes"/>
      <point x="785" y="0"/>
      <point x="1094" y="179"/>
    </contour>
    <contour>
      <point x="445" y="1160" type="curve" smooth="yes"/>
      <point x="746" y="1160"/>
      <point x="908" y="948"/>
      <point x="908" y="616" type="curve" smooth="yes"/>
      <point x="908" y="263"/>
      <point x="697" y="86"/>
      <point x="524" y="86" type="curve" smooth="yes"/>
      <point x="385" y="86"/>
      <point x="352" y="105"/>
      <point x="352" y="152" type="curve" smooth="yes"/>
      <point x="352" y="1157" type="line"/>
      <point x="383" y="1159"/>
      <point x="414" y="1160"/>
    </contour>
  </outline>
</glyph>
<glyph name="F" format="2">
  <advance width="948"/>
  <unicode hex="0046"/>
  <outline>
    <contour>
      <point x="517" y="0" type="line"/>
      <point x="517" y="48" type="line"/>
      <point x="394" y="71"/>
      <point x="352" y="90"/>
      <point x="352" y="105" type="curve" smooth="yes"/>
      <point x="352" y="629" type="line"/>
      <point x="463" y="629" type="line" smooth="yes"/>
      <point x="568" y="629"/>
      <point x="612" y="614"/>
      <point x="649" y="577" type="curve"/>
      <point x="675" y="597"/>
      <point x="717" y="649"/>
      <point x="741" y="683" type="curve"/>
      <point x="730" y="692"/>
      <point x="721" y="702"/>
      <point x="712" y="712" type="curve"/>
      <point x="352" y="712" type="line"/>
      <point x="352" y="1126" type="line"/>
      <point x="706" y="1126" type="line" smooth="yes"/>
      <point x="754" y="1126"/>
      <point x="779" y="1084"/>
      <point x="783" y="968" type="curve"/>
      <point x="835" y="968" type="line"/>
      <point x="850" y="1016"/>
      <point x="871" y="1129"/>
      <point x="873" y="1193" type="curve"/>
      <point x="863" y="1200"/>
      <point x="852" y="1210"/>
      <point x="842" y="1218" type="curve"/>
      <point x="45" y="1218" type="line"/>
      <point x="45" y="1170" type="line"/>
      <point x="135" y="1152"/>
      <point x="180" y="1127"/>
      <point x="180" y="1112" type="curve" smooth="yes"/>
      <point x="180" y="105" type="line" smooth="yes"/>
      <point x="180" y="88"/>
      <point x="130" y="65"/>
      <point x="45" y="48" type="curve"/>
      <point x="45" y="0" type="line"/>
    </contour>
  </outline>
</glyph>
<glyph name="H" format="2">
  <advance width="1355"/>
  <unicode hex="0048"/>
  <anchor x="280" y="0" name="H"/>
  <anchor x="668" y="-100" name="L"/>
  <anchor x="668" y="1370" name="U"/>
  <outline>
    <contour>
      <point x="818" y="0" type="line"/>
      <point x="1288" y="0" type="line"/>
      <point x="1288" y="51" type="line"/>
      <point x="1192" y="69"/>
      <point x="1145" y="96"/>
      <point x="1145" y="112" type="curve" smooth="yes"/>
      <point x="1145" y="1147" type="line" smooth="yes"/>
      <point x="1145" y="1166"/>
      <point x="1198" y="1190"/>
      <point x="1288" y="1209" type="curve"/>
      <point x="1288" y="1260" type="line"/>
      <point x="818" y="1260" type="line"/>
      <point x="818" y="1209" type="line"/>
      <point x="914" y="1190"/>
      <point x="961" y="1163"/>
      <point x="961" y="1147" type="curve" smooth="yes"/>
      <point x="961" y="112" type="line" smooth="yes"/>
      <point x="961" y="94"/>
      <point x="908" y="69"/>
      <point x="818" y="51" type="curve"/>
    </contour>
    <contour>
      <point x="347" y="611" type="line"/>
      <point x="981" y="611" type="line"/>
      <point x="981" y="709" type="line"/>
      <point x="347" y="709" type="line"/>
    </contour>
    <contour>
      <point x="48" y="0" type="line"/>
      <point x="518" y="0" type="line"/>
      <point x="518" y="51" type="line"/>
      <point x="421" y="69"/>
      <point x="375" y="96"/>
      <point x="375" y="112" type="curve" smooth="yes"/>
      <point x="375" y="1147" type="line" smooth="yes"/>
      <point x="375" y="1166"/>
      <point x="428" y="1190"/>
      <point x="518" y="1209" type="curve"/>
      <point x="518" y="1260" type="line"/>
      <point x="48" y="1260" type="line"/>
      <point x="48" y="1209" type="line"/>
      <point x="144" y="1190"/>
      <point x="191" y="1163"/>
      <point x="191" y="1147" type="curve" smooth="yes"/>
      <point x="191" y="112" type="line" smooth="yes"/>
      <point x="191" y="94"/>
      <point x="138" y="69"/>
      <point x="48" y="51" type="curve"/>
    </contour>
  </outline>
</glyph>
<glyph name="I" format="2">
  <advance width="626"/>
  <unicode hex="0049"/>
  <anchor x="303" y="0" name="H"/>
  <anchor x="303" y="-100" name="L"/>
  <anchor x="355" y="0" name="O"/>
  <anchor x="586" y="1100" name="R"/>
  <anchor x="303" y="1370" name="U"/>
  <outline>
    <contour>
      <point x="68" y="0" type="line"/>
      <point x="538" y="0" type="line"/>
      <point x="538" y="51" type="line"/>
      <point x="442" y="69"/>
      <point x="395" y="96"/>
      <point x="395" y="112" type="curve" smooth="yes"/>
      <point x="395" y="1147" type="line" smooth="yes"/>
      <point x="395" y="1166"/>
      <point x="448" y="1190"/>
      <point x="538" y="1209" type="curve"/>
      <point x="538" y="1260" type="line"/>
      <point x="68" y="1260" type="line"/>
      <point x="68" y="1209" type="line"/>
      <point x="164" y="1190"/>
      <point x="211" y="1163"/>
      <point x="211" y="1147" type="curve" smooth="yes"/>
      <point x="211" y="112" type="line" smooth="yes"/>
      <point x="211" y="94"/>
      <point x="158" y="69"/>
      <point x="68" y="51" type="curve"/>
    </contour>
  </outline>
</glyph>
<glyph name="J" format="2">
  <advance width="641"/>
  <unicode hex="004A"/>
  <anchor x="336" y="-600" name="L"/>
  <anchor x="336" y="1370" name="U"/>
  <outline>
    <contour>
      <point x="573" y="1209" type="curve"/>
      <point x="573" y="1260" type="line"/>
      <point x="53" y="1260" type="line"/>
      <point x="53" y="1209" type="line"/>
      <point x="213" y="1186"/>
      <point x="246" y="1163"/>
      <point x="246" y="1147" type="curve" smooth="yes"/>
      <point x="246" y="127" type="line" smooth="yes"/>
      <point x="246" y="-186"/>
      <point x="156" y="-255"/>
      <point x="86" y="-255" type="curve" smooth="yes"/>
      <point x="35" y="-255"/>
      <point x="-6" y="-243"/>
      <point x="-80" y="-190" type="curve"/>
      <point x="-117" y="-204"/>
      <point x="-210" y="-282"/>
      <point x="-210" y="-306" type="curve" smooth="yes"/>
      <point x="-210" y="-331"/>
      <point x="-116" y="-390"/>
      <point x="-25" y="-390" type="curve" smooth="yes"/>
      <point x="37" y="-390"/>
      <point x="150" y="-352"/>
      <point x="221" y="-294" type="curve" smooth="yes"/>
      <point x="326" y="-209"/>
      <point x="430" y="-111"/>
      <point x="430" y="199" type="curve" smooth="yes"/>
      <point x="430" y="1147" type="line" smooth="yes"/>
      <point x="430" y="1166"/>
      <point x="483" y="1190"/>
    </contour>
  </outline>
</glyph>
<glyph name="K" format="2">
  <advance width="1206"/>
  <unicode hex="004B"/>
  <anchor x="284" y="0" name="H"/>
  <anchor x="623" y="-100" name="L"/>
  <anchor x="600" y="1370" name="U"/>
  <outline>
    <contour>
      <point x="1134" y="1209" type="curve"/>
      <point x="1134" y="1260" type="line"/>
      <point x="706" y="1260" type="line"/>
      <point x="706" y="1209" type="line"/>
      <point x="811" y="1200"/>
      <point x="835" y="1192"/>
      <point x="774" y="1120" type="curve" smooth="yes"/>
      <point x="369" y="643" type="line"/>
      <point x="505" y="643" type="line"/>
      <point x="968" y="1147" type="line" smooth="yes"/>
      <point x="1009" y="1192"/>
      <point x="1048" y="1198"/>
    </contour>
    <contour>
      <point x="1198" y="41" type="curve"/>
      <point x="1191" y="92" type="line"/>
      <point x="1122" y="84"/>
      <point x="1061" y="86"/>
      <point x="1015" y="137" type="curve" smooth="yes"/>
      <point x="489" y="721" type="line"/>
      <point x="369" y="643" type="line"/>
      <point x="868" y="29" type="line" smooth="yes"/>
      <point x="895" y="-4"/>
      <point x="923" y="-14"/>
      <point x="962" y="-14" type="curve" smooth="yes"/>
      <point x="1026" y="-14"/>
      <point x="1120" y="16"/>
    </contour>
    <contour>
      <point x="48" y="0" type="line"/>
      <point x="518" y="0" type="line"/>
      <point x="518" y="51" type="line"/>
      <point x="421" y="69"/>
      <point x="375" y="96"/>
      <point x="375" y="112" type="curve" smooth="yes"/>
      <point x="375" y="1147" type="line" smooth="yes"/>
      <point x="375" y="1166"/>
      <point x="428" y="1190"/>
      <point x="518" y="1209" type="curve"/>
      <point x="518" y="1260" type="line"/>
      <point x="48" y="1260" type="line"/>
      <point x="48" y="1209" type="line"/>
      <point x="144" y="1190"/>
      <point x="191" y="1163"/>
      <point x="191" y="1147" type="curve" smooth="yes"/>
      <point x="191" y="112" type="line" smooth="yes"/>
      <point x="191" y="94"/>
      <point x="138" y="69"/>
      <point x="48" y="51" type="curve"/>
    </contour>
  </outline>
</glyph>
<glyph name="L" format="2">
  <advance width="945"/>
  <unicode hex="004C"/>
  <outline>
    <contour>
      <point x="917" y="244" type="curve"/>
      <point x="869" y="261" type="line"/>
      <point x="816" y="115"/>
      <point x="781" y="92"/>
      <point x="666" y="92" type="curve" smooth="yes"/>
      <point x="527" y="92" type="line" smooth="yes"/>
      <point x="390" y="92"/>
      <point x="352" y="117"/>
      <point x="352" y="162" type="curve" smooth="yes"/>
      <point x="352" y="1112" type="line" smooth="yes"/>
      <point x="352" y="1130"/>
      <point x="402" y="1152"/>
      <point x="487" y="1170" type="curve"/>
      <point x="487" y="1218" type="line"/>
      <point x="45" y="1218" type="line"/>
      <point x="45" y="1170" type="line"/>
      <point x="135" y="1152"/>
      <point x="180" y="1127"/>
      <point x="180" y="1112" type="curve" smooth="yes"/>
      <point x="180" y="105" type="line" smooth="yes"/>
      <point x="180" y="88"/>
      <point x="130" y="65"/>
      <point x="45" y="48" type="curve"/>
      <point x="45" y="0" type="line"/>
      <point x="879" y="0" type="line"/>
      <point x="888" y="37"/>
      <point x="908" y="136"/>
    </contour>
  </outline>
</glyph>
<glyph name="M" format="2">
  <advance width="1673"/>
  <unicode hex="004D"/>
  <anchor x="1364" y="0" name="H"/>
  <anchor x="826" y="-100" name="L"/>
  <anchor x="826" y="1370" name="U"/>
  <outline>
    <contour>
      <point x="1121" y="0" type="line"/>
      <point x="1594" y="0" type="line"/>
      <point x="1594" y="51" type="line"/>
      <point x="1498" y="69"/>
      <point x="1449" y="96"/>
      <point x="1449" y="112" type="curve" smooth="yes"/>
      <point x="1439" y="1206" type="line"/>
      <point x="1264" y="1149" type="line"/>
      <point x="1274" y="112" type="line" smooth="yes"/>
      <point x="1274" y="94"/>
      <point x="1211" y="69"/>
      <point x="1121" y="51" type="curve"/>
    </contour>
    <contour>
      <point x="1572" y="1209" type="curve"/>
      <point x="1572" y="1260" type="line"/>
      <point x="1272" y="1260" type="line" smooth="yes"/>
      <point x="1247" y="1260"/>
      <point x="1240" y="1256"/>
      <point x="1206" y="1176" type="curve" smooth="yes"/>
      <point x="813" y="262" type="line" smooth="yes"/>
      <point x="795" y="219"/>
      <point x="796" y="168"/>
      <point x="827" y="0" type="curve"/>
      <point x="831" y="0" type="line"/>
      <point x="1282" y="1054" type="line" smooth="yes"/>
      <point x="1315" y="1130"/>
      <point x="1482" y="1209"/>
    </contour>
    <contour>
      <point x="839" y="264" type="curve" smooth="yes"/>
      <point x="436" y="1176" type="line" smooth="yes"/>
      <point x="404" y="1248"/>
      <point x="396" y="1260"/>
      <point x="370" y="1260" type="curve" smooth="yes"/>
      <point x="68" y="1260" type="line"/>
      <point x="68" y="1209" type="line"/>
      <point x="141" y="1209"/>
      <point x="261" y="1176"/>
      <point x="313" y="1055" type="curve" smooth="yes"/>
      <point x="770" y="0" type="line"/>
      <point x="827" y="0" type="line"/>
      <point x="860" y="168"/>
      <point x="857" y="223"/>
    </contour>
    <contour>
      <point x="58" y="0" type="line"/>
      <point x="467" y="0" type="line"/>
      <point x="467" y="51" type="line"/>
      <point x="371" y="69"/>
      <point x="324" y="96"/>
      <point x="324" y="112" type="curve" smooth="yes"/>
      <point x="335" y="1213" type="line"/>
      <point x="211" y="1188" type="line"/>
      <point x="201" y="112" type="line" smooth="yes"/>
      <point x="201" y="94"/>
      <point x="149" y="69"/>
      <point x="58" y="51" type="curve"/>
    </contour>
  </outline>
</glyph>
<glyph name="N" format="2">
  <advance width="1337"/>
  <unicode hex="004E"/>
  <anchor x="1053" y="0" name="H"/>
  <anchor x="669" y="-100" name="L"/>
  <anchor x="669" y="1370" name="U"/>
  <outline>
    <contour>
      <point x="1290" y="1209" type="curve"/>
      <point x="1290" y="1260" type="line"/>
      <point x="876" y="1260" type="line"/>
      <point x="876" y="1209" type="line"/>
      <point x="983" y="1194"/>
      <point x="1019" y="1163"/>
      <point x="1019" y="1147" type="curve" smooth="yes"/>
      <point x="1019" y="71" type="line"/>
      <point x="1147" y="32" type="line"/>
      <point x="1147" y="1147" type="line" smooth="yes"/>
      <point x="1147" y="1166"/>
      <point x="1194" y="1196"/>
    </contour>
    <contour>
      <point x="1147" y="-30" type="curve"/>
      <point x="1147" y="126" type="line"/>
      <point x="1147" y="126"/>
      <point x="1053" y="244"/>
      <point x="1025" y="283" type="curve" smooth="yes"/>
      <point x="374" y="1182" type="line" smooth="yes"/>
      <point x="324" y="1251"/>
      <point x="317" y="1260"/>
      <point x="278" y="1260" type="curve" smooth="yes"/>
      <point x="48" y="1260" type="line"/>
      <point x="48" y="1209" type="line"/>
      <point x="118" y="1198"/>
      <point x="183" y="1163"/>
      <point x="238" y="1086" type="curve" smooth="yes"/>
      <point x="996" y="35" type="line" smooth="yes"/>
      <point x="1017" y="6"/>
      <point x="1065" y="-21"/>
    </contour>
    <contour>
      <point x="48" y="0" type="line"/>
      <point x="462" y="0" type="line"/>
      <point x="462" y="51" type="line"/>
      <point x="359" y="65"/>
      <point x="319" y="96"/>
      <point x="319" y="112" type="curve" smooth="yes"/>
      <point x="319" y="1221" type="line"/>
      <point x="191" y="1188" type="line"/>
      <point x="191" y="112" type="line" smooth="yes"/>
      <point x="191" y="94"/>
      <point x="146" y="63"/>
      <point x="48" y="51" type="curve"/>
    </contour>
  </outline>
</glyph>
<glyph name="O" format="2">
  <advance width="1241"/>
  <unicode hex="004F"/>
  <anchor x="592" y="0" name="H"/>
  <anchor x="623" y="-100" name="L"/>
  <anchor x="685" y="0" name="O"/>
  <anchor x="1258" y="1100" name="R"/>
  <anchor x="623" y="1370" name="U"/>
  <outline>
    <contour>
      <point x="583" y="-30" type="curve" smooth="yes"/>
      <point x="892" y="-30"/>
      <point x="1156" y="285"/>
      <point x="1156" y="647" type="curve" smooth="yes"/>
      <point x="1156" y="973"/>
      <point x="977" y="1290"/>
      <point x="641" y="1290" type="curve" smooth="yes"/>
      <point x="317" y="1290"/>
      <point x="68" y="975"/>
      <point x="68" y="612" type="curve" smooth="yes"/>
      <point x="68" y="276"/>
      <point x="257" y="-30"/>
    </contour>
    <contour>
      <point x="616" y="94" type="curve" smooth="yes"/>
      <point x="417" y="94"/>
      <point x="249" y="342"/>
      <point x="249" y="641" type="curve" smooth="yes"/>
      <point x="249" y="967"/>
      <point x="381" y="1171"/>
      <point x="606" y="1171" type="curve" smooth="yes"/>
      <point x="827" y="1171"/>
      <point x="975" y="905"/>
      <point x="975" y="629" type="curve" smooth="yes"/>
      <point x="975" y="276"/>
      <point x="825" y="94"/>
    </contour>
  </outline>
</glyph>
<glyph name="Q" format="2">
  <advance width="1241"/>
  <unicode hex="0051"/>
  <anchor x="618" y="-262" name="L"/>
  <anchor x="618" y="1370" name="U"/>
  <outline>
    <contour>
      <point x="1154" y="647" type="curve"/>
      <point x="1154" y="973"/>
      <point x="975" y="1290"/>
      <point x="639" y="1290" type="curve" smooth="yes"/>
      <point x="315" y="1290"/>
      <point x="66" y="975"/>
      <point x="66" y="612" type="curve" smooth="yes"/>
      <point x="66" y="263"/>
      <point x="277" y="-30"/>
      <point x="581" y="-30" type="curve" smooth="yes"/>
      <point x="891" y="-30"/>
      <point x="1154" y="285"/>
    </contour>
    <contour>
      <point x="1318" y="-119" type="curve"/>
      <point x="1285" y="-76" type="line"/>
      <point x="1206" y="-135"/>
      <point x="1173" y="-152"/>
      <point x="1140" y="-152" type="curve" smooth="yes"/>
      <point x="1013" y="-152"/>
      <point x="857" y="8"/>
      <point x="696" y="49" type="curve" smooth="yes"/>
      <point x="661" y="58"/>
      <point x="506" y="20"/>
      <point x="506" y="20" type="curve"/>
      <point x="716" y="-16"/>
      <point x="921" y="-311"/>
      <point x="1134" y="-311" type="curve" smooth="yes"/>
      <point x="1175" y="-311"/>
      <point x="1255" y="-235"/>
    </contour>
    <contour>
      <point x="973" y="629" type="curve"/>
      <point x="973" y="276"/>
      <point x="823" y="94"/>
      <point x="614" y="94" type="curve" smooth="yes"/>
      <point x="415" y="94"/>
      <point x="247" y="342"/>
      <point x="247" y="641" type="curve" smooth="yes"/>
      <point x="247" y="967"/>
      <point x="379" y="1171"/>
      <point x="604" y="1171" type="curve" smooth="yes"/>
      <point x="825" y="1171"/>
      <point x="973" y="905"/>
    </contour>
  </outline>
</glyph>
<glyph name="T" format="2">
  <advance width="1144"/>
  <unicode hex="0054"/>
  <anchor x="558" y="0" name="H"/>
  <anchor x="554" y="-100" name="L"/>
  <anchor x="554" y="1370" name="U"/>
  <outline>
    <contour>
      <point x="1101" y="1233" type="curve"/>
      <point x="1069" y="1260" type="line"/>
      <point x="581" y="1260" type="line"/>
      <point x="552" y="1162" type="line"/>
      <point x="925" y="1162" type="line" smooth="yes"/>
      <point x="982" y="1162"/>
      <point x="990" y="1108"/>
      <point x="1016" y="984" type="curve"/>
      <point x="1069" y="984" type="line"/>
      <point x="1085" y="1068"/>
      <point x="1099" y="1165"/>
    </contour>
    <contour>
      <point x="180" y="1162" type="curve" smooth="yes"/>
      <point x="654" y="1162" type="line"/>
      <point x="630" y="1260" type="line"/>
      <point x="43" y="1260" type="line"/>
      <point x="29" y="1190"/>
      <point x="14" y="1077"/>
      <point x="8" y="999" type="curve"/>
      <point x="59" y="978" type="line"/>
      <point x="119" y="1134"/>
      <point x="139" y="1162"/>
    </contour>
    <contour>
      <point x="305" y="0" type="line"/>
      <point x="813" y="0" type="line"/>
      <point x="813" y="51" type="line"/>
      <point x="690" y="76"/>
      <point x="651" y="106"/>
      <point x="651" y="123" type="curve" smooth="yes"/>
      <point x="651" y="1169" type="line" smooth="yes"/>
      <point x="651" y="1187"/>
      <point x="704" y="1190"/>
      <point x="794" y="1209" type="curve"/>
      <point x="794" y="1260" type="line"/>
      <point x="326" y="1260" type="line"/>
      <point x="326" y="1209" type="line"/>
      <point x="422" y="1190"/>
      <point x="467" y="1185"/>
      <point x="467" y="1169" type="curve" smooth="yes"/>
      <point x="467" y="123" type="line" smooth="yes"/>
      <point x="467" y="104"/>
      <point x="428" y="76"/>
      <point x="305" y="51" type="curve"/>
    </contour>
  </outline>
</glyph>
<glyph name="U" format="2">
  <advance width="1347"/>
  <unicode hex="0055"/>
  <anchor x="681" y="0" name="H"/>
  <anchor x="681" y="-100" name="L"/>
  <anchor x="765" y="0" name="O"/>
  <anchor x="1340" y="1100" name="R"/>
  <anchor x="681" y="1370" name="U"/>
  <outline>
    <contour>
      <point x="1285" y="1209" type="curve"/>
      <point x="1285" y="1260" type="line"/>
      <point x="857" y="1260" type="line"/>
      <point x="857" y="1209" type="line"/>
      <point x="953" y="1190"/>
      <point x="1000" y="1163"/>
      <point x="1000" y="1147" type="curve" smooth="yes"/>
      <point x="1000" y="487" type="line" smooth="yes"/>
      <point x="1000" y="289"/>
      <point x="905" y="93"/>
      <point x="715" y="93" type="curve" smooth="yes"/>
      <point x="487" y="93"/>
      <point x="375" y="242"/>
      <point x="375" y="498" type="curve" smooth="yes"/>
      <point x="375" y="1147" type="line" smooth="yes"/>
      <point x="375" y="1166"/>
      <point x="428" y="1190"/>
      <point x="518" y="1209" type="curve"/>
      <point x="518" y="1260" type="line"/>
      <point x="48" y="1260" type="line"/>
      <point x="48" y="1209" type="line"/>
      <point x="144" y="1190"/>
      <point x="191" y="1163"/>
      <point x="191" y="1147" type="curve" smooth="yes"/>
      <point x="191" y="444" type="line" smooth="yes"/>
      <point x="191" y="119"/>
      <point x="395" y="-30"/>
      <point x="670" y="-30" type="curve" smooth="yes"/>
      <point x="958" y="-30"/>
      <point x="1142" y="174"/>
      <point x="1142" y="524" type="curve" smooth="yes"/>
      <point x="1142" y="1147" type="line" smooth="yes"/>
      <point x="1142" y="1166"/>
      <point x="1195" y="1190"/>
    </contour>
  </outline>
</glyph>
<glyph name="W" format="2">
  <advance width="1741"/>
  <unicode hex="0057"/>
  <anchor x="865" y="-100" name="L"/>
  <anchor x="865" y="1370" name="U"/>
  <outline>
    <contour>
      <point x="1710" y="1209" type="curve"/>
      <point x="1710" y="1260" type="line"/>
      <point x="1280" y="1260" type="line"/>
      <point x="1280" y="1209" type="line"/>
      <point x="1370" y="1194"/>
      <point x="1440" y="1178"/>
      <point x="1434" y="1147" type="curve"/>
      <point x="1254" y="286" type="line"/>
      <point x="905" y="1260" type="line"/>
      <point x="838" y="1260" type="line"/>
      <point x="523" y="286" type="line"/>
      <point x="331" y="1139" type="line" smooth="yes"/>
      <point x="325" y="1168"/>
      <point x="335" y="1196"/>
      <point x="465" y="1209" type="curve"/>
      <point x="465" y="1260" type="line"/>
      <point x="20" y="1260" type="line"/>
      <point x="20" y="1209" type="line"/>
      <point x="115" y="1192"/>
      <point x="151" y="1172"/>
      <point x="158" y="1139" type="curve" smooth="yes"/>
      <point x="418" y="-30" type="line"/>
      <point x="472" y="-18"/>
      <point x="552" y="2"/>
      <point x="571" y="59" type="curve" smooth="yes"/>
      <point x="858" y="926" type="line"/>
      <point x="1188" y="-30" type="line"/>
      <point x="1229" y="-21"/>
      <point x="1317" y="2"/>
      <point x="1329" y="59" type="curve" smooth="yes"/>
      <point x="1558" y="1147" type="line" smooth="yes"/>
      <point x="1562" y="1168"/>
      <point x="1592" y="1185"/>
    </contour>
  </outline>
</glyph>
<glyph name="X" format="2">
  <advance width="1268"/>
  <unicode hex="0058"/>
  <anchor x="634" y="-100" name="L"/>
  <anchor x="634" y="1370" name="U"/>
  <outline>
    <contour>
      <point x="1190" y="1209" type="curve"/>
      <point x="1190" y="1260" type="line"/>
      <point x="737" y="1260" type="line"/>
      <point x="737" y="1209" type="line"/>
      <point x="856" y="1200"/>
      <point x="897" y="1184"/>
      <point x="860" y="1125" type="curve" smooth="yes"/>
      <point x="579" y="674" type="line"/>
      <point x="633" y="526" type="line"/>
      <point x="1007" y="1125" type="line" smooth="yes"/>
      <point x="1042" y="1182"/>
      <point x="1093" y="1198"/>
    </contour>
    <contour>
      <point x="766" y="0" type="line"/>
      <point x="1239" y="0" type="line"/>
      <point x="1239" y="51" type="line"/>
      <point x="1161" y="61"/>
      <point x="1122" y="78"/>
      <point x="1083" y="135" type="curve" smooth="yes"/>
      <point x="407" y="1125" type="line" smooth="yes"/>
      <point x="367" y="1183"/>
      <point x="401" y="1198"/>
      <point x="514" y="1209" type="curve"/>
      <point x="514" y="1260" type="line"/>
      <point x="39" y="1260" type="line"/>
      <point x="39" y="1209" type="line"/>
      <point x="127" y="1196"/>
      <point x="155" y="1184"/>
      <point x="195" y="1125" type="curve" smooth="yes"/>
      <point x="871" y="135" type="line" smooth="yes"/>
      <point x="908" y="81"/>
      <point x="883" y="63"/>
      <point x="766" y="51" type="curve"/>
    </contour>
    <contour>
      <point x="358" y="135" type="curve" smooth="yes"/>
      <point x="637" y="578" type="line"/>
      <point x="596" y="752" type="line"/>
      <point x="211" y="135" type="line" smooth="yes"/>
      <point x="177" y="80"/>
      <point x="115" y="57"/>
      <point x="29" y="51" type="curve"/>
      <point x="29" y="0" type="line"/>
      <point x="479" y="0" type="line"/>
      <point x="479" y="51" type="line"/>
      <point x="356" y="59"/>
      <point x="321" y="76"/>
    </contour>
  </outline>
</glyph>
<glyph name="Z" format="2">
  <advance width="1083"/>
  <unicode hex="005A"/>
  <anchor x="541" y="-100" name="L"/>
  <anchor x="561" y="1370" name="U"/>
  <outline>
    <contour>
      <point x="1005" y="309" type="curve"/>
      <point x="942" y="325" type="line"/>
      <point x="891" y="161"/>
      <point x="862" y="108"/>
      <point x="805" y="108" type="curve" smooth="yes"/>
      <point x="300" y="108" type="line"/>
      <point x="995" y="1215" type="line"/>
      <point x="968" y="1260" type="line"/>
      <point x="338" y="1260" type="line" smooth="yes"/>
      <point x="260" y="1260"/>
      <point x="221" y="1260"/>
      <point x="148" y="1276" type="curve"/>
      <point x="117" y="959" type="line"/>
      <point x="182" y="945" type="line"/>
      <point x="211" y="1084"/>
      <point x="274" y="1152"/>
      <point x="317" y="1152" type="curve" smooth="yes"/>
      <point x="758" y="1152" type="line"/>
      <point x="57" y="47" type="line"/>
      <point x="88" y="0" type="line"/>
      <point x="993" y="0" type="line"/>
      <point x="995" y="78"/>
      <point x="1001" y="223"/>
    </contour>
  </outline>
</glyph>
<glyph name="bracketright" format="2">
  <advance width="557"/>
  <unicode hex="005D"/>
  <outline>
    <contour>
      <point x="433" y="1413" type="line"/>
      <point x="60" y="1413" type="line"/>
      <point x="49" y="1387"/>
      <point x="41" y="1362"/>
      <point x="36" y="1337" type="curve"/>
      <point x="66" y="1312" type="line"/>
      <point x="309" y="1312" type="line"/>
      <point x="309" y="-194" type="line"/>
      <point x="60" y="-194" type="line"/>
      <point x="49" y="-217"/>
      <point x="42" y="-242"/>
      <point x="37" y="-271" type="curve"/>
      <point x="66" y="-295" type="line"/>
      <point x="433" y="-295" type="line"/>
    </contour>
  </outline>
</glyph>
<glyph name="underscore" format="2">
  <advance width="757"/>
  <unicode hex="005F"/>
  <outline>
    <contour>
      <point x="785" y="-149" type="curve"/>
      <point x="762" y="-124" type="line"/>
      <point x="8" y="-124" type="line"/>
      <point x="-4" y="-149"/>
      <point x="-19" y="-188"/>
      <point x="-25" y="-213" type="curve"/>
      <point x="0" y="-240" type="line"/>
      <point x="754" y="-240" type="line"/>
      <point x="765" y="-217"/>
      <point x="780" y="-176"/>
    </contour>
  </outline>
</glyph>
<glyph name="a" format="2">
  <advance width="962"/>
  <unicode hex="0061"/>
  <anchor x="439" y="0" name="H"/>
  <anchor x="468" y="-100" name="L"/>
  <anchor x="732" y="0" name="O"/>
  <anchor x="962" y="900" name="R"/>
  <anchor x="489" y="1050" name="U"/>
  <outline>
    <contour>
      <point x="950" y="90" type="curve"/>
      <point x="933" y="143" type="line"/>
      <point x="880" y="121"/>
      <point x="856" y="116"/>
      <point x="837" y="116" type="curve" smooth="yes"/>
      <point x="813" y="116"/>
      <point x="797" y="138"/>
      <point x="797" y="194" type="curve" smooth="yes"/>
      <point x="797" y="736" type="line" smooth="yes"/>
      <point x="797" y="873"/>
      <point x="714" y="960"/>
      <point x="558" y="960" type="curve" smooth="yes"/>
      <point x="375" y="960"/>
      <point x="164" y="838"/>
      <point x="102" y="698" type="curve"/>
      <point x="118" y="655" type="line"/>
      <point x="151" y="647"/>
      <point x="315" y="693"/>
      <point x="312" y="718" type="curve" smooth="yes"/>
      <point x="304" y="798"/>
      <point x="385" y="850"/>
      <point x="465" y="852" type="curve" smooth="yes"/>
      <point x="588" y="855"/>
      <point x="623" y="786"/>
      <point x="623" y="698" type="curve" smooth="yes"/>
      <point x="623" y="164" type="line" smooth="yes"/>
      <point x="623" y="45"/>
      <point x="657" y="-30"/>
      <point x="706" y="-30" type="curve" smooth="yes"/>
      <point x="746" y="-30"/>
      <point x="837" y="12"/>
    </contour>
    <contour>
      <point x="633" y="484" type="curve"/>
      <point x="633" y="565" type="line"/>
      <point x="314" y="518"/>
      <point x="230" y="466"/>
      <point x="165" y="401" type="curve" smooth="yes"/>
      <point x="116" y="352"/>
      <point x="76" y="289"/>
      <point x="76" y="190" type="curve" smooth="yes"/>
      <point x="76" y="35"/>
      <point x="193" y="-30"/>
      <point x="293" y="-30" type="curve" smooth="yes"/>
      <point x="383" y="-30"/>
      <point x="516" y="23"/>
      <point x="641" y="158" type="curve"/>
      <point x="633" y="242" type="line"/>
      <point x="528" y="149"/>
      <point x="442" y="112"/>
      <point x="368" y="112" type="curve" smooth="yes"/>
      <point x="333" y="112"/>
      <point x="264" y="135"/>
      <point x="264" y="237" type="curve" smooth="yes"/>
      <point x="264" y="297"/>
      <point x="288" y="340"/>
      <point x="322" y="376" type="curve" smooth="yes"/>
      <point x="364" y="419"/>
      <point x="419" y="450"/>
    </contour>
  </outline>
</glyph>
<glyph name="c" format="2">
  <advance width="905"/>
  <unicode hex="0063"/>
  <anchor x="496" y="0" name="H"/>
  <anchor x="496" y="-100" name="L"/>
  <anchor x="947" y="900" name="R"/>
  <anchor x="496" y="1050" name="U"/>
  <outline>
    <contour>
      <point x="854" y="190" type="curve"/>
      <point x="811" y="237" type="line"/>
      <point x="665" y="116"/>
      <point x="620" y="110"/>
      <point x="545" y="110" type="curve" smooth="yes"/>
      <point x="389" y="110"/>
      <point x="250" y="252"/>
      <point x="250" y="475" type="curve" smooth="yes"/>
      <point x="250" y="727"/>
      <point x="374" y="846"/>
      <point x="508" y="846" type="curve" smooth="yes"/>
      <point x="637" y="846"/>
      <point x="705" y="770"/>
      <point x="733" y="701" type="curve"/>
      <point x="778" y="691" type="line"/>
      <point x="803" y="728"/>
      <point x="847" y="848"/>
      <point x="841" y="881" type="curve"/>
      <point x="796" y="928"/>
      <point x="682" y="960"/>
      <point x="594" y="960" type="curve" smooth="yes"/>
      <point x="299" y="960"/>
      <point x="76" y="731"/>
      <point x="76" y="444" type="curve" smooth="yes"/>
      <point x="76" y="147"/>
      <point x="268" y="-30"/>
      <point x="469" y="-30" type="curve" smooth="yes"/>
      <point x="594" y="-30"/>
      <point x="680" y="-12"/>
    </contour>
  </outline>
</glyph>
<glyph name="d" format="2">
  <advance width="1022"/>
  <unicode hex="0064"/>
  <anchor x="523" y="0" name="H"/>
  <anchor x="502" y="-95" name="L"/>
  <anchor x="1021" y="851" name="R"/>
  <anchor x="502" y="1599" name="U"/>
  <outline>
    <contour>
      <point x="1009" y="87" type="curve"/>
      <point x="993" y="135" type="line"/>
      <point x="920" y="106"/>
      <point x="896" y="102"/>
      <point x="885" y="115" type="curve" smooth="yes"/>
      <point x="872" y="131"/>
      <point x="863" y="163"/>
      <point x="863" y="252" type="curve" smooth="yes"/>
      <point x="863" y="1436" type="line"/>
      <point x="832" y="1466" type="line"/>
      <point x="768" y="1445"/>
      <point x="678" y="1418"/>
      <point x="566" y="1405" type="curve"/>
      <point x="566" y="1360" type="line"/>
      <point x="696" y="1351"/>
      <point x="700" y="1337"/>
      <point x="700" y="1198" type="curve" smooth="yes"/>
      <point x="700" y="265" type="line" smooth="yes"/>
      <point x="700" y="56"/>
      <point x="729" y="-28"/>
      <point x="783" y="-28" type="curve" smooth="yes"/>
      <point x="817" y="-28"/>
      <point x="894" y="9"/>
    </contour>
    <contour>
      <point x="769" y="235" type="curve"/>
      <point x="765" y="244"/>
      <point x="749" y="273"/>
      <point x="733" y="281" type="curve"/>
      <point x="645" y="196"/>
      <point x="562" y="110"/>
      <point x="470" y="110" type="curve" smooth="yes"/>
      <point x="366" y="110"/>
      <point x="236" y="244"/>
      <point x="236" y="455" type="curve" smooth="yes"/>
      <point x="236" y="687"/>
      <point x="343" y="798"/>
      <point x="493" y="798" type="curve" smooth="yes"/>
      <point x="586" y="798"/>
      <point x="666" y="752"/>
      <point x="707" y="673" type="curve"/>
      <point x="747" y="697"/>
      <point x="762" y="721"/>
      <point x="762" y="797" type="curve"/>
      <point x="664" y="893"/>
      <point x="593" y="908"/>
      <point x="518" y="908" type="curve" smooth="yes"/>
      <point x="255" y="908"/>
      <point x="73" y="647"/>
      <point x="73" y="420" type="curve" smooth="yes"/>
      <point x="73" y="139"/>
      <point x="249" y="-28"/>
      <point x="396" y="-28" type="curve" smooth="yes"/>
      <point x="547" y="-28"/>
      <point x="635" y="68"/>
    </contour>
  </outline>
</glyph>
<glyph name="e" format="2">
  <advance width="958"/>
  <unicode hex="0065"/>
  <anchor x="507" y="0" name="H"/>
  <anchor x="507" y="-100" name="L"/>
  <anchor x="558" y="0" name="O"/>
  <anchor x="1020" y="900" name="R"/>
  <anchor x="517" y="1050" name="U"/>
  <outline>
    <contour>
      <point x="882" y="555" type="curve"/>
      <point x="882" y="737"/>
      <point x="792" y="960"/>
      <point x="530" y="960" type="curve" smooth="yes"/>
      <point x="451" y="960"/>
      <point x="355" y="921"/>
      <point x="293" y="877" type="curve" smooth="yes"/>
      <point x="155" y="781"/>
      <point x="76" y="616"/>
      <point x="76" y="436" type="curve" smooth="yes"/>
      <point x="76" y="154"/>
      <point x="258" y="-30"/>
      <point x="469" y="-30" type="curve" smooth="yes"/>
      <point x="612" y="-30"/>
      <point x="696" y="2"/>
      <point x="876" y="195" type="curve"/>
      <point x="870" y="205"/>
      <point x="852" y="233"/>
      <point x="835" y="242" type="curve"/>
      <point x="684" y="123"/>
      <point x="620" y="110"/>
      <point x="536" y="110" type="curve" smooth="yes"/>
      <point x="358" y="110"/>
      <point x="252" y="287"/>
      <point x="252" y="495" type="curve" smooth="yes"/>
      <point x="252" y="702"/>
      <point x="344" y="851"/>
      <point x="500" y="851" type="curve" smooth="yes"/>
      <point x="664" y="851"/>
      <point x="698" y="690"/>
      <point x="698" y="616" type="curve" smooth="yes"/>
      <point x="698" y="588"/>
      <point x="690" y="580"/>
      <point x="660" y="580" type="curve" smooth="yes"/>
      <point x="184" y="580" type="line"/>
      <point x="182" y="484" type="line"/>
      <point x="764" y="484" type="line"/>
      <point x="807" y="501"/>
      <point x="858" y="528"/>
    </contour>
  </outline>
</glyph>
<glyph name="g" format="2">
  <advance width="1015"/>
  <unicode hex="0067"/>
  <anchor x="507" y="-470" name="H"/>
  <anchor x="507" y="-600" name="L"/>
  <anchor x="1015" y="900" name="R"/>
  <anchor x="507" y="1050" name="U"/>
  <outline>
    <contour>
      <point x="988" y="-116" type="curve" smooth="yes"/>
      <point x="988" y="-12"/>
      <point x="909" y="84"/>
      <point x="612" y="118" type="curve"/>
      <point x="403" y="143"/>
      <point x="364" y="170"/>
      <point x="364" y="200" type="curve" smooth="yes"/>
      <point x="364" y="211"/>
      <point x="396" y="270"/>
      <point x="514" y="350" type="curve"/>
      <point x="362" y="333" type="line"/>
      <point x="207" y="233"/>
      <point x="174" y="171"/>
      <point x="174" y="145" type="curve" smooth="yes"/>
      <point x="174" y="81"/>
      <point x="266" y="17"/>
      <point x="528" y="-14" type="curve" smooth="yes"/>
      <point x="762" y="-41"/>
      <point x="816" y="-93"/>
      <point x="816" y="-161" type="curve" smooth="yes"/>
      <point x="816" y="-287"/>
      <point x="710" y="-383"/>
      <point x="536" y="-383" type="curve" smooth="yes"/>
      <point x="354" y="-383"/>
      <point x="200" y="-294"/>
      <point x="200" y="-188" type="curve" smooth="yes"/>
      <point x="200" y="-143"/>
      <point x="217" y="-82"/>
      <point x="424" y="30" type="curve"/>
      <point x="418" y="57"/>
      <point x="334" y="61"/>
      <point x="334" y="61" type="curve"/>
      <point x="73" y="-73"/>
      <point x="26" y="-154"/>
      <point x="26" y="-227" type="curve" smooth="yes"/>
      <point x="26" y="-421"/>
      <point x="285" y="-498"/>
      <point x="477" y="-498" type="curve" smooth="yes"/>
      <point x="718" y="-498"/>
      <point x="988" y="-327"/>
    </contour>
    <contour>
      <point x="1007" y="928" type="curve"/>
      <point x="985" y="960" type="line"/>
      <point x="923" y="937"/>
      <point x="819" y="899"/>
      <point x="653" y="889" type="curve"/>
      <point x="698" y="808" type="line"/>
      <point x="811" y="804"/>
      <point x="878" y="812"/>
      <point x="950" y="824" type="curve"/>
      <point x="979" y="857"/>
      <point x="993" y="893"/>
    </contour>
    <contour>
      <point x="848" y="641" type="curve" smooth="yes"/>
      <point x="848" y="814"/>
      <point x="696" y="960"/>
      <point x="495" y="960" type="curve" smooth="yes"/>
      <point x="291" y="960"/>
      <point x="96" y="798"/>
      <point x="96" y="602" type="curve" smooth="yes"/>
      <point x="96" y="416"/>
      <point x="246" y="295"/>
      <point x="447" y="295" type="curve" smooth="yes"/>
      <point x="649" y="295"/>
      <point x="848" y="437"/>
    </contour>
    <contour>
      <point x="684" y="600" type="curve" smooth="yes"/>
      <point x="684" y="470"/>
      <point x="594" y="404"/>
      <point x="516" y="404" type="curve" smooth="yes"/>
      <point x="340" y="404"/>
      <point x="260" y="519"/>
      <point x="260" y="659" type="curve" smooth="yes"/>
      <point x="260" y="789"/>
      <point x="362" y="856"/>
      <point x="428" y="856" type="curve" smooth="yes"/>
      <point x="596" y="856"/>
      <point x="684" y="740"/>
    </contour>
  </outline>
</glyph>
<glyph name="h" format="2">
  <advance width="1146"/>
  <unicode hex="0068"/>
  <anchor x="270" y="0" name="H"/>
  <anchor x="585" y="-100" name="L"/>
  <anchor x="585" y="1620" name="U"/>
  <outline>
    <contour>
      <point x="668" y="0" type="line"/>
      <point x="1118" y="0" type="line"/>
      <point x="1118" y="51" type="line"/>
      <point x="1013" y="78"/>
      <point x="980" y="94"/>
      <point x="980" y="112" type="curve" smooth="yes"/>
      <point x="980" y="731" type="line" smooth="yes"/>
      <point x="980" y="891"/>
      <point x="874" y="960"/>
      <point x="759" y="960" type="curve" smooth="yes"/>
      <point x="655" y="960"/>
      <point x="490" y="868"/>
      <point x="365" y="710" type="curve"/>
      <point x="365" y="1514" type="line"/>
      <point x="326" y="1550" type="line"/>
      <point x="244" y="1511"/>
      <point x="176" y="1491"/>
      <point x="53" y="1470" type="curve"/>
      <point x="53" y="1422" type="line"/>
      <point x="182" y="1407"/>
      <point x="191" y="1401"/>
      <point x="191" y="1290" type="curve" smooth="yes"/>
      <point x="191" y="112" type="line" smooth="yes"/>
      <point x="191" y="90"/>
      <point x="141" y="74"/>
      <point x="53" y="51" type="curve"/>
      <point x="53" y="0" type="line"/>
      <point x="503" y="0" type="line"/>
      <point x="503" y="51" type="line"/>
      <point x="417" y="69"/>
      <point x="365" y="92"/>
      <point x="365" y="112" type="curve" smooth="yes"/>
      <point x="365" y="573" type="line"/>
      <point x="477" y="733"/>
      <point x="594" y="816"/>
      <point x="682" y="816" type="curve" smooth="yes"/>
      <point x="768" y="816"/>
      <point x="806" y="779"/>
      <point x="806" y="617" type="curve" smooth="yes"/>
      <point x="806" y="112" type="line" smooth="yes"/>
      <point x="806" y="94"/>
      <point x="764" y="76"/>
      <point x="668" y="51" type="curve"/>
    </contour>
  </outline>
</glyph>
<glyph name="k" format="2">
  <advance width="1032"/>
  <unicode hex="006B"/>
  <anchor x="260" y="0" name="H"/>
  <anchor x="533" y="-100" name="L"/>
  <anchor x="1032" y="900" name="R"/>
  <anchor x="533" y="1620" name="U"/>
  <outline>
    <contour>
      <point x="999" y="879" type="curve"/>
      <point x="999" y="930" type="line"/>
      <point x="602" y="930" type="line"/>
      <point x="602" y="879" type="line"/>
      <point x="672" y="879"/>
      <point x="729" y="868"/>
      <point x="641" y="791" type="curve" smooth="yes"/>
      <point x="339" y="526" type="line"/>
      <point x="430" y="496" type="line"/>
      <point x="835" y="815" type="line" smooth="yes"/>
      <point x="891" y="860"/>
      <point x="940" y="873"/>
    </contour>
    <contour>
      <point x="33" y="0" type="line"/>
      <point x="455" y="0" type="line"/>
      <point x="455" y="51" type="line"/>
      <point x="356" y="82"/>
      <point x="345" y="92"/>
      <point x="345" y="112" type="curve" smooth="yes"/>
      <point x="345" y="1514" type="line"/>
      <point x="306" y="1550" type="line"/>
      <point x="233" y="1511"/>
      <point x="135" y="1489"/>
      <point x="33" y="1470" type="curve"/>
      <point x="33" y="1422" type="line"/>
      <point x="148" y="1409"/>
      <point x="171" y="1406"/>
      <point x="171" y="1288" type="curve" smooth="yes"/>
      <point x="171" y="112" type="line" smooth="yes"/>
      <point x="171" y="88"/>
      <point x="121" y="74"/>
      <point x="33" y="51" type="curve"/>
    </contour>
    <contour>
      <point x="1034" y="22" type="curve"/>
      <point x="1028" y="73" type="line"/>
      <point x="950" y="67"/>
      <point x="913" y="78"/>
      <point x="876" y="121" type="curve" smooth="yes"/>
      <point x="463" y="602" type="line"/>
      <point x="341" y="526" type="line"/>
      <point x="719" y="43" type="line" smooth="yes"/>
      <point x="750" y="4"/>
      <point x="780" y="-10"/>
      <point x="836" y="-10" type="curve" smooth="yes"/>
      <point x="864" y="-10"/>
      <point x="956" y="4"/>
    </contour>
  </outline>
</glyph>
<glyph name="l" format="2">
  <advance width="571"/>
  <unicode hex="006C"/>
  <anchor x="293" y="0" name="H"/>
  <anchor x="293" y="-100" name="L"/>
  <anchor x="551" y="900" name="R"/>
  <anchor x="293" y="1690" name="U"/>
  <outline>
    <contour>
      <point x="58" y="0" type="line"/>
      <point x="528" y="0" type="line"/>
      <point x="528" y="51" type="line"/>
      <point x="419" y="69"/>
      <point x="380" y="92"/>
      <point x="380" y="112" type="curve" smooth="yes"/>
      <point x="380" y="1514" type="line"/>
      <point x="342" y="1550" type="line"/>
      <point x="254" y="1507"/>
      <point x="174" y="1489"/>
      <point x="68" y="1470" type="curve"/>
      <point x="68" y="1422" type="line"/>
      <point x="180" y="1409"/>
      <point x="206" y="1405"/>
      <point x="206" y="1288" type="curve" smooth="yes"/>
      <point x="206" y="112" type="line" smooth="yes"/>
      <point x="206" y="90"/>
      <point x="173" y="71"/>
      <point x="58" y="51" type="curve"/>
    </contour>
  </outline>
</glyph>
<glyph name="n" format="2">
  <advance width="1146"/>
  <unicode hex="006E"/>
  <anchor x="893" y="0" name="H"/>
  <anchor x="585" y="-100" name="L"/>
  <anchor x="585" y="1050" name="U"/>
  <outline>
    <contour>
      <point x="668" y="0" type="line"/>
      <point x="1118" y="0" type="line"/>
      <point x="1118" y="51" type="line"/>
      <point x="1013" y="78"/>
      <point x="980" y="94"/>
      <point x="980" y="112" type="curve" smooth="yes"/>
      <point x="980" y="731" type="line" smooth="yes"/>
      <point x="980" y="891"/>
      <point x="874" y="960"/>
      <point x="759" y="960" type="curve" smooth="yes"/>
      <point x="655" y="960"/>
      <point x="488" y="868"/>
      <point x="361" y="702" type="curve"/>
      <point x="350" y="923" type="line"/>
      <point x="313" y="960" type="line"/>
      <point x="233" y="923"/>
      <point x="153" y="896"/>
      <point x="53" y="882" type="curve"/>
      <point x="53" y="834" type="line"/>
      <point x="187" y="819"/>
      <point x="191" y="809"/>
      <point x="191" y="705" type="curve" smooth="yes"/>
      <point x="191" y="112" type="line" smooth="yes"/>
      <point x="191" y="90"/>
      <point x="141" y="74"/>
      <point x="53" y="51" type="curve"/>
      <point x="53" y="0" type="line"/>
      <point x="503" y="0" type="line"/>
      <point x="503" y="51" type="line"/>
      <point x="417" y="69"/>
      <point x="365" y="92"/>
      <point x="365" y="112" type="curve" smooth="yes"/>
      <point x="365" y="573" type="line"/>
      <point x="494" y="754"/>
      <point x="607" y="816"/>
      <point x="684" y="816" type="curve" smooth="yes"/>
      <point x="774" y="816"/>
      <point x="806" y="779"/>
      <point x="806" y="621" type="curve" smooth="yes"/>
      <point x="806" y="112" type="line" smooth="yes"/>
      <point x="806" y="94"/>
      <point x="764" y="76"/>
      <point x="668" y="51" type="curve"/>
    </contour>
  </outline>
</glyph>
<glyph name="o" format="2">
  <advance width="979"/>
  <unicode hex="006F"/>
  <outline>
    <contour>
      <point x="908" y="458" type="curve" smooth="yes"/>
      <point x="908" y="714"/>
      <point x="750" y="908"/>
      <point x="509" y="908" type="curve" smooth="yes"/>
      <point x="264" y="908"/>
      <point x="71" y="668"/>
      <point x="71" y="419" type="curve" smooth="yes"/>
      <point x="71" y="164"/>
      <point x="229" y="-28"/>
      <point x="472" y="-28" type="curve" smooth="yes"/>
      <point x="706" y="-28"/>
      <point x="908" y="208"/>
    </contour>
    <contour>
      <point x="740" y="426" type="curve" smooth="yes"/>
      <point x="740" y="211"/>
      <point x="668" y="79"/>
      <point x="498" y="79" type="curve" smooth="yes"/>
      <point x="383" y="79"/>
      <point x="240" y="252"/>
      <point x="240" y="450" type="curve" smooth="yes"/>
      <point x="240" y="650"/>
      <point x="300" y="801"/>
      <point x="481" y="801" type="curve" smooth="yes"/>
      <point x="610" y="801"/>
      <point x="740" y="624"/>
    </contour>
  </outline>
</glyph>
<glyph name="q" format="2">
  <advance width="1073"/>
  <unicode hex="0071"/>
  <anchor x="395" y="-100" name="L"/>
  <anchor x="1093" y="900" name="R"/>
  <anchor x="565" y="1050" name="U"/>
  <outline>
    <contour>
      <point x="573" y="-480" type="line"/>
      <point x="1054" y="-480" type="line"/>
      <point x="1054" y="-429" type="line"/>
      <point x="952" y="-410"/>
      <point x="917" y="-388"/>
      <point x="917" y="-367" type="curve" smooth="yes"/>
      <point x="917" y="711" type="line" smooth="yes"/>
      <point x="917" y="832"/>
      <point x="948" y="928"/>
      <point x="948" y="928" type="curve"/>
      <point x="915" y="960" type="line"/>
      <point x="882" y="927"/>
      <point x="786" y="856"/>
      <point x="743" y="842" type="curve"/>
      <point x="743" y="-367" type="line" smooth="yes"/>
      <point x="743" y="-390"/>
      <point x="698" y="-410"/>
      <point x="573" y="-429" type="curve"/>
    </contour>
    <contour>
      <point x="817" y="248" type="curve"/>
      <point x="811" y="258"/>
      <point x="795" y="289"/>
      <point x="778" y="297" type="curve"/>
      <point x="684" y="207"/>
      <point x="596" y="116"/>
      <point x="497" y="116" type="curve" smooth="yes"/>
      <point x="387" y="116"/>
      <point x="250" y="256"/>
      <point x="250" y="483" type="curve" smooth="yes"/>
      <point x="250" y="727"/>
      <point x="379" y="844"/>
      <point x="522" y="844" type="curve" smooth="yes"/>
      <point x="617" y="844"/>
      <point x="709" y="793"/>
      <point x="750" y="709" type="curve"/>
      <point x="793" y="735"/>
      <point x="809" y="760"/>
      <point x="809" y="840" type="curve"/>
      <point x="705" y="944"/>
      <point x="631" y="960"/>
      <point x="551" y="960" type="curve" smooth="yes"/>
      <point x="492" y="960"/>
      <point x="406" y="932"/>
      <point x="330" y="889" type="curve" smooth="yes"/>
      <point x="236" y="834"/>
      <point x="76" y="678"/>
      <point x="76" y="444" type="curve" smooth="yes"/>
      <point x="76" y="147"/>
      <point x="264" y="-30"/>
      <point x="414" y="-30" type="curve" smooth="yes"/>
      <point x="578" y="-30"/>
      <point x="674" y="72"/>
    </contour>
  </outline>
</glyph>
<glyph name="s" format="2">
  <advance width="809"/>
  <unicode hex="0073"/>
  <anchor x="393" y="0" name="H"/>
  <anchor x="405" y="-100" name="L"/>
  <anchor x="405" y="1050" name="U"/>
  <outline>
    <contour>
      <point x="722" y="283" type="curve" smooth="yes"/>
      <point x="722" y="432"/>
      <point x="593" y="499"/>
      <point x="477" y="559" type="curve" smooth="yes"/>
      <point x="357" y="621"/>
      <point x="254" y="666"/>
      <point x="254" y="752" type="curve" smooth="yes"/>
      <point x="254" y="807"/>
      <point x="305" y="866"/>
      <point x="391" y="866" type="curve" smooth="yes"/>
      <point x="462" y="866"/>
      <point x="532" y="824"/>
      <point x="587" y="723" type="curve"/>
      <point x="634" y="715" type="line"/>
      <point x="655" y="742"/>
      <point x="702" y="868"/>
      <point x="686" y="883" type="curve" smooth="yes"/>
      <point x="631" y="930"/>
      <point x="505" y="960"/>
      <point x="413" y="960" type="curve" smooth="yes"/>
      <point x="254" y="960"/>
      <point x="100" y="864"/>
      <point x="100" y="698" type="curve" smooth="yes"/>
      <point x="100" y="571"/>
      <point x="211" y="503"/>
      <point x="322" y="445" type="curve" smooth="yes"/>
      <point x="444" y="381"/>
      <point x="568" y="328"/>
      <point x="568" y="221" type="curve" smooth="yes"/>
      <point x="568" y="132"/>
      <point x="505" y="76"/>
      <point x="410" y="76" type="curve" smooth="yes"/>
      <point x="278" y="76"/>
      <point x="174" y="166"/>
      <point x="162" y="286" type="curve"/>
      <point x="109" y="297" type="line"/>
      <point x="88" y="227"/>
      <point x="85" y="53"/>
      <point x="102" y="43" type="curve" smooth="yes"/>
      <point x="191" y="-7"/>
      <point x="295" y="-30"/>
      <point x="364" y="-30" type="curve" smooth="yes"/>
      <point x="452" y="-30"/>
      <point x="722" y="0"/>
    </contour>
  </outline>
</glyph>
<glyph name="t" format="2">
  <advance width="676"/>
  <unicode hex="0074"/>
  <outline>
    <contour>
      <point x="650" y="119" type="curve"/>
      <point x="639" y="137"/>
      <point x="630" y="155"/>
      <point x="619" y="173" type="curve"/>
      <point x="520" y="121"/>
      <point x="459" y="109"/>
      <point x="415" y="109" type="curve" smooth="yes"/>
      <point x="347" y="109"/>
      <point x="320" y="151"/>
      <point x="320" y="296" type="curve" smooth="yes"/>
      <point x="320" y="784" type="line"/>
      <point x="372" y="784" type="line" smooth="yes"/>
      <point x="464" y="784"/>
      <point x="525" y="766"/>
      <point x="556" y="751" type="curve"/>
      <point x="581" y="764"/>
      <point x="627" y="814"/>
      <point x="650" y="851" type="curve"/>
      <point x="640" y="860"/>
      <point x="631" y="869"/>
      <point x="621" y="880" type="curve"/>
      <point x="320" y="880" type="line"/>
      <point x="320" y="1185" type="line"/>
      <point x="309" y="1193"/>
      <point x="298" y="1202"/>
      <point x="289" y="1211" type="curve"/>
      <point x="156" y="1102" type="line"/>
      <point x="156" y="880" type="line"/>
      <point x="88" y="880" type="line"/>
      <point x="15" y="812" type="line"/>
      <point x="22" y="803"/>
      <point x="29" y="792"/>
      <point x="37" y="784" type="curve"/>
      <point x="156" y="784" type="line"/>
      <point x="156" y="213" type="line" smooth="yes"/>
      <point x="156" y="39"/>
      <point x="236" y="-28"/>
      <point x="328" y="-28" type="curve" smooth="yes"/>
      <point x="394" y="-28"/>
      <point x="516" y="21"/>
    </contour>
  </outline>
</glyph>
<glyph name="u" format="2">
  <advance width="1103"/>
  <unicode hex="0075"/>
  <anchor x="543" y="0" name="H"/>
  <anchor x="554" y="-100" name="L"/>
  <anchor x="865" y="0" name="O"/>
  <anchor x="1122" y="900" name="R"/>
  <anchor x="554" y="1050" name="U"/>
  <outline>
    <contour>
      <point x="1089" y="90" type="curve"/>
      <point x="1075" y="143" type="line"/>
      <point x="1007" y="114"/>
      <point x="973" y="109"/>
      <point x="958" y="120" type="curve" smooth="yes"/>
      <point x="941" y="133"/>
      <point x="935" y="180"/>
      <point x="935" y="262" type="curve" smooth="yes"/>
      <point x="935" y="919" type="line"/>
      <point x="903" y="960" type="line"/>
      <point x="823" y="935"/>
      <point x="729" y="908"/>
      <point x="623" y="896" type="curve"/>
      <point x="623" y="848" type="line"/>
      <point x="746" y="842"/>
      <point x="761" y="825"/>
      <point x="761" y="705" type="curve" smooth="yes"/>
      <point x="761" y="262" type="line"/>
      <point x="646" y="145"/>
      <point x="561" y="104"/>
      <point x="483" y="104" type="curve" smooth="yes"/>
      <point x="393" y="104"/>
      <point x="340" y="155"/>
      <point x="340" y="336" type="curve" smooth="yes"/>
      <point x="340" y="919" type="line"/>
      <point x="310" y="960" type="line"/>
      <point x="216" y="925"/>
      <point x="145" y="908"/>
      <point x="39" y="896" type="curve"/>
      <point x="39" y="848" type="line"/>
      <point x="161" y="836"/>
      <point x="166" y="832"/>
      <point x="166" y="705" type="curve" smooth="yes"/>
      <point x="166" y="279" type="line" smooth="yes"/>
      <point x="166" y="29"/>
      <point x="284" y="-30"/>
      <point x="408" y="-30" type="curve" smooth="yes"/>
      <point x="493" y="-30"/>
      <point x="595" y="-2"/>
      <point x="761" y="158" type="curve"/>
      <point x="771" y="21"/>
      <point x="805" y="-30"/>
      <point x="852" y="-30" type="curve" smooth="yes"/>
      <point x="885" y="-30"/>
      <point x="991" y="26"/>
    </contour>
  </outline>
</glyph>
<glyph name="v" format="2">
  <advance width="1018"/>
  <unicode hex="0076"/>
  <anchor x="502" y="0" name="H"/>
  <anchor x="520" y="-100" name="L"/>
  <anchor x="463" y="0" name="O"/>
  <anchor x="540" y="1050" name="U"/>
  <outline>
    <contour>
      <point x="999" y="879" type="curve"/>
      <point x="999" y="930" type="line"/>
      <point x="676" y="930" type="line"/>
      <point x="676" y="879" type="line"/>
      <point x="772" y="864"/>
      <point x="789" y="851"/>
      <point x="774" y="811" type="curve" smooth="yes"/>
      <point x="551" y="207" type="line"/>
      <point x="313" y="811" type="line" smooth="yes"/>
      <point x="296" y="854"/>
      <point x="319" y="866"/>
      <point x="422" y="879" type="curve"/>
      <point x="422" y="930" type="line"/>
      <point x="18" y="930" type="line"/>
      <point x="18" y="879" type="line"/>
      <point x="84" y="864"/>
      <point x="113" y="846"/>
      <point x="127" y="811" type="curve" smooth="yes"/>
      <point x="463" y="-30" type="line"/>
      <point x="506" y="-20"/>
      <point x="586" y="5"/>
      <point x="608" y="65" type="curve" smooth="yes"/>
      <point x="891" y="811" type="line" smooth="yes"/>
      <point x="905" y="850"/>
      <point x="919" y="860"/>
    </contour>
  </outline>
</glyph>
<glyph name="w" format="2">
  <advance width="1452"/>
  <unicode hex="0077"/>
  <anchor x="733" y="-100" name="L"/>
  <anchor x="753" y="1050" name="U"/>
  <outline>
    <contour>
      <point x="1433" y="879" type="curve"/>
      <point x="1433" y="930" type="line"/>
      <point x="1108" y="930" type="line"/>
      <point x="1108" y="879" type="line"/>
      <point x="1200" y="864"/>
      <point x="1225" y="848"/>
      <point x="1217" y="817" type="curve" smooth="yes"/>
      <point x="1052" y="225" type="line"/>
      <point x="794" y="930" type="line"/>
      <point x="778" y="930"/>
      <point x="729" y="930"/>
      <point x="729" y="930" type="curve"/>
      <point x="711" y="676" type="line"/>
      <point x="973" y="-30" type="line"/>
      <point x="1007" y="-22"/>
      <point x="1095" y="0"/>
      <point x="1112" y="59" type="curve" smooth="yes"/>
      <point x="1333" y="817" type="line" smooth="yes"/>
      <point x="1341" y="848"/>
      <point x="1353" y="860"/>
    </contour>
    <contour>
      <point x="526" y="59" type="curve" smooth="yes"/>
      <point x="799" y="809" type="line"/>
      <point x="782" y="930" type="line"/>
      <point x="782" y="930"/>
      <point x="741" y="930"/>
      <point x="723" y="930" type="curve"/>
      <point x="479" y="225" type="line"/>
      <point x="301" y="817" type="line" smooth="yes"/>
      <point x="292" y="842"/>
      <point x="296" y="866"/>
      <point x="422" y="879" type="curve"/>
      <point x="422" y="930" type="line"/>
      <point x="18" y="930" type="line"/>
      <point x="18" y="879" type="line"/>
      <point x="84" y="864"/>
      <point x="121" y="842"/>
      <point x="127" y="817" type="curve"/>
      <point x="391" y="-30" type="line"/>
      <point x="426" y="-22"/>
      <point x="506" y="-2"/>
    </contour>
  </outline>
</glyph>
<glyph name="x" format="2">
  <advance width="1040"/>
  <unicode hex="0078"/>
  <anchor x="807" y="0" name="H"/>
  <anchor x="522" y="-100" name="L"/>
  <anchor x="522" y="1050" name="U"/>
  <outline>
    <contour>
      <point x="1003" y="879" type="curve"/>
      <point x="1003" y="930" type="line"/>
      <point x="622" y="930" type="line"/>
      <point x="622" y="879" type="line"/>
      <point x="704" y="871"/>
      <point x="736" y="857"/>
      <point x="690" y="792" type="curve" smooth="yes"/>
      <point x="498" y="523" type="line"/>
      <point x="561" y="446" type="line"/>
      <point x="811" y="790" type="line" smooth="yes"/>
      <point x="847" y="839"/>
      <point x="895" y="871"/>
    </contour>
    <contour>
      <point x="600" y="0" type="line"/>
      <point x="1026" y="0" type="line"/>
      <point x="1026" y="51" type="line"/>
      <point x="938" y="63"/>
      <point x="897" y="104"/>
      <point x="868" y="144" type="curve"/>
      <point x="397" y="792" type="line" smooth="yes"/>
      <point x="351" y="855"/>
      <point x="387" y="871"/>
      <point x="469" y="879" type="curve"/>
      <point x="469" y="930" type="line"/>
      <point x="29" y="930" type="line"/>
      <point x="29" y="879" type="line"/>
      <point x="135" y="871"/>
      <point x="162" y="838"/>
      <point x="197" y="790" type="curve" smooth="yes"/>
      <point x="672" y="138" type="line" smooth="yes"/>
      <point x="725" y="66"/>
      <point x="666" y="57"/>
      <point x="600" y="51" type="curve"/>
    </contour>
    <contour>
      <point x="307" y="138" type="curve" smooth="yes"/>
      <point x="510" y="419" type="line"/>
      <point x="449" y="499" type="line"/>
      <point x="189" y="144" type="line" smooth="yes"/>
      <point x="159" y="103"/>
      <point x="123" y="67"/>
      <point x="18" y="51" type="curve"/>
      <point x="18" y="0" type="line"/>
      <point x="399" y="0" type="line"/>
      <point x="399" y="51" type="line"/>
      <point x="336" y="57"/>
      <point x="255" y="67"/>
    </contour>
  </outline>
</glyph>
<glyph name="braceleft" format="2">
  <advance width="609"/>
  <unicode hex="007B"/>
  <outline>
    <contour>
      <point x="550" y="1413" type="line"/>
      <point x="359" y="1327"/>
      <point x="264" y="1207"/>
      <point x="264" y="1054" type="curve" smooth="yes"/>
      <point x="264" y="1005"/>
      <point x="270" y="956"/>
      <point x="282" y="907" type="curve" smooth="yes"/>
      <point x="294" y="858"/>
      <point x="300" y="809"/>
      <point x="300" y="762" type="curve" smooth="yes"/>
      <point x="300" y="663"/>
      <point x="230" y="595"/>
      <point x="90" y="559" type="curve"/>
      <point x="105" y="512" type="line"/>
      <point x="124" y="515"/>
      <point x="143" y="516"/>
      <point x="162" y="516" type="curve" smooth="yes"/>
      <point x="254" y="516"/>
      <point x="300" y="468"/>
      <point x="300" y="372" type="curve" smooth="yes"/>
      <point x="300" y="323"/>
      <point x="294" y="271"/>
      <point x="282" y="215" type="curve" smooth="yes"/>
      <point x="270" y="160"/>
      <point x="264" y="109"/>
      <point x="264" y="62" type="curve" smooth="yes"/>
      <point x="264" y="-20"/>
      <point x="286" y="-87"/>
      <point x="329" y="-139" type="curve" smooth="yes"/>
      <point x="373" y="-191"/>
      <point x="445" y="-237"/>
      <point x="545" y="-277" type="curve"/>
      <point x="564" y="-224" type="line"/>
      <point x="503" y="-191"/>
      <point x="462" y="-155"/>
      <point x="441" y="-116" type="curve" smooth="yes"/>
      <point x="421" y="-79"/>
      <point x="411" y="-28"/>
      <point x="411" y="38" type="curve" smooth="yes"/>
      <point x="411" y="75"/>
      <point x="417" y="123"/>
      <point x="428" y="180" type="curve" smooth="yes"/>
      <point x="440" y="238"/>
      <point x="446" y="291"/>
      <point x="446" y="339" type="curve" smooth="yes"/>
      <point x="446" y="477"/>
      <point x="393" y="557"/>
      <point x="287" y="578" type="curve"/>
      <point x="386" y="621"/>
      <point x="446" y="713"/>
      <point x="446" y="813" type="curve" smooth="yes"/>
      <point x="446" y="860"/>
      <point x="440" y="908"/>
      <point x="428" y="959" type="curve" smooth="yes"/>
      <point x="417" y="1010"/>
      <point x="411" y="1059"/>
      <point x="411" y="1105" type="curve" smooth="yes"/>
      <point x="411" y="1214"/>
      <point x="465" y="1302"/>
      <point x="574" y="1371" type="curve"/>
    </contour>
  </outline>
</glyph>
<glyph name="braceright" format="2">
  <advance width="609"/>
  <unicode hex="007D"/>
  <outline>
    <contour>
      <point x="504" y="624" type="line"/>
      <point x="484" y="620"/>
      <point x="465" y="618"/>
      <point x="446" y="618" type="curve" smooth="yes"/>
      <point x="355" y="618"/>
      <point x="309" y="666"/>
      <point x="309" y="763" type="curve" smooth="yes"/>
      <point x="309" y="812"/>
      <point x="315" y="864"/>
      <point x="327" y="919" type="curve" smooth="yes"/>
      <point x="339" y="975"/>
      <point x="345" y="1026"/>
      <point x="345" y="1072" type="curve" smooth="yes"/>
      <point x="345" y="1156"/>
      <point x="323" y="1224"/>
      <point x="279" y="1275" type="curve"/>
      <point x="236" y="1327"/>
      <point x="164" y="1373"/>
      <point x="63" y="1413" type="curve"/>
      <point x="43" y="1359" type="line"/>
      <point x="104" y="1325"/>
      <point x="145" y="1289"/>
      <point x="166" y="1252" type="curve" smooth="yes"/>
      <point x="187" y="1215"/>
      <point x="198" y="1163"/>
      <point x="198" y="1096" type="curve" smooth="yes"/>
      <point x="198" y="1059"/>
      <point x="192" y="1012"/>
      <point x="180" y="954" type="curve" smooth="yes"/>
      <point x="168" y="897"/>
      <point x="162" y="844"/>
      <point x="162" y="796" type="curve" smooth="yes"/>
      <point x="162" y="657"/>
      <point x="215" y="578"/>
      <point x="322" y="558" type="curve"/>
      <point x="223" y="514"/>
      <point x="162" y="421"/>
      <point x="162" y="322" type="curve" smooth="yes"/>
      <point x="162" y="275"/>
      <point x="168" y="226"/>
      <point x="180" y="175" type="curve" smooth="yes"/>
      <point x="192" y="124"/>
      <point x="198" y="76"/>
      <point x="198" y="30" type="curve" smooth="yes"/>
      <point x="198" y="-78"/>
      <point x="144" y="-166"/>
      <point x="35" y="-235" type="curve"/>
      <point x="59" y="-277" type="line"/>
      <point x="250" y="-191"/>
      <point x="345" y="-71"/>
      <point x="345" y="82" type="curve" smooth="yes"/>
      <point x="345" y="130"/>
      <point x="339" y="178"/>
      <point x="327" y="227" type="curve" smooth="yes"/>
      <point x="315" y="276"/>
      <point x="309" y="325"/>
      <point x="309" y="372" type="curve" smooth="yes"/>
      <point x="309" y="471"/>
      <point x="379" y="539"/>
      <point x="518" y="576" type="curve"/>
    </contour>
  </outline>
</glyph>
<glyph name="asciitilde" format="2">
  <advance width="883"/>
  <unicode hex="007E"/>
  <outline>
    <contour>
      <point x="793" y="706" type="line"/>
      <point x="745" y="612"/>
      <point x="693" y="565"/>
      <point x="636" y="565" type="curve" smooth="yes"/>
      <point x="606" y="565"/>
      <point x="554" y="588"/>
      <point x="479" y="635" type="curve" smooth="yes"/>
      <point x="404" y="682"/>
      <point x="348" y="706"/>
      <point x="311" y="706" type="curve" smooth="yes"/>
      <point x="260" y="706"/>
      <point x="207" y="677"/>
      <point x="154" y="618" type="curve" smooth="yes"/>
      <point x="109" y="569"/>
      <point x="73" y="511"/>
      <point x="44" y="444" type="curve"/>
      <point x="90" y="420" type="line"/>
      <point x="138" y="515"/>
      <point x="190" y="562"/>
      <point x="245" y="562" type="curve" smooth="yes"/>
      <point x="279" y="562"/>
      <point x="334" y="538"/>
      <point x="409" y="491" type="curve" smooth="yes"/>
      <point x="485" y="444"/>
      <point x="539" y="421"/>
      <point x="572" y="421" type="curve" smooth="yes"/>
      <point x="623" y="421"/>
      <point x="676" y="450"/>
      <point x="730" y="509" type="curve" smooth="yes"/>
      <point x="774" y="558"/>
      <point x="810" y="616"/>
      <point x="839" y="684" type="curve"/>
    </contour>
  </outline>
</glyph>
<glyph name="exclamdown" format="2">
  <advance width="545"/>
  <unicode hex="00A1"/>
  <outline>
    <contour>
      <point x="389" y="797" type="curve" smooth="yes"/>
      <point x="389" y="870"/>
      <point x="353" y="909"/>
      <point x="286" y="909" type="curve" smooth="yes"/>
      <point x="204" y="909"/>
      <point x="144" y="843"/>
      <point x="144" y="753" type="curve" smooth="yes"/>
      <point x="144" y="678"/>
      <point x="182" y="640"/>
      <point x="249" y="640" type="curve" smooth="yes"/>
      <point x="324" y="640"/>
      <point x="389" y="708"/>
    </contour>
    <contour>
      <point x="370" y="-449" type="curve"/>
      <point x="353" y="-128"/>
      <point x="335" y="194"/>
      <point x="317" y="515" type="curve"/>
      <point x="291" y="533" type="line"/>
      <point x="258" y="523"/>
      <point x="238" y="515"/>
      <point x="213" y="496" type="curve"/>
      <point x="195" y="160"/>
      <point x="178" y="-175"/>
      <point x="161" y="-511" type="curve"/>
      <point x="175" y="-518"/>
      <point x="189" y="-526"/>
      <point x="203" y="-534" type="curve"/>
      <point x="248" y="-517"/>
      <point x="320" y="-480"/>
    </contour>
  </outline>
</glyph>
<glyph name="cent" format="2">
  <advance width="923"/>
  <unicode hex="00A2"/>
  <outline>
    <contour>
      <point x="545" y="-4" type="curve"/>
      <point x="545" y="1155" type="line"/>
      <point x="518" y="1178" type="line"/>
      <point x="480" y="1168"/>
      <point x="487" y="1166"/>
      <point x="453" y="1145" type="curve"/>
      <point x="453" y="-13" type="line"/>
      <point x="478" y="-39" type="line"/>
      <point x="508" y="-29"/>
      <point x="522" y="-24"/>
    </contour>
    <contour>
      <point x="832" y="333" type="curve"/>
      <point x="790" y="379" type="line"/>
      <point x="657" y="258"/>
      <point x="611" y="252"/>
      <point x="537" y="252" type="curve" smooth="yes"/>
      <point x="387" y="252"/>
      <point x="255" y="366"/>
      <point x="255" y="583" type="curve" smooth="yes"/>
      <point x="255" y="817"/>
      <point x="377" y="913"/>
      <point x="502" y="913" type="curve" smooth="yes"/>
      <point x="632" y="913"/>
      <point x="698" y="835"/>
      <point x="722" y="791" type="curve"/>
      <point x="762" y="780" type="line"/>
      <point x="784" y="812"/>
      <point x="827" y="917"/>
      <point x="821" y="945" type="curve"/>
      <point x="779" y="992"/>
      <point x="669" y="1021"/>
      <point x="587" y="1021" type="curve" smooth="yes"/>
      <point x="307" y="1021"/>
      <point x="96" y="823"/>
      <point x="96" y="554" type="curve" smooth="yes"/>
      <point x="96" y="273"/>
      <point x="290" y="122"/>
      <point x="470" y="122" type="curve" smooth="yes"/>
      <point x="591" y="122"/>
      <point x="669" y="141"/>
    </contour>
  </outline>
</glyph>
<glyph name="section" format="2">
  <advance width="924"/>
  <unicode hex="00A7"/>
  <outline>
    <contour>
      <point x="815" y="623" type="curve" smooth="yes"/>
      <point x="815" y="800"/>
      <point x="689" y="871"/>
      <point x="532" y="960" type="curve" smooth="yes"/>
      <point x="393" y="1039"/>
      <point x="316" y="1085"/>
      <point x="316" y="1173" type="curve" smooth="yes"/>
      <point x="316" y="1236"/>
      <point x="365" y="1273"/>
      <point x="445" y="1273" type="curve" smooth="yes"/>
      <point x="513" y="1273"/>
      <point x="579" y="1226"/>
      <point x="631" y="1131" type="curve"/>
      <point x="675" y="1123" type="line"/>
      <point x="692" y="1145"/>
      <point x="728" y="1237"/>
      <point x="728" y="1271" type="curve" smooth="yes"/>
      <point x="728" y="1276"/>
      <point x="727" y="1280"/>
      <point x="725" y="1282" type="curve" smooth="yes"/>
      <point x="671" y="1326"/>
      <point x="553" y="1362"/>
      <point x="467" y="1362" type="curve" smooth="yes"/>
      <point x="317" y="1362"/>
      <point x="171" y="1287"/>
      <point x="171" y="1130" type="curve" smooth="yes"/>
      <point x="171" y="1061"/>
      <point x="198" y="1005"/>
      <point x="243" y="957" type="curve"/>
      <point x="170" y="911"/>
      <point x="109" y="827"/>
      <point x="109" y="733" type="curve" smooth="yes"/>
      <point x="109" y="569"/>
      <point x="220" y="483"/>
      <point x="377" y="398" type="curve" smooth="yes"/>
      <point x="491" y="336"/>
      <point x="615" y="295"/>
      <point x="615" y="194" type="curve" smooth="yes"/>
      <point x="615" y="109"/>
      <point x="555" y="70"/>
      <point x="464" y="70" type="curve" smooth="yes"/>
      <point x="339" y="70"/>
      <point x="241" y="164"/>
      <point x="230" y="277" type="curve"/>
      <point x="180" y="287" type="line"/>
      <point x="169" y="249"/>
      <point x="163" y="177"/>
      <point x="163" y="122" type="curve" smooth="yes"/>
      <point x="163" y="82"/>
      <point x="166" y="51"/>
      <point x="173" y="48" type="curve"/>
      <point x="257" y="2"/>
      <point x="356" y="-28"/>
      <point x="421" y="-28" type="curve" smooth="yes"/>
      <point x="504" y="-28"/>
      <point x="759" y="-15"/>
      <point x="759" y="252" type="curve" smooth="yes"/>
      <point x="759" y="307"/>
      <point x="738" y="351"/>
      <point x="706" y="386" type="curve"/>
      <point x="764" y="432"/>
      <point x="815" y="513"/>
    </contour>
    <contour>
      <point x="520" y="507" type="curve"/>
      <point x="335" y="612"/>
      <point x="252" y="665"/>
      <point x="252" y="779" type="curve" smooth="yes"/>
      <point x="252" y="817"/>
      <point x="273" y="874"/>
      <point x="311" y="898" type="curve"/>
      <point x="336" y="880"/>
      <point x="361" y="865"/>
      <point x="389" y="850" type="curve" smooth="yes"/>
      <point x="582" y="746"/>
      <point x="672" y="683"/>
      <point x="672" y="564" type="curve" smooth="yes"/>
      <point x="672" y="521"/>
      <point x="651" y="481"/>
      <point x="618" y="455" type="curve"/>
      <point x="585" y="474"/>
      <point x="551" y="491"/>
    </contour>
  </outline>
</glyph>
<glyph name="copyright" format="2">
  <advance width="1381"/>
  <unicode hex="00A9"/>
  <outline>
    <contour>
      <point x="690" y="-28" type="curve" smooth="yes"/>
      <point x="1036" y="-28"/>
      <point x="1289" y="255"/>
      <point x="1289" y="605" type="curve" smooth="yes"/>
      <point x="1289" y="955"/>
      <point x="1036" y="1237"/>
      <point x="690" y="1237" type="curve" smooth="yes"/>
      <point x="344" y="1237"/>
      <point x="92" y="955"/>
      <point x="92" y="605" type="curve" smooth="yes"/>
      <point x="92" y="255"/>
      <point x="344" y="-28"/>
    </contour>
    <contour>
      <point x="669" y="209" type="curve" smooth="yes"/>
      <point x="761" y="209"/>
      <point x="851" y="242"/>
      <point x="968" y="359" type="curve"/>
      <point x="939" y="393" type="line"/>
      <point x="841" y="320"/>
      <point x="794" y="306"/>
      <point x="738" y="306" type="curve" smooth="yes"/>
      <point x="633" y="306"/>
      <point x="478" y="410"/>
      <point x="478" y="604" type="curve" smooth="yes"/>
      <point x="478" y="841"/>
      <point x="609" y="918"/>
      <point x="695" y="918" type="curve" smooth="yes"/>
      <point x="776" y="918"/>
      <point x="826" y="868"/>
      <point x="865" y="820" type="curve"/>
      <point x="895" y="815" type="line"/>
      <point x="917" y="835"/>
      <point x="965" y="926"/>
      <point x="957" y="937" type="curve"/>
      <point x="912" y="972"/>
      <point x="835" y="999"/>
      <point x="744" y="999" type="curve" smooth="yes"/>
      <point x="520" y="999"/>
      <point x="338" y="828"/>
      <point x="338" y="579" type="curve" smooth="yes"/>
      <point x="338" y="348"/>
      <point x="504" y="209"/>
    </contour>
    <contour>
      <point x="690" y="61" type="curve" smooth="yes"/>
      <point x="395" y="61"/>
      <point x="181" y="305"/>
      <point x="181" y="605" type="curve" smooth="yes"/>
      <point x="181" y="903"/>
      <point x="395" y="1147"/>
      <point x="690" y="1147" type="curve" smooth="yes"/>
      <point x="988" y="1147"/>
      <point x="1200" y="903"/>
      <point x="1200" y="605" type="curve" smooth="yes"/>
      <point x="1200" y="305"/>
      <point x="988" y="61"/>
    </contour>
  </outline>
</glyph>
<glyph name="ordfeminine" format="2">
  <advance width="505"/>
  <unicode hex="00AA"/>
  <outline>
    <contour>
      <point x="495" y="734" type="curve"/>
      <point x="487" y="761" type="line"/>
      <point x="463" y="751"/>
      <point x="448" y="748"/>
      <point x="439" y="748" type="curve" smooth="yes"/>
      <point x="423" y="748"/>
      <point x="416" y="763"/>
      <point x="416" y="807" type="curve" smooth="yes"/>
      <point x="416" y="992" type="line" smooth="yes"/>
      <point x="416" y="1131"/>
      <point x="379" y="1174"/>
      <point x="288" y="1174" type="curve" smooth="yes"/>
      <point x="214" y="1174"/>
      <point x="76" y="1105"/>
      <point x="59" y="1024" type="curve"/>
      <point x="67" y="1004" type="line"/>
      <point x="68" y="1004"/>
      <point x="70" y="1003"/>
      <point x="72" y="1003" type="curve" smooth="yes"/>
      <point x="101" y="1003"/>
      <point x="174" y="1023"/>
      <point x="174" y="1034" type="curve"/>
      <point x="172" y="1041"/>
      <point x="171" y="1047"/>
      <point x="171" y="1054" type="curve" smooth="yes"/>
      <point x="171" y="1092"/>
      <point x="210" y="1117"/>
      <point x="242" y="1117" type="curve" smooth="yes"/>
      <point x="308" y="1117"/>
      <point x="320" y="1075"/>
      <point x="320" y="997" type="curve" smooth="yes"/>
      <point x="320" y="982" type="line"/>
      <point x="230" y="960" type="line" smooth="yes"/>
      <point x="101" y="928"/>
      <point x="44" y="860"/>
      <point x="44" y="783" type="curve" smooth="yes"/>
      <point x="44" y="704"/>
      <point x="106" y="676"/>
      <point x="156" y="676" type="curve" smooth="yes"/>
      <point x="200" y="676"/>
      <point x="261" y="697"/>
      <point x="323" y="755" type="curve"/>
      <point x="330" y="698"/>
      <point x="350" y="676"/>
      <point x="368" y="676" type="curve" smooth="yes"/>
      <point x="393" y="676"/>
      <point x="437" y="695"/>
    </contour>
    <contour>
      <point x="468" y="554" type="line"/>
      <point x="468" y="626" type="line"/>
      <point x="46" y="626" type="line"/>
      <point x="46" y="554" type="line"/>
    </contour>
    <contour>
      <point x="320" y="801" type="line"/>
      <point x="272" y="762"/>
      <point x="230" y="747"/>
      <point x="194" y="747" type="curve" smooth="yes"/>
      <point x="176" y="747"/>
      <point x="146" y="759"/>
      <point x="146" y="809" type="curve" smooth="yes"/>
      <point x="146" y="863"/>
      <point x="178" y="903"/>
      <point x="276" y="930" type="curve"/>
      <point x="320" y="940" type="line"/>
      <point x="320" y="811" type="line"/>
    </contour>
  </outline>
</glyph>
<glyph name="registered" format="2">
  <advance width="688"/>
  <unicode hex="00AE"/>
  <outline>
    <contour>
      <point x="658" y="1025" type="curve"/>
      <point x="658" y="1208"/>
      <point x="525" y="1357"/>
      <point x="343" y="1357" type="curve" smooth="yes"/>
      <point x="162" y="1357"/>
      <point x="31" y="1208"/>
      <point x="31" y="1025" type="curve" smooth="yes"/>
      <point x="31" y="843"/>
      <point x="162" y="694"/>
      <point x="343" y="694" type="curve" smooth="yes"/>
      <point x="525" y="694"/>
      <point x="658" y="843"/>
    </contour>
    <contour>
      <point x="599" y="1025" type="curve"/>
      <point x="599" y="875"/>
      <point x="492" y="754"/>
      <point x="343" y="754" type="curve" smooth="yes"/>
      <point x="196" y="754"/>
      <point x="89" y="875"/>
      <point x="89" y="1025" type="curve" smooth="yes"/>
      <point x="89" y="1175"/>
      <point x="196" y="1297"/>
      <point x="343" y="1297" type="curve" smooth="yes"/>
      <point x="492" y="1297"/>
      <point x="599" y="1175"/>
    </contour>
    <contour>
      <point x="473" y="1131" type="curve"/>
      <point x="473" y="1182"/>
      <point x="426" y="1222"/>
      <point x="328" y="1222" type="curve" smooth="yes"/>
      <point x="277" y="1222"/>
      <point x="235" y="1214"/>
      <point x="199" y="1205" type="curve"/>
      <point x="202" y="1177" type="line"/>
      <point x="242" y="1182"/>
      <point x="283" y="1188"/>
      <point x="318" y="1188" type="curve" smooth="yes"/>
      <point x="385" y="1188"/>
      <point x="411" y="1160"/>
      <point x="411" y="1123" type="curve" smooth="yes"/>
      <point x="411" y="1075"/>
      <point x="383" y="1047"/>
      <point x="321" y="1047" type="curve" smooth="yes"/>
      <point x="309" y="1047"/>
      <point x="301" y="1048"/>
      <point x="288" y="1051" type="curve"/>
      <point x="290" y="1016" type="line"/>
      <point x="302" y="1013"/>
      <point x="314" y="1011"/>
      <point x="324" y="1011" type="curve" smooth="yes"/>
      <point x="411" y="1011"/>
      <point x="473" y="1056"/>
    </contour>
    <contour>
      <point x="524" y="850" type="curve"/>
      <point x="522" y="870" type="line"/>
      <point x="495" y="868"/>
      <point x="483" y="871"/>
      <point x="474" y="885" type="curve" smooth="yes"/>
      <point x="366" y="1039" type="line"/>
      <point x="322" y="1022" type="line"/>
      <point x="422" y="850" type="line" smooth="yes"/>
      <point x="426" y="842"/>
      <point x="440" y="833"/>
      <point x="451" y="833" type="curve" smooth="yes"/>
      <point x="465" y="833"/>
      <point x="499" y="842"/>
    </contour>
    <contour>
      <point x="201" y="838" type="line"/>
      <point x="336" y="838" type="line"/>
      <point x="336" y="857" type="line"/>
      <point x="307" y="863"/>
      <point x="297" y="869"/>
      <point x="297" y="874" type="curve" smooth="yes"/>
      <point x="297" y="1201" type="line"/>
      <point x="241" y="1201" type="line"/>
      <point x="241" y="874" type="line" smooth="yes"/>
      <point x="241" y="868"/>
      <point x="227" y="863"/>
      <point x="201" y="857" type="curve"/>
    </contour>
  </outline>
</glyph>
<glyph name="degree" format="2">
  <advance width="693"/>
  <unicode hex="00B0"/>
  <outline>
    <contour>
      <point x="567" y="989" type="curve" smooth="yes"/>
      <point x="567" y="1089"/>
      <point x="484" y="1174"/>
      <point x="383" y="1174" type="curve" smooth="yes"/>
      <point x="261" y="1174"/>
      <point x="126" y="1057"/>
      <point x="126" y="895" type="curve" smooth="yes"/>
      <point x="126" y="795"/>
      <point x="203" y="711"/>
      <point x="310" y="711" type="curve" smooth="yes"/>
      <point x="429" y="711"/>
      <point x="567" y="830"/>
    </contour>
    <contour>
      <point x="453" y="941" type="curve" smooth="yes"/>
      <point x="453" y="857"/>
      <point x="394" y="810"/>
      <point x="336" y="810" type="curve" smooth="yes"/>
      <point x="276" y="810"/>
      <point x="240" y="876"/>
      <point x="240" y="944" type="curve" smooth="yes"/>
      <point x="240" y="1024"/>
      <point x="297" y="1075"/>
      <point x="358" y="1075" type="curve" smooth="yes"/>
      <point x="416" y="1075"/>
      <point x="453" y="1012"/>
    </contour>
  </outline>
</glyph>
<glyph name="plusminus" format="2">
  <advance width="795"/>
  <unicode hex="00B1"/>
  <outline>
    <contour>
      <point x="458" y="337" type="curve"/>
      <point x="458" y="592" type="line"/>
      <point x="711" y="592" type="line"/>
      <point x="720" y="613"/>
      <point x="737" y="653"/>
      <point x="743" y="679" type="curve"/>
      <point x="719" y="703" type="line"/>
      <point x="458" y="703" type="line"/>
      <point x="458" y="965" type="line"/>
      <point x="433" y="989" type="line"/>
      <point x="406" y="982"/>
      <point x="366" y="967"/>
      <point x="342" y="960" type="curve"/>
      <point x="342" y="703" type="line"/>
      <point x="88" y="703" type="line"/>
      <point x="77" y="679"/>
      <point x="61" y="642"/>
      <point x="55" y="615" type="curve"/>
      <point x="81" y="592" type="line"/>
      <point x="342" y="592" type="line"/>
      <point x="342" y="329" type="line"/>
      <point x="367" y="306" type="line"/>
      <point x="394" y="312"/>
      <point x="433" y="325"/>
    </contour>
    <contour>
      <point x="743" y="207" type="curve"/>
      <point x="719" y="232" type="line"/>
      <point x="88" y="232" type="line"/>
      <point x="77" y="207"/>
      <point x="61" y="170"/>
      <point x="55" y="144" type="curve"/>
      <point x="81" y="119" type="line"/>
      <point x="711" y="119" type="line"/>
      <point x="720" y="140"/>
      <point x="737" y="181"/>
    </contour>
  </outline>
</glyph>
<glyph name="twosuperior" format="2">
  <advance width="646"/>
  <unicode hex="00B2"/>
  <outline>
    <contour>
      <point x="576" y="760" type="line"/>
      <point x="561" y="763"/>
      <point x="546" y="766"/>
      <point x="530" y="768" type="curve"/>
      <point x="530" y="768"/>
      <point x="522" y="672"/>
      <point x="462" y="672" type="curve" smooth="yes"/>
      <point x="210" y="672" type="line"/>
      <point x="484" y="943"/>
      <point x="566" y="1029"/>
      <point x="566" y="1130" type="curve" smooth="yes"/>
      <point x="566" y="1237"/>
      <point x="482" y="1288"/>
      <point x="361" y="1288" type="curve" smooth="yes"/>
      <point x="209" y="1288"/>
      <point x="73" y="1185"/>
      <point x="73" y="1107" type="curve"/>
      <point x="91" y="1084" type="line"/>
      <point x="131" y="1088"/>
      <point x="181" y="1099"/>
      <point x="211" y="1113" type="curve"/>
      <point x="211" y="1115"/>
      <point x="211" y="1117"/>
      <point x="211" y="1119" type="curve" smooth="yes"/>
      <point x="211" y="1172"/>
      <point x="251" y="1222"/>
      <point x="315" y="1222" type="curve" smooth="yes"/>
      <point x="399" y="1222"/>
      <point x="430" y="1179"/>
      <point x="430" y="1111" type="curve" smooth="yes"/>
      <point x="430" y="1025"/>
      <point x="368" y="941"/>
      <point x="55" y="628" type="curve"/>
      <point x="74" y="587" type="line"/>
      <point x="566" y="587" type="line"/>
    </contour>
  </outline>
</glyph>
<glyph name="acute" format="2">
  <advance width="618"/>
  <unicode hex="00B4"/>
  <outline>
    <contour>
      <point x="598" y="1348" type="line"/>
      <point x="591" y="1362"/>
      <point x="582" y="1375"/>
      <point x="574" y="1389" type="curve"/>
      <point x="546" y="1396"/>
      <point x="448" y="1412"/>
      <point x="418" y="1414" type="curve"/>
      <point x="346" y="1282"/>
      <point x="273" y="1151"/>
      <point x="202" y="1019" type="curve"/>
      <point x="217" y="1007"/>
      <point x="239" y="992"/>
      <point x="262" y="989" type="curve"/>
    </contour>
  </outline>
</glyph>
<glyph name="paragraph" format="2">
  <advance width="1099"/>
  <unicode hex="00B6"/>
  <outline>
    <contour>
      <point x="1025" y="-237" type="line"/>
      <point x="1025" y="-188" type="line"/>
      <point x="933" y="-170"/>
      <point x="888" y="-146"/>
      <point x="888" y="-130" type="curve" smooth="yes"/>
      <point x="888" y="1085" type="line" smooth="yes"/>
      <point x="888" y="1103"/>
      <point x="940" y="1126"/>
      <point x="1025" y="1144" type="curve"/>
      <point x="1025" y="1192" type="line"/>
      <point x="958" y="1192" type="line"/>
      <point x="958" y="1192"/>
      <point x="598" y="1220"/>
      <point x="487" y="1220" type="curve" smooth="yes"/>
      <point x="223" y="1220"/>
      <point x="43" y="1069"/>
      <point x="43" y="854" type="curve" smooth="yes"/>
      <point x="43" y="618"/>
      <point x="240" y="496"/>
      <point x="483" y="496" type="curve" smooth="yes"/>
      <point x="517" y="496"/>
      <point x="543" y="498"/>
      <point x="566" y="501" type="curve"/>
      <point x="566" y="290"/>
      <point x="565" y="80"/>
      <point x="565" y="-130" type="curve" smooth="yes"/>
      <point x="565" y="-148"/>
      <point x="515" y="-170"/>
      <point x="429" y="-188" type="curve"/>
      <point x="429" y="-237" type="line"/>
    </contour>
    <contour>
      <point x="524" y="583" type="line" smooth="yes"/>
      <point x="312" y="583"/>
      <point x="223" y="750"/>
      <point x="223" y="887" type="curve" smooth="yes"/>
      <point x="223" y="1028"/>
      <point x="335" y="1133"/>
      <point x="478" y="1133" type="curve" smooth="yes"/>
      <point x="500" y="1133"/>
      <point x="531" y="1132"/>
      <point x="566" y="1129" type="curve"/>
      <point x="566" y="583" type="line"/>
    </contour>
    <contour>
      <point x="766" y="-130" type="line" smooth="yes"/>
      <point x="766" y="-144"/>
      <point x="742" y="-155"/>
      <point x="727" y="-159" type="curve"/>
      <point x="715" y="-155"/>
      <point x="690" y="-144"/>
      <point x="690" y="-130" type="curve" smooth="yes"/>
      <point x="690" y="1112" type="line"/>
      <point x="715" y="1107"/>
      <point x="740" y="1100"/>
      <point x="766" y="1093" type="curve"/>
    </contour>
  </outline>
</glyph>
<glyph name="cedilla" format="2">
  <advance width="444"/>
  <unicode hex="00B8"/>
  <outline>
    <contour>
      <point x="396" y="-217" type="curve" smooth="yes"/>
      <point x="396" y="-146"/>
      <point x="333" y="-110"/>
      <point x="259" y="-95" type="curve"/>
      <point x="272" y="-56"/>
      <point x="286" y="-18"/>
      <point x="299" y="20" type="curve"/>
      <point x="214" y="22" type="line"/>
      <point x="149" y="-180"/>
      <point x="141" y="-196"/>
      <point x="140" y="-196" type="curve" smooth="yes"/>
      <point x="140" y="-196"/>
      <point x="140" y="-196"/>
      <point x="140" y="-196" type="curve"/>
      <point x="213" y="-202"/>
      <point x="243" y="-217"/>
      <point x="243" y="-259" type="curve" smooth="yes"/>
      <point x="243" y="-300"/>
      <point x="194" y="-347"/>
      <point x="68" y="-368" type="curve"/>
      <point x="77" y="-386"/>
      <point x="85" y="-402"/>
      <point x="93" y="-420" type="curve"/>
      <point x="297" y="-392"/>
      <point x="396" y="-310"/>
    </contour>
  </outline>
</glyph>
<glyph name="ordmasculine" format="2">
  <advance width="546"/>
  <unicode hex="00BA"/>
  <outline>
    <contour>
      <point x="502" y="935" type="curve" smooth="yes"/>
      <point x="502" y="1072"/>
      <point x="412" y="1174"/>
      <point x="287" y="1174" type="curve" smooth="yes"/>
      <point x="150" y="1174"/>
      <point x="43" y="1046"/>
      <point x="43" y="915" type="curve" smooth="yes"/>
      <point x="43" y="777"/>
      <point x="128" y="676"/>
      <point x="257" y="676" type="curve" smooth="yes"/>
      <point x="379" y="676"/>
      <point x="502" y="805"/>
    </contour>
    <contour>
      <point x="491" y="554" type="line"/>
      <point x="491" y="626" type="line"/>
      <point x="54" y="626" type="line"/>
      <point x="54" y="554" type="line"/>
    </contour>
    <contour>
      <point x="403" y="918" type="curve" smooth="yes"/>
      <point x="403" y="811"/>
      <point x="356" y="732"/>
      <point x="286" y="732" type="curve" smooth="yes"/>
      <point x="212" y="732"/>
      <point x="141" y="823"/>
      <point x="141" y="930" type="curve" smooth="yes"/>
      <point x="141" y="1037"/>
      <point x="184" y="1117"/>
      <point x="259" y="1117" type="curve" smooth="yes"/>
      <point x="341" y="1117"/>
      <point x="403" y="1024"/>
    </contour>
  </outline>
</glyph>
<glyph name="onequarter" format="2">
  <advance width="1147"/>
  <unicode hex="00BC"/>
  <outline>
    <contour>
      <point x="304" y="3" type="curve"/>
      <point x="1046" y="1142" type="line"/>
      <point x="1022" y="1168" type="line"/>
      <point x="995" y="1163"/>
      <point x="954" y="1148"/>
      <point x="930" y="1138" type="curve"/>
      <point x="184" y="0" type="line"/>
      <point x="207" y="-28" type="line"/>
      <point x="241" y="-20"/>
      <point x="275" y="-11"/>
    </contour>
    <contour>
      <point x="1076" y="200" type="curve"/>
      <point x="1062" y="215" type="line"/>
      <point x="1002" y="215" type="line"/>
      <point x="1002" y="549" type="line"/>
      <point x="982" y="566" type="line"/>
      <point x="958" y="556"/>
      <point x="917" y="543"/>
      <point x="887" y="532" type="curve"/>
      <point x="627" y="170" type="line"/>
      <point x="646" y="154" type="line"/>
      <point x="904" y="154" type="line"/>
      <point x="904" y="61" type="line" smooth="yes"/>
      <point x="904" y="51"/>
      <point x="890" y="42"/>
      <point x="798" y="29" type="curve"/>
      <point x="798" y="0" type="line"/>
      <point x="1069" y="0" type="line"/>
      <point x="1069" y="29" type="line"/>
      <point x="1011" y="41"/>
      <point x="1002" y="47"/>
      <point x="1002" y="57" type="curve" smooth="yes"/>
      <point x="1002" y="154" type="line"/>
      <point x="1031" y="154" type="line"/>
      <point x="1047" y="165"/>
      <point x="1061" y="181"/>
    </contour>
    <contour>
      <point x="904" y="459" type="line"/>
      <point x="904" y="215" type="line"/>
      <point x="721" y="215" type="line"/>
    </contour>
    <contour>
      <point x="91" y="603" type="line"/>
      <point x="456" y="603" type="line"/>
      <point x="456" y="637" type="line"/>
      <point x="351" y="648"/>
      <point x="331" y="665"/>
      <point x="331" y="677" type="curve" smooth="yes"/>
      <point x="331" y="1151" type="line"/>
      <point x="310" y="1168" type="line"/>
      <point x="263" y="1147"/>
      <point x="133" y="1104"/>
      <point x="75" y="1091" type="curve"/>
      <point x="87" y="1058" type="line"/>
      <point x="179" y="1076"/>
      <point x="209" y="1072"/>
      <point x="218" y="1064" type="curve" smooth="yes"/>
      <point x="227" y="1057"/>
      <point x="227" y="1044"/>
      <point x="227" y="1020" type="curve" smooth="yes"/>
      <point x="227" y="677" type="line" smooth="yes"/>
      <point x="227" y="664"/>
      <point x="201" y="648"/>
      <point x="91" y="637" type="curve"/>
    </contour>
  </outline>
</glyph>
<glyph name="onehalf" format="2">
  <advance width="1147"/>
  <unicode hex="00BD"/>
  <outline>
    <contour>
      <point x="297" y="3" type="curve"/>
      <point x="1039" y="1142" type="line"/>
      <point x="1016" y="1168" type="line"/>
      <point x="989" y="1163"/>
      <point x="947" y="1148"/>
      <point x="923" y="1138" type="curve"/>
      <point x="177" y="0" type="line"/>
      <point x="201" y="-28" type="line"/>
      <point x="234" y="-20"/>
      <point x="268" y="-11"/>
    </contour>
    <contour>
      <point x="91" y="603" type="line"/>
      <point x="456" y="603" type="line"/>
      <point x="456" y="637" type="line"/>
      <point x="351" y="648"/>
      <point x="331" y="665"/>
      <point x="331" y="677" type="curve" smooth="yes"/>
      <point x="331" y="1151" type="line"/>
      <point x="310" y="1168" type="line"/>
      <point x="263" y="1147"/>
      <point x="133" y="1104"/>
      <point x="75" y="1091" type="curve"/>
      <point x="87" y="1058" type="line"/>
      <point x="179" y="1076"/>
      <point x="209" y="1072"/>
      <point x="218" y="1064" type="curve" smooth="yes"/>
      <point x="227" y="1057"/>
      <point x="227" y="1044"/>
      <point x="227" y="1020" type="curve" smooth="yes"/>
      <point x="227" y="677" type="line" smooth="yes"/>
      <point x="227" y="664"/>
      <point x="201" y="648"/>
      <point x="91" y="637" type="curve"/>
    </contour>
    <contour>
      <point x="1065" y="0" type="line"/>
      <point x="1073" y="139" type="line"/>
      <point x="1036" y="145" type="line"/>
      <point x="1036" y="145"/>
      <point x="1031" y="67"/>
      <point x="983" y="67" type="curve" smooth="yes"/>
      <point x="778" y="67" type="line"/>
      <point x="995" y="285"/>
      <point x="1065" y="355"/>
      <point x="1065" y="436" type="curve" smooth="yes"/>
      <point x="1065" y="520"/>
      <point x="999" y="561"/>
      <point x="902" y="561" type="curve" smooth="yes"/>
      <point x="782" y="561"/>
      <point x="672" y="480"/>
      <point x="672" y="416" type="curve"/>
      <point x="687" y="398" type="line"/>
      <point x="719" y="401"/>
      <point x="756" y="410"/>
      <point x="781" y="422" type="curve"/>
      <point x="778" y="466"/>
      <point x="812" y="510"/>
      <point x="866" y="510" type="curve" smooth="yes"/>
      <point x="933" y="510"/>
      <point x="959" y="474"/>
      <point x="959" y="419" type="curve" smooth="yes"/>
      <point x="959" y="351"/>
      <point x="907" y="284"/>
      <point x="658" y="33" type="curve"/>
      <point x="673" y="0" type="line"/>
    </contour>
  </outline>
</glyph>
<glyph name="threequarters" format="2">
  <advance width="1153"/>
  <unicode hex="00BE"/>
  <outline>
    <contour>
      <point x="1044" y="1142" type="line"/>
      <point x="1020" y="1168" type="line"/>
      <point x="993" y="1163"/>
      <point x="952" y="1148"/>
      <point x="928" y="1138" type="curve"/>
      <point x="176" y="0" type="line"/>
      <point x="200" y="-28" type="line"/>
      <point x="234" y="-20"/>
      <point x="268" y="-11"/>
      <point x="297" y="3" type="curve"/>
    </contour>
    <contour>
      <point x="495" y="779" type="curve" smooth="yes"/>
      <point x="495" y="852"/>
      <point x="434" y="914"/>
      <point x="352" y="922" type="curve"/>
      <point x="421" y="943"/>
      <point x="463" y="995"/>
      <point x="463" y="1041" type="curve" smooth="yes"/>
      <point x="463" y="1102"/>
      <point x="415" y="1166"/>
      <point x="300" y="1166" type="curve" smooth="yes"/>
      <point x="184" y="1166"/>
      <point x="87" y="1092"/>
      <point x="87" y="1042" type="curve"/>
      <point x="103" y="1024" type="line"/>
      <point x="136" y="1026"/>
      <point x="174" y="1034"/>
      <point x="200" y="1045" type="curve"/>
      <point x="199" y="1050"/>
      <point x="198" y="1055"/>
      <point x="198" y="1060" type="curve" smooth="yes"/>
      <point x="198" y="1093"/>
      <point x="226" y="1114"/>
      <point x="269" y="1114" type="curve" smooth="yes"/>
      <point x="331" y="1114"/>
      <point x="355" y="1074"/>
      <point x="355" y="1032" type="curve" smooth="yes"/>
      <point x="355" y="995"/>
      <point x="339" y="946"/>
      <point x="215" y="917" type="curve"/>
      <point x="221" y="879" type="line"/>
      <point x="244" y="883"/>
      <point x="240" y="883"/>
      <point x="260" y="883" type="curve" smooth="yes"/>
      <point x="316" y="883"/>
      <point x="385" y="853"/>
      <point x="385" y="764" type="curve" smooth="yes"/>
      <point x="385" y="687"/>
      <point x="330" y="648"/>
      <point x="252" y="648" type="curve" smooth="yes"/>
      <point x="199" y="648"/>
      <point x="152" y="660"/>
      <point x="88" y="701" type="curve"/>
      <point x="81" y="690"/>
      <point x="76" y="678"/>
      <point x="69" y="667" type="curve"/>
      <point x="133" y="615"/>
      <point x="205" y="592"/>
      <point x="267" y="592" type="curve" smooth="yes"/>
      <point x="407" y="592"/>
      <point x="495" y="676"/>
    </contour>
    <contour>
      <point x="1083" y="200" type="curve"/>
      <point x="1069" y="214" type="line"/>
      <point x="1008" y="214" type="line"/>
      <point x="1008" y="549" type="line"/>
      <point x="987" y="566" type="line"/>
      <point x="964" y="556"/>
      <point x="924" y="543"/>
      <point x="893" y="532" type="curve"/>
      <point x="630" y="170" type="line"/>
      <point x="636" y="165"/>
      <point x="642" y="159"/>
      <point x="649" y="154" type="curve"/>
      <point x="910" y="154" type="line"/>
      <point x="910" y="61" type="line" smooth="yes"/>
      <point x="910" y="51"/>
      <point x="896" y="42"/>
      <point x="804" y="29" type="curve"/>
      <point x="804" y="0" type="line"/>
      <point x="1075" y="0" type="line"/>
      <point x="1075" y="29" type="line"/>
      <point x="1017" y="41"/>
      <point x="1008" y="47"/>
      <point x="1008" y="57" type="curve" smooth="yes"/>
      <point x="1008" y="154" type="line"/>
      <point x="1037" y="154" type="line"/>
      <point x="1053" y="165"/>
      <point x="1068" y="180"/>
    </contour>
    <contour>
      <point x="910" y="214" type="line"/>
      <point x="724" y="214" type="line"/>
      <point x="910" y="459" type="line"/>
    </contour>
  </outline>
</glyph>
<glyph name="Agrave" format="2">
  <advance width="1181"/>
  <unicode hex="00C0"/>
  <anchor x="581" y="0" name="H"/>
  <anchor x="581" y="-97" name="L"/>
  <anchor x="930" y="0" name="O"/>
  <anchor x="581" y="1648" name="U"/>
  <outline>
    <contour>
      <point x="367" y="426" type="line"/>
      <point x="753" y="426" type="line"/>
      <point x="860" y="115" type="line" smooth="yes"/>
      <point x="874" y="72"/>
      <point x="838" y="55"/>
      <point x="739" y="49" type="curve"/>
      <point x="739" y="0" type="line"/>
      <point x="1161" y="0" type="line"/>
      <point x="1161" y="49" type="line"/>
      <point x="1079" y="59"/>
      <point x="1050" y="79"/>
      <point x="1038" y="115" type="curve" smooth="yes"/>
      <point x="637" y="1272" type="line"/>
      <point x="595" y="1254"/>
      <point x="536" y="1225"/>
      <point x="499" y="1187" type="curve"/>
      <point x="149" y="115" type="line" smooth="yes"/>
      <point x="137" y="76"/>
      <point x="86" y="65"/>
      <point x="0" y="49" type="curve"/>
      <point x="0" y="0" type="line"/>
      <point x="403" y="0" type="line"/>
      <point x="403" y="49" type="line"/>
      <point x="299" y="61"/>
      <point x="252" y="75"/>
      <point x="265" y="115" type="curve" smooth="yes"/>
    </contour>
    <contour>
      <point x="721" y="521" type="line"/>
      <point x="398" y="521" type="line"/>
      <point x="556" y="1005" type="line"/>
    </contour>
    <contour>
      <point x="753" y="1368" type="curve"/>
      <point x="389" y="1682" type="line"/>
      <point x="361" y="1667"/>
      <point x="276" y="1622"/>
      <point x="256" y="1603" type="curve"/>
      <point x="248" y="1555" type="line"/>
      <point x="705" y="1318" type="line"/>
      <point x="725" y="1328"/>
      <point x="736" y="1344"/>
    </contour>
  </outline>
</glyph>
<glyph name="Aacute" format="2">
  <advance width="1181"/>
  <unicode hex="00C1"/>
  <anchor x="581" y="0" name="H"/>
  <anchor x="581" y="-97" name="L"/>
  <anchor x="930" y="0" name="O"/>
  <anchor x="581" y="1648" name="U"/>
  <outline>
    <contour>
      <point x="367" y="426" type="line"/>
      <point x="753" y="426" type="line"/>
      <point x="860" y="115" type="line" smooth="yes"/>
      <point x="874" y="72"/>
      <point x="838" y="55"/>
      <point x="739" y="49" type="curve"/>
      <point x="739" y="0" type="line"/>
      <point x="1161" y="0" type="line"/>
      <point x="1161" y="49" type="line"/>
      <point x="1079" y="59"/>
      <point x="1050" y="79"/>
      <point x="1038" y="115" type="curve" smooth="yes"/>
      <point x="637" y="1272" type="line"/>
      <point x="595" y="1254"/>
      <point x="536" y="1225"/>
      <point x="499" y="1187" type="curve"/>
      <point x="149" y="115" type="line" smooth="yes"/>
      <point x="137" y="76"/>
      <point x="86" y="65"/>
      <point x="0" y="49" type="curve"/>
      <point x="0" y="0" type="line"/>
      <point x="403" y="0" type="line"/>
      <point x="403" y="49" type="line"/>
      <point x="299" y="61"/>
      <point x="252" y="75"/>
      <point x="265" y="115" type="curve" smooth="yes"/>
    </contour>
    <contour>
      <point x="721" y="521" type="line"/>
      <point x="398" y="521" type="line"/>
      <point x="556" y="1005" type="line"/>
    </contour>
    <contour>
      <point x="451" y="1319" type="curve"/>
      <point x="909" y="1552" type="line"/>
      <point x="901" y="1600" type="line"/>
      <point x="881" y="1620"/>
      <point x="795" y="1665"/>
      <point x="768" y="1680" type="curve"/>
      <point x="402" y="1368" type="line"/>
      <point x="418" y="1346"/>
      <point x="430" y="1328"/>
    </contour>
  </outline>
</glyph>
<glyph name="Acircumflex" format="2">
  <advance width="1181"/>
  <unicode hex="00C2"/>
  <anchor x="581" y="0" name="H"/>
  <anchor x="581" y="-97" name="L"/>
  <anchor x="930" y="0" name="O"/>
  <anchor x="581" y="1721" name="U"/>
  <outline>
    <contour>
      <point x="367" y="426" type="line"/>
      <point x="753" y="426" type="line"/>
      <point x="860" y="115" type="line" smooth="yes"/>
      <point x="874" y="72"/>
      <point x="838" y="55"/>
      <point x="739" y="49" type="curve"/>
      <point x="739" y="0" type="line"/>
      <point x="1161" y="0" type="line"/>
      <point x="1161" y="49" type="line"/>
      <point x="1079" y="59"/>
      <point x="1050" y="79"/>
      <point x="1038" y="115" type="curve" smooth="yes"/>
      <point x="637" y="1272" type="line"/>
      <point x="595" y="1254"/>
      <point x="536" y="1225"/>
      <point x="499" y="1187" type="curve"/>
      <point x="149" y="115" type="line" smooth="yes"/>
      <point x="137" y="76"/>
      <point x="86" y="65"/>
      <point x="0" y="49" type="curve"/>
      <point x="0" y="0" type="line"/>
      <point x="403" y="0" type="line"/>
      <point x="403" y="49" type="line"/>
      <point x="299" y="61"/>
      <point x="252" y="75"/>
      <point x="265" y="115" type="curve" smooth="yes"/>
    </contour>
    <contour>
      <point x="721" y="521" type="line"/>
      <point x="398" y="521" type="line"/>
      <point x="556" y="1005" type="line"/>
    </contour>
    <contour>
      <point x="888" y="1368" type="curve"/>
      <point x="636" y="1672" type="line"/>
      <point x="526" y="1672" type="line"/>
      <point x="270" y="1368" type="line"/>
      <point x="288" y="1344"/>
      <point x="298" y="1328"/>
      <point x="319" y="1319" type="curve"/>
      <point x="580" y="1510" type="line"/>
      <point x="843" y="1319" type="line"/>
      <point x="865" y="1328"/>
      <point x="873" y="1344"/>
    </contour>
  </outline>
</glyph>
<glyph name="Atilde" format="2">
  <advance width="1181"/>
  <unicode hex="00C3"/>
  <anchor x="581" y="0" name="H"/>
  <anchor x="581" y="-97" name="L"/>
  <anchor x="930" y="0" name="O"/>
  <anchor x="581" y="1633" name="U"/>
  <outline>
    <contour>
      <point x="367" y="426" type="line"/>
      <point x="753" y="426" type="line"/>
      <point x="860" y="115" type="line" smooth="yes"/>
      <point x="874" y="72"/>
      <point x="838" y="55"/>
      <point x="739" y="49" type="curve"/>
      <point x="739" y="0" type="line"/>
      <point x="1161" y="0" type="line"/>
      <point x="1161" y="49" type="line"/>
      <point x="1079" y="59"/>
      <point x="1050" y="79"/>
      <point x="1038" y="115" type="curve" smooth="yes"/>
      <point x="637" y="1272" type="line"/>
      <point x="595" y="1254"/>
      <point x="536" y="1225"/>
      <point x="499" y="1187" type="curve"/>
      <point x="149" y="115" type="line" smooth="yes"/>
      <point x="137" y="76"/>
      <point x="86" y="65"/>
      <point x="0" y="49" type="curve"/>
      <point x="0" y="0" type="line"/>
      <point x="403" y="0" type="line"/>
      <point x="403" y="49" type="line"/>
      <point x="299" y="61"/>
      <point x="252" y="75"/>
      <point x="265" y="115" type="curve" smooth="yes"/>
    </contour>
    <contour>
      <point x="721" y="521" type="line"/>
      <point x="398" y="521" type="line"/>
      <point x="556" y="1005" type="line"/>
    </contour>
    <contour>
      <point x="920" y="1577" type="curve"/>
      <point x="862" y="1601" type="line"/>
      <point x="819" y="1525"/>
      <point x="775" y="1484"/>
      <point x="724" y="1484" type="curve" smooth="yes"/>
      <point x="657" y="1484"/>
      <point x="578" y="1591"/>
      <point x="476" y="1591" type="curve" smooth="yes"/>
      <point x="371" y="1591"/>
      <point x="286" y="1463"/>
      <point x="242" y="1358" type="curve"/>
      <point x="298" y="1337" type="line"/>
      <point x="345" y="1408"/>
      <point x="382" y="1453"/>
      <point x="435" y="1453" type="curve" smooth="yes"/>
      <point x="515" y="1453"/>
      <point x="591" y="1346"/>
      <point x="685" y="1346" type="curve" smooth="yes"/>
      <point x="789" y="1346"/>
      <point x="875" y="1472"/>
    </contour>
  </outline>
</glyph>
<glyph name="Adieresis" format="2">
  <advance width="1181"/>
  <unicode hex="00C4"/>
  <anchor x="581" y="0" name="H"/>
  <anchor x="581" y="-97" name="L"/>
  <anchor x="930" y="0" name="O"/>
  <anchor x="581" y="1633" name="U"/>
  <outline>
    <contour>
      <point x="367" y="426" type="line"/>
      <point x="753" y="426" type="line"/>
      <point x="860" y="115" type="line" smooth="yes"/>
      <point x="874" y="72"/>
      <point x="838" y="55"/>
      <point x="739" y="49" type="curve"/>
      <point x="739" y="0" type="line"/>
      <point x="1161" y="0" type="line"/>
      <point x="1161" y="49" type="line"/>
      <point x="1079" y="59"/>
      <point x="1050" y="79"/>
      <point x="1038" y="115" type="curve" smooth="yes"/>
      <point x="637" y="1272" type="line"/>
      <point x="595" y="1254"/>
      <point x="536" y="1225"/>
      <point x="499" y="1187" type="curve"/>
      <point x="149" y="115" type="line" smooth="yes"/>
      <point x="137" y="76"/>
      <point x="86" y="65"/>
      <point x="0" y="49" type="curve"/>
      <point x="0" y="0" type="line"/>
      <point x="403" y="0" type="line"/>
      <point x="403" y="49" type="line"/>
      <point x="299" y="61"/>
      <point x="252" y="75"/>
      <point x="265" y="115" type="curve" smooth="yes"/>
    </contour>
    <contour>
      <point x="721" y="521" type="line"/>
      <point x="398" y="521" type="line"/>
      <point x="556" y="1005" type="line"/>
    </contour>
    <contour>
      <point x="492" y="1491" type="curve"/>
      <point x="492" y="1555"/>
      <point x="461" y="1589"/>
      <point x="402" y="1589" type="curve" smooth="yes"/>
      <point x="337" y="1589"/>
      <point x="282" y="1526"/>
      <point x="282" y="1447" type="curve" smooth="yes"/>
      <point x="282" y="1383"/>
      <point x="310" y="1348"/>
      <point x="371" y="1348" type="curve" smooth="yes"/>
      <point x="439" y="1348"/>
      <point x="492" y="1412"/>
    </contour>
    <contour>
      <point x="880" y="1491" type="curve"/>
      <point x="880" y="1555"/>
      <point x="849" y="1589"/>
      <point x="790" y="1589" type="curve" smooth="yes"/>
      <point x="725" y="1589"/>
      <point x="669" y="1526"/>
      <point x="669" y="1447" type="curve" smooth="yes"/>
      <point x="669" y="1383"/>
      <point x="698" y="1348"/>
      <point x="758" y="1348" type="curve" smooth="yes"/>
      <point x="827" y="1348"/>
      <point x="880" y="1412"/>
    </contour>
  </outline>
</glyph>
<glyph name="Aring" format="2">
  <advance width="1199"/>
  <unicode hex="00C5"/>
  <outline>
    <contour>
      <point x="767" y="427" type="line"/>
      <point x="802" y="322"/>
      <point x="839" y="218"/>
      <point x="875" y="113" type="curve" smooth="yes"/>
      <point x="877" y="107"/>
      <point x="878" y="101"/>
      <point x="878" y="96" type="curve" smooth="yes"/>
      <point x="878" y="65"/>
      <point x="839" y="52"/>
      <point x="752" y="47" type="curve"/>
      <point x="752" y="0" type="line"/>
      <point x="1178" y="0" type="line"/>
      <point x="1178" y="47" type="line"/>
      <point x="1093" y="57"/>
      <point x="1064" y="77"/>
      <point x="1052" y="113" type="curve" smooth="yes"/>
      <point x="916" y="500"/>
      <point x="778" y="886"/>
      <point x="643" y="1274" type="curve"/>
      <point x="603" y="1255"/>
      <point x="545" y="1226"/>
      <point x="509" y="1190" type="curve"/>
      <point x="152" y="113" type="line" smooth="yes"/>
      <point x="139" y="74"/>
      <point x="87" y="63"/>
      <point x="0" y="47" type="curve"/>
      <point x="0" y="0" type="line"/>
      <point x="408" y="0" type="line"/>
      <point x="408" y="47" type="line"/>
      <point x="313" y="58"/>
      <point x="266" y="70"/>
      <point x="266" y="101" type="curve" smooth="yes"/>
      <point x="266" y="104"/>
      <point x="266" y="109"/>
      <point x="268" y="113" type="curve"/>
      <point x="302" y="218"/>
      <point x="337" y="322"/>
      <point x="372" y="427" type="curve"/>
    </contour>
    <contour>
      <point x="403" y="520" type="line"/>
      <point x="565" y="1008" type="line"/>
      <point x="622" y="845"/>
      <point x="678" y="683"/>
      <point x="734" y="520" type="curve"/>
    </contour>
    <contour>
      <point x="774" y="1551" type="curve" smooth="yes"/>
      <point x="774" y="1636"/>
      <point x="707" y="1705"/>
      <point x="619" y="1705" type="curve" smooth="yes"/>
      <point x="514" y="1705"/>
      <point x="403" y="1607"/>
      <point x="403" y="1473" type="curve" smooth="yes"/>
      <point x="403" y="1387"/>
      <point x="468" y="1320"/>
      <point x="559" y="1320" type="curve" smooth="yes"/>
      <point x="661" y="1320"/>
      <point x="774" y="1418"/>
    </contour>
    <contour>
      <point x="677" y="1511" type="curve" smooth="yes"/>
      <point x="677" y="1441"/>
      <point x="631" y="1402"/>
      <point x="579" y="1402" type="curve" smooth="yes"/>
      <point x="532" y="1402"/>
      <point x="499" y="1454"/>
      <point x="499" y="1513" type="curve" smooth="yes"/>
      <point x="499" y="1578"/>
      <point x="545" y="1623"/>
      <point x="599" y="1623" type="curve" smooth="yes"/>
      <point x="645" y="1623"/>
      <point x="677" y="1573"/>
    </contour>
  </outline>
</glyph>
<glyph name="Egrave" format="2">
  <advance width="1000"/>
  <unicode hex="00C8"/>
  <outline>
    <contour>
      <point x="942" y="247" type="curve"/>
      <point x="926" y="254"/>
      <point x="910" y="260"/>
      <point x="894" y="266" type="curve"/>
      <point x="838" y="116"/>
      <point x="797" y="93"/>
      <point x="677" y="93" type="curve" smooth="yes"/>
      <point x="558" y="93" type="line" smooth="yes"/>
      <point x="387" y="93"/>
      <point x="359" y="117"/>
      <point x="359" y="155" type="curve" smooth="yes"/>
      <point x="359" y="625" type="line"/>
      <point x="496" y="625" type="line" smooth="yes"/>
      <point x="605" y="625"/>
      <point x="649" y="609"/>
      <point x="689" y="572" type="curve"/>
      <point x="717" y="592"/>
      <point x="757" y="646"/>
      <point x="778" y="682" type="curve"/>
      <point x="769" y="692"/>
      <point x="760" y="701"/>
      <point x="752" y="711" type="curve"/>
      <point x="359" y="711" type="line"/>
      <point x="359" y="1125" type="line"/>
      <point x="710" y="1125" type="line" smooth="yes"/>
      <point x="757" y="1125"/>
      <point x="783" y="1084"/>
      <point x="789" y="965" type="curve"/>
      <point x="838" y="965" type="line"/>
      <point x="854" y="1014"/>
      <point x="874" y="1127"/>
      <point x="878" y="1192" type="curve"/>
      <point x="845" y="1218" type="line"/>
      <point x="47" y="1218" type="line"/>
      <point x="47" y="1171" type="line"/>
      <point x="140" y="1152"/>
      <point x="186" y="1126"/>
      <point x="186" y="1111" type="curve" smooth="yes"/>
      <point x="186" y="106" type="line" smooth="yes"/>
      <point x="186" y="89"/>
      <point x="134" y="65"/>
      <point x="47" y="47" type="curve"/>
      <point x="47" y="0" type="line"/>
      <point x="902" y="0" type="line"/>
      <point x="913" y="38"/>
      <point x="932" y="136"/>
    </contour>
    <contour>
      <point x="669" y="1366" type="curve"/>
      <point x="297" y="1679" type="line"/>
      <point x="269" y="1663"/>
      <point x="193" y="1620"/>
      <point x="173" y="1600" type="curve"/>
      <point x="165" y="1553" type="line"/>
      <point x="318" y="1476"/>
      <point x="470" y="1397"/>
      <point x="623" y="1320" type="curve"/>
      <point x="644" y="1329"/>
      <point x="651" y="1342"/>
    </contour>
  </outline>
</glyph>
<glyph name="Igrave" format="2">
  <advance width="605"/>
  <unicode hex="00CC"/>
  <outline>
    <contour>
      <point x="519" y="0" type="line"/>
      <point x="519" y="47" type="line"/>
      <point x="425" y="65"/>
      <point x="379" y="91"/>
      <point x="379" y="106" type="curve" smooth="yes"/>
      <point x="379" y="1111" type="line" smooth="yes"/>
      <point x="379" y="1129"/>
      <point x="431" y="1152"/>
      <point x="519" y="1171" type="curve"/>
      <point x="519" y="1218" type="line"/>
      <point x="67" y="1218" type="line"/>
      <point x="67" y="1171" type="line"/>
      <point x="160" y="1152"/>
      <point x="206" y="1126"/>
      <point x="206" y="1111" type="curve" smooth="yes"/>
      <point x="206" y="106" type="line" smooth="yes"/>
      <point x="206" y="89"/>
      <point x="154" y="65"/>
      <point x="67" y="47" type="curve"/>
      <point x="67" y="0" type="line"/>
    </contour>
    <contour>
      <point x="467" y="1366" type="curve"/>
      <point x="95" y="1679" type="line"/>
      <point x="67" y="1663"/>
      <point x="-9" y="1620"/>
      <point x="-29" y="1600" type="curve"/>
      <point x="-37" y="1553" type="line"/>
      <point x="116" y="1476"/>
      <point x="268" y="1397"/>
      <point x="421" y="1320" type="curve"/>
      <point x="442" y="1329"/>
      <point x="449" y="1342"/>
    </contour>
  </outline>
</glyph>
<glyph name="Icircumflex" format="2">
  <advance width="597"/>
  <unicode hex="00CE"/>
  <anchor x="289" y="0" name="H"/>
  <anchor x="289" y="-97" name="L"/>
  <anchor x="339" y="0" name="O"/>
  <anchor x="560" y="1063" name="R"/>
  <anchor x="289" y="1721" name="U"/>
  <outline>
    <contour>
      <point x="65" y="0" type="line"/>
      <point x="514" y="0" type="line"/>
      <point x="514" y="49" type="line"/>
      <point x="422" y="67"/>
      <point x="377" y="93"/>
      <point x="377" y="108" type="curve" smooth="yes"/>
      <point x="377" y="1108" type="line" smooth="yes"/>
      <point x="377" y="1126"/>
      <point x="428" y="1150"/>
      <point x="514" y="1168" type="curve"/>
      <point x="514" y="1217" type="line"/>
      <point x="65" y="1217" type="line"/>
      <point x="65" y="1168" type="line"/>
      <point x="157" y="1150"/>
      <point x="202" y="1123"/>
      <point x="202" y="1108" type="curve" smooth="yes"/>
      <point x="202" y="108" type="line" smooth="yes"/>
      <point x="202" y="91"/>
      <point x="151" y="67"/>
      <point x="65" y="49" type="curve"/>
    </contour>
    <contour>
      <point x="597" y="1368" type="curve"/>
      <point x="345" y="1672" type="line"/>
      <point x="235" y="1672" type="line"/>
      <point x="-21" y="1368" type="line"/>
      <point x="-3" y="1344"/>
      <point x="7" y="1328"/>
      <point x="28" y="1319" type="curve"/>
      <point x="288" y="1510" type="line"/>
      <point x="552" y="1319" type="line"/>
      <point x="574" y="1328"/>
      <point x="582" y="1344"/>
    </contour>
  </outline>
</glyph>
<glyph name="Idieresis" format="2">
  <advance width="597"/>
  <unicode hex="00CF"/>
  <anchor x="289" y="0" name="H"/>
  <anchor x="289" y="-97" name="L"/>
  <anchor x="339" y="0" name="O"/>
  <anchor x="560" y="1063" name="R"/>
  <anchor x="289" y="1633" name="U"/>
  <outline>
    <contour>
      <point x="65" y="0" type="line"/>
      <point x="514" y="0" type="line"/>
      <point x="514" y="49" type="line"/>
      <point x="422" y="67"/>
      <point x="377" y="93"/>
      <point x="377" y="108" type="curve" smooth="yes"/>
      <point x="377" y="1108" type="line" smooth="yes"/>
      <point x="377" y="1126"/>
      <point x="428" y="1150"/>
      <point x="514" y="1168" type="curve"/>
      <point x="514" y="1217" type="line"/>
      <point x="65" y="1217" type="line"/>
      <point x="65" y="1168" type="line"/>
      <point x="157" y="1150"/>
      <point x="202" y="1123"/>
      <point x="202" y="1108" type="curve" smooth="yes"/>
      <point x="202" y="108" type="line" smooth="yes"/>
      <point x="202" y="91"/>
      <point x="151" y="67"/>
      <point x="65" y="49" type="curve"/>
    </contour>
    <contour>
      <point x="201" y="1491" type="curve"/>
      <point x="201" y="1555"/>
      <point x="170" y="1589"/>
      <point x="111" y="1589" type="curve" smooth="yes"/>
      <point x="46" y="1589"/>
      <point x="-10" y="1526"/>
      <point x="-10" y="1447" type="curve" smooth="yes"/>
      <point x="-10" y="1383"/>
      <point x="19" y="1348"/>
      <point x="79" y="1348" type="curve" smooth="yes"/>
      <point x="148" y="1348"/>
      <point x="201" y="1412"/>
    </contour>
    <contour>
      <point x="588" y="1491" type="curve"/>
      <point x="588" y="1555"/>
      <point x="558" y="1589"/>
      <point x="499" y="1589" type="curve" smooth="yes"/>
      <point x="434" y="1589"/>
      <point x="378" y="1526"/>
      <point x="378" y="1447" type="curve" smooth="yes"/>
      <point x="378" y="1383"/>
      <point x="407" y="1348"/>
      <point x="467" y="1348" type="curve" smooth="yes"/>
      <point x="536" y="1348"/>
      <point x="588" y="1412"/>
    </contour>
  </outline>
</glyph>
<glyph name="Eth" format="2">
  <advance width="1238"/>
  <unicode hex="00D0"/>
  <anchor x="588" y="-100" name="L"/>
  <anchor x="588" y="1370" name="U"/>
  <outline>
    <component base="D"/>
    <contour>
      <point x="626" y="615" type="line"/>
      <point x="654" y="690" type="line"/>
      <point x="629" y="713" type="line"/>
      <point x="52" y="713" type="line"/>
      <point x="44" y="692"/>
      <point x="33" y="660"/>
      <point x="27" y="640" type="curve"/>
      <point x="49" y="615" type="line"/>
    </contour>
  </outline>
</glyph>
<glyph name="Ntilde" format="2">
  <advance width="1298"/>
  <unicode hex="00D1"/>
  <outline>
    <contour>
      <point x="449" y="0" type="line"/>
      <point x="449" y="47" type="line"/>
      <point x="348" y="61"/>
      <point x="309" y="91"/>
      <point x="309" y="106" type="curve" smooth="yes"/>
      <point x="309" y="946" type="line"/>
      <point x="530" y="641"/>
      <point x="751" y="335"/>
      <point x="973" y="30" type="curve" smooth="yes"/>
      <point x="992" y="3"/>
      <point x="1036" y="-20"/>
      <point x="1112" y="-29" type="curve"/>
      <point x="1112" y="1111" type="line" smooth="yes"/>
      <point x="1112" y="1129"/>
      <point x="1158" y="1158"/>
      <point x="1251" y="1171" type="curve"/>
      <point x="1251" y="1218" type="line"/>
      <point x="850" y="1218" type="line"/>
      <point x="850" y="1171" type="line"/>
      <point x="954" y="1156"/>
      <point x="989" y="1126"/>
      <point x="989" y="1111" type="curve" smooth="yes"/>
      <point x="989" y="277" type="line"/>
      <point x="360" y="1143" type="line" smooth="yes"/>
      <point x="311" y="1210"/>
      <point x="304" y="1218"/>
      <point x="266" y="1218" type="curve" smooth="yes"/>
      <point x="47" y="1218" type="line"/>
      <point x="47" y="1171" type="line"/>
      <point x="97" y="1163"/>
      <point x="143" y="1143"/>
      <point x="186" y="1104" type="curve"/>
      <point x="186" y="106" type="line" smooth="yes"/>
      <point x="186" y="89"/>
      <point x="142" y="59"/>
      <point x="47" y="47" type="curve"/>
      <point x="47" y="0" type="line"/>
    </contour>
    <contour>
      <point x="991" y="1578" type="curve"/>
      <point x="972" y="1585"/>
      <point x="953" y="1594"/>
      <point x="934" y="1601" type="curve"/>
      <point x="890" y="1526"/>
      <point x="844" y="1484"/>
      <point x="793" y="1484" type="curve" smooth="yes"/>
      <point x="727" y="1484"/>
      <point x="647" y="1591"/>
      <point x="544" y="1591" type="curve" smooth="yes"/>
      <point x="440" y="1591"/>
      <point x="354" y="1468"/>
      <point x="308" y="1362" type="curve"/>
      <point x="326" y="1355"/>
      <point x="345" y="1348"/>
      <point x="363" y="1342" type="curve"/>
      <point x="411" y="1413"/>
      <point x="449" y="1458"/>
      <point x="502" y="1458" type="curve" smooth="yes"/>
      <point x="583" y="1458"/>
      <point x="660" y="1349"/>
      <point x="753" y="1349" type="curve" smooth="yes"/>
      <point x="858" y="1349"/>
      <point x="945" y="1473"/>
    </contour>
  </outline>
</glyph>
<glyph name="Ograve" format="2">
  <advance width="1203"/>
  <unicode hex="00D2"/>
  <outline>
    <contour>
      <point x="1118" y="626" type="curve" smooth="yes"/>
      <point x="1118" y="941"/>
      <point x="946" y="1247"/>
      <point x="620" y="1247" type="curve" smooth="yes"/>
      <point x="308" y="1247"/>
      <point x="66" y="943"/>
      <point x="66" y="592" type="curve" smooth="yes"/>
      <point x="66" y="267"/>
      <point x="249" y="-29"/>
      <point x="564" y="-29" type="curve" smooth="yes"/>
      <point x="863" y="-29"/>
      <point x="1118" y="276"/>
    </contour>
    <contour>
      <point x="949" y="608" type="curve" smooth="yes"/>
      <point x="949" y="267"/>
      <point x="801" y="90"/>
      <point x="595" y="90" type="curve" smooth="yes"/>
      <point x="400" y="90"/>
      <point x="235" y="331"/>
      <point x="235" y="620" type="curve" smooth="yes"/>
      <point x="235" y="935"/>
      <point x="366" y="1133"/>
      <point x="588" y="1133" type="curve" smooth="yes"/>
      <point x="804" y="1133"/>
      <point x="949" y="875"/>
    </contour>
    <contour>
      <point x="778" y="1366" type="curve"/>
      <point x="406" y="1679" type="line"/>
      <point x="378" y="1663"/>
      <point x="302" y="1620"/>
      <point x="282" y="1600" type="curve"/>
      <point x="274" y="1553" type="line"/>
      <point x="427" y="1476"/>
      <point x="579" y="1397"/>
      <point x="732" y="1320" type="curve"/>
      <point x="753" y="1329"/>
      <point x="760" y="1342"/>
    </contour>
  </outline>
</glyph>
<glyph name="Ugrave" format="2">
  <advance width="1286"/>
  <unicode hex="00D9"/>
  <anchor x="650" y="0" name="H"/>
  <anchor x="650" y="-97" name="L"/>
  <anchor x="731" y="0" name="O"/>
  <anchor x="1280" y="1063" name="R"/>
  <anchor x="650" y="1648" name="U"/>
  <outline>
    <contour>
      <point x="1227" y="1168" type="curve"/>
      <point x="1227" y="1217" type="line"/>
      <point x="818" y="1217" type="line"/>
      <point x="818" y="1168" type="line"/>
      <point x="910" y="1150"/>
      <point x="955" y="1123"/>
      <point x="955" y="1108" type="curve" smooth="yes"/>
      <point x="955" y="470" type="line" smooth="yes"/>
      <point x="955" y="279"/>
      <point x="864" y="90"/>
      <point x="683" y="90" type="curve" smooth="yes"/>
      <point x="465" y="90"/>
      <point x="358" y="234"/>
      <point x="358" y="481" type="curve" smooth="yes"/>
      <point x="358" y="1108" type="line" smooth="yes"/>
      <point x="358" y="1126"/>
      <point x="409" y="1150"/>
      <point x="495" y="1168" type="curve"/>
      <point x="495" y="1217" type="line"/>
      <point x="46" y="1217" type="line"/>
      <point x="46" y="1168" type="line"/>
      <point x="138" y="1150"/>
      <point x="182" y="1123"/>
      <point x="182" y="1108" type="curve" smooth="yes"/>
      <point x="182" y="429" type="line" smooth="yes"/>
      <point x="182" y="115"/>
      <point x="377" y="-29"/>
      <point x="640" y="-29" type="curve" smooth="yes"/>
      <point x="915" y="-29"/>
      <point x="1091" y="168"/>
      <point x="1091" y="506" type="curve" smooth="yes"/>
      <point x="1091" y="1108" type="line" smooth="yes"/>
      <point x="1091" y="1126"/>
      <point x="1141" y="1150"/>
    </contour>
    <contour>
      <point x="823" y="1368" type="curve"/>
      <point x="458" y="1682" type="line"/>
      <point x="431" y="1667"/>
      <point x="346" y="1622"/>
      <point x="326" y="1603" type="curve"/>
      <point x="318" y="1555" type="line"/>
      <point x="775" y="1318" type="line"/>
      <point x="795" y="1328"/>
      <point x="806" y="1344"/>
    </contour>
  </outline>
</glyph>
<glyph name="Uacute" format="2">
  <advance width="1286"/>
  <unicode hex="00DA"/>
  <anchor x="650" y="0" name="H"/>
  <anchor x="650" y="-97" name="L"/>
  <anchor x="731" y="0" name="O"/>
  <anchor x="1280" y="1063" name="R"/>
  <anchor x="650" y="1648" name="U"/>
  <outline>
    <contour>
      <point x="1227" y="1168" type="curve"/>
      <point x="1227" y="1217" type="line"/>
      <point x="818" y="1217" type="line"/>
      <point x="818" y="1168" type="line"/>
      <point x="910" y="1150"/>
      <point x="955" y="1123"/>
      <point x="955" y="1108" type="curve" smooth="yes"/>
      <point x="955" y="470" type="line" smooth="yes"/>
      <point x="955" y="279"/>
      <point x="864" y="90"/>
      <point x="683" y="90" type="curve" smooth="yes"/>
      <point x="465" y="90"/>
      <point x="358" y="234"/>
      <point x="358" y="481" type="curve" smooth="yes"/>
      <point x="358" y="1108" type="line" smooth="yes"/>
      <point x="358" y="1126"/>
      <point x="409" y="1150"/>
      <point x="495" y="1168" type="curve"/>
      <point x="495" y="1217" type="line"/>
      <point x="46" y="1217" type="line"/>
      <point x="46" y="1168" type="line"/>
      <point x="138" y="1150"/>
      <point x="182" y="1123"/>
      <point x="182" y="1108" type="curve" smooth="yes"/>
      <point x="182" y="429" type="line" smooth="yes"/>
      <point x="182" y="115"/>
      <point x="377" y="-29"/>
      <point x="640" y="-29" type="curve" smooth="yes"/>
      <point x="915" y="-29"/>
      <point x="1091" y="168"/>
      <point x="1091" y="506" type="curve" smooth="yes"/>
      <point x="1091" y="1108" type="line" smooth="yes"/>
      <point x="1091" y="1126"/>
      <point x="1141" y="1150"/>
    </contour>
    <contour>
      <point x="520" y="1319" type="curve"/>
      <point x="979" y="1552" type="line"/>
      <point x="970" y="1600" type="line"/>
      <point x="950" y="1620"/>
      <point x="864" y="1665"/>
      <point x="838" y="1680" type="curve"/>
      <point x="472" y="1368" type="line"/>
      <point x="488" y="1346"/>
      <point x="499" y="1328"/>
    </contour>
  </outline>
</glyph>
<glyph name="Ucircumflex" format="2">
  <advance width="1286"/>
  <unicode hex="00DB"/>
  <anchor x="650" y="0" name="H"/>
  <anchor x="650" y="-97" name="L"/>
  <anchor x="731" y="0" name="O"/>
  <anchor x="1280" y="1063" name="R"/>
  <anchor x="650" y="1721" name="U"/>
  <outline>
    <contour>
      <point x="1227" y="1168" type="curve"/>
      <point x="1227" y="1217" type="line"/>
      <point x="818" y="1217" type="line"/>
      <point x="818" y="1168" type="line"/>
      <point x="910" y="1150"/>
      <point x="955" y="1123"/>
      <point x="955" y="1108" type="curve" smooth="yes"/>
      <point x="955" y="470" type="line" smooth="yes"/>
      <point x="955" y="279"/>
      <point x="864" y="90"/>
      <point x="683" y="90" type="curve" smooth="yes"/>
      <point x="465" y="90"/>
      <point x="358" y="234"/>
      <point x="358" y="481" type="curve" smooth="yes"/>
      <point x="358" y="1108" type="line" smooth="yes"/>
      <point x="358" y="1126"/>
      <point x="409" y="1150"/>
      <point x="495" y="1168" type="curve"/>
      <point x="495" y="1217" type="line"/>
      <point x="46" y="1217" type="line"/>
      <point x="46" y="1168" type="line"/>
      <point x="138" y="1150"/>
      <point x="182" y="1123"/>
      <point x="182" y="1108" type="curve" smooth="yes"/>
      <point x="182" y="429" type="line" smooth="yes"/>
      <point x="182" y="115"/>
      <point x="377" y="-29"/>
      <point x="640" y="-29" type="curve" smooth="yes"/>
      <point x="915" y="-29"/>
      <point x="1091" y="168"/>
      <point x="1091" y="506" type="curve" smooth="yes"/>
      <point x="1091" y="1108" type="line" smooth="yes"/>
      <point x="1091" y="1126"/>
      <point x="1141" y="1150"/>
    </contour>
    <contour>
      <point x="958" y="1368" type="curve"/>
      <point x="706" y="1672" type="line"/>
      <point x="596" y="1672" type="line"/>
      <point x="340" y="1368" type="line"/>
      <point x="358" y="1344"/>
      <point x="368" y="1328"/>
      <point x="389" y="1319" type="curve"/>
      <point x="649" y="1510" type="line"/>
      <point x="913" y="1319" type="line"/>
      <point x="935" y="1328"/>
      <point x="943" y="1344"/>
    </contour>
  </outline>
</glyph>
<glyph name="Udieresis" format="2">
  <advance width="1286"/>
  <unicode hex="00DC"/>
  <anchor x="650" y="0" name="H"/>
  <anchor x="650" y="-97" name="L"/>
  <anchor x="731" y="0" name="O"/>
  <anchor x="1280" y="1063" name="R"/>
  <anchor x="650" y="1633" name="U"/>
  <outline>
    <contour>
      <point x="1227" y="1168" type="curve"/>
      <point x="1227" y="1217" type="line"/>
      <point x="818" y="1217" type="line"/>
      <point x="818" y="1168" type="line"/>
      <point x="910" y="1150"/>
      <point x="955" y="1123"/>
      <point x="955" y="1108" type="curve" smooth="yes"/>
      <point x="955" y="470" type="line" smooth="yes"/>
      <point x="955" y="279"/>
      <point x="864" y="90"/>
      <point x="683" y="90" type="curve" smooth="yes"/>
      <point x="465" y="90"/>
      <point x="358" y="234"/>
      <point x="358" y="481" type="curve" smooth="yes"/>
      <point x="358" y="1108" type="line" smooth="yes"/>
      <point x="358" y="1126"/>
      <point x="409" y="1150"/>
      <point x="495" y="1168" type="curve"/>
      <point x="495" y="1217" type="line"/>
      <point x="46" y="1217" type="line"/>
      <point x="46" y="1168" type="line"/>
      <point x="138" y="1150"/>
      <point x="182" y="1123"/>
      <point x="182" y="1108" type="curve" smooth="yes"/>
      <point x="182" y="429" type="line" smooth="yes"/>
      <point x="182" y="115"/>
      <point x="377" y="-29"/>
      <point x="640" y="-29" type="curve" smooth="yes"/>
      <point x="915" y="-29"/>
      <point x="1091" y="168"/>
      <point x="1091" y="506" type="curve" smooth="yes"/>
      <point x="1091" y="1108" type="line" smooth="yes"/>
      <point x="1091" y="1126"/>
      <point x="1141" y="1150"/>
    </contour>
    <contour>
      <point x="562" y="1491" type="curve"/>
      <point x="562" y="1555"/>
      <point x="531" y="1589"/>
      <point x="472" y="1589" type="curve" smooth="yes"/>
      <point x="407" y="1589"/>
      <point x="351" y="1526"/>
      <point x="351" y="1447" type="curve" smooth="yes"/>
      <point x="351" y="1383"/>
      <point x="380" y="1348"/>
      <point x="440" y="1348" type="curve" smooth="yes"/>
      <point x="509" y="1348"/>
      <point x="562" y="1412"/>
    </contour>
    <contour>
      <point x="949" y="1491" type="curve"/>
      <point x="949" y="1555"/>
      <point x="919" y="1589"/>
      <point x="860" y="1589" type="curve" smooth="yes"/>
      <point x="795" y="1589"/>
      <point x="739" y="1526"/>
      <point x="739" y="1447" type="curve" smooth="yes"/>
      <point x="739" y="1383"/>
      <point x="768" y="1348"/>
      <point x="828" y="1348" type="curve" smooth="yes"/>
      <point x="897" y="1348"/>
      <point x="949" y="1412"/>
    </contour>
  </outline>
</glyph>
<glyph name="Thorn" format="2">
  <advance width="1059"/>
  <unicode hex="00DE"/>
  <outline>
    <contour>
      <point x="528" y="0" type="line"/>
      <point x="528" y="47" type="line"/>
      <point x="393" y="69"/>
      <point x="359" y="91"/>
      <point x="359" y="106" type="curve" smooth="yes"/>
      <point x="359" y="899" type="line"/>
      <point x="389" y="901"/>
      <point x="421" y="902"/>
      <point x="451" y="902" type="curve" smooth="yes"/>
      <point x="649" y="902"/>
      <point x="805" y="813"/>
      <point x="805" y="605" type="curve" smooth="yes"/>
      <point x="805" y="423"/>
      <point x="657" y="333"/>
      <point x="539" y="333" type="curve" smooth="yes"/>
      <point x="493" y="333"/>
      <point x="446" y="337"/>
      <point x="392" y="361" type="curve"/>
      <point x="416" y="286" type="line"/>
      <point x="460" y="264"/>
      <point x="515" y="254"/>
      <point x="574" y="254" type="curve" smooth="yes"/>
      <point x="730" y="254"/>
      <point x="974" y="377"/>
      <point x="974" y="645" type="curve" smooth="yes"/>
      <point x="974" y="866"/>
      <point x="791" y="987"/>
      <point x="507" y="987" type="curve" smooth="yes"/>
      <point x="449" y="987"/>
      <point x="401" y="985"/>
      <point x="359" y="982" type="curve"/>
      <point x="359" y="1111" type="line" smooth="yes"/>
      <point x="359" y="1129"/>
      <point x="395" y="1149"/>
      <point x="528" y="1171" type="curve"/>
      <point x="528" y="1218" type="line"/>
      <point x="46" y="1218" type="line"/>
      <point x="46" y="1171" type="line"/>
      <point x="139" y="1152"/>
      <point x="186" y="1126"/>
      <point x="186" y="1111" type="curve" smooth="yes"/>
      <point x="186" y="106" type="line" smooth="yes"/>
      <point x="186" y="89"/>
      <point x="133" y="65"/>
      <point x="46" y="47" type="curve"/>
      <point x="46" y="0" type="line"/>
    </contour>
  </outline>
</glyph>
<glyph name="germandbls" format="2">
  <advance width="1126"/>
  <unicode hex="00DF"/>
  <outline>
    <contour>
      <point x="1048" y="268" type="curve" smooth="yes"/>
      <point x="1048" y="578"/>
      <point x="626" y="561"/>
      <point x="626" y="728" type="curve" smooth="yes"/>
      <point x="626" y="880"/>
      <point x="952" y="815"/>
      <point x="952" y="1126" type="curve" smooth="yes"/>
      <point x="952" y="1270"/>
      <point x="857" y="1466"/>
      <point x="633" y="1466" type="curve" smooth="yes"/>
      <point x="540" y="1466"/>
      <point x="447" y="1432"/>
      <point x="378" y="1379" type="curve" smooth="yes"/>
      <point x="280" y="1302"/>
      <point x="181" y="1208"/>
      <point x="181" y="905" type="curve" smooth="yes"/>
      <point x="181" y="103" type="line" smooth="yes"/>
      <point x="181" y="88"/>
      <point x="135" y="62"/>
      <point x="50" y="47" type="curve"/>
      <point x="50" y="0" type="line"/>
      <point x="344" y="0" type="line"/>
      <point x="344" y="957" type="line" smooth="yes"/>
      <point x="344" y="1270"/>
      <point x="430" y="1342"/>
      <point x="548" y="1342" type="curve" smooth="yes"/>
      <point x="714" y="1342"/>
      <point x="787" y="1196"/>
      <point x="787" y="1061" type="curve" smooth="yes"/>
      <point x="787" y="880"/>
      <point x="475" y="939"/>
      <point x="475" y="690" type="curve" smooth="yes"/>
      <point x="475" y="426"/>
      <point x="904" y="460"/>
      <point x="904" y="203" type="curve" smooth="yes"/>
      <point x="904" y="122"/>
      <point x="839" y="72"/>
      <point x="751" y="72" type="curve" smooth="yes"/>
      <point x="654" y="72"/>
      <point x="543" y="129"/>
      <point x="523" y="267" type="curve"/>
      <point x="476" y="280" type="line"/>
      <point x="464" y="264"/>
      <point x="457" y="182"/>
      <point x="457" y="119" type="curve" smooth="yes"/>
      <point x="457" y="82"/>
      <point x="460" y="51"/>
      <point x="465" y="44" type="curve" smooth="yes"/>
      <point x="484" y="13"/>
      <point x="638" y="-28"/>
      <point x="717" y="-28" type="curve" smooth="yes"/>
      <point x="949" y="-28"/>
      <point x="1048" y="116"/>
    </contour>
  </outline>
</glyph>
<glyph name="adieresis" format="2">
  <advance width="905"/>
  <unicode hex="00E4"/>
  <anchor x="413" y="0" name="H"/>
  <anchor x="441" y="-95" name="L"/>
  <anchor x="688" y="0" name="O"/>
  <anchor x="903" y="851" name="R"/>
  <anchor x="460" y="1368" name="U"/>
  <outline>
    <contour>
      <point x="892" y="85" type="curve"/>
      <point x="876" y="135" type="line"/>
      <point x="827" y="114"/>
      <point x="804" y="110"/>
      <point x="786" y="110" type="curve" smooth="yes"/>
      <point x="764" y="110"/>
      <point x="749" y="131"/>
      <point x="749" y="184" type="curve" smooth="yes"/>
      <point x="749" y="696" type="line" smooth="yes"/>
      <point x="749" y="826"/>
      <point x="671" y="908"/>
      <point x="525" y="908" type="curve" smooth="yes"/>
      <point x="353" y="908"/>
      <point x="156" y="793"/>
      <point x="98" y="660" type="curve"/>
      <point x="113" y="620" type="line"/>
      <point x="143" y="612"/>
      <point x="297" y="656"/>
      <point x="294" y="679" type="curve" smooth="yes"/>
      <point x="287" y="755"/>
      <point x="363" y="804"/>
      <point x="438" y="806" type="curve" smooth="yes"/>
      <point x="553" y="809"/>
      <point x="586" y="744"/>
      <point x="586" y="660" type="curve" smooth="yes"/>
      <point x="586" y="155" type="line" smooth="yes"/>
      <point x="586" y="43"/>
      <point x="618" y="-28"/>
      <point x="664" y="-28" type="curve" smooth="yes"/>
      <point x="701" y="-28"/>
      <point x="786" y="11"/>
    </contour>
    <contour>
      <point x="595" y="458" type="curve"/>
      <point x="595" y="534" type="line"/>
      <point x="296" y="490"/>
      <point x="218" y="441"/>
      <point x="157" y="379" type="curve" smooth="yes"/>
      <point x="111" y="333"/>
      <point x="73" y="273"/>
      <point x="73" y="180" type="curve" smooth="yes"/>
      <point x="73" y="33"/>
      <point x="183" y="-28"/>
      <point x="277" y="-28" type="curve" smooth="yes"/>
      <point x="361" y="-28"/>
      <point x="485" y="22"/>
      <point x="603" y="149" type="curve"/>
      <point x="595" y="229" type="line"/>
      <point x="497" y="141"/>
      <point x="416" y="106"/>
      <point x="347" y="106" type="curve" smooth="yes"/>
      <point x="314" y="106"/>
      <point x="249" y="128"/>
      <point x="249" y="224" type="curve" smooth="yes"/>
      <point x="249" y="281"/>
      <point x="272" y="322"/>
      <point x="304" y="356" type="curve" smooth="yes"/>
      <point x="343" y="396"/>
      <point x="395" y="426"/>
    </contour>
    <contour>
      <point x="373" y="1195" type="curve"/>
      <point x="373" y="1258"/>
      <point x="343" y="1291"/>
      <point x="285" y="1291" type="curve" smooth="yes"/>
      <point x="221" y="1291"/>
      <point x="167" y="1230"/>
      <point x="167" y="1152" type="curve" smooth="yes"/>
      <point x="167" y="1090"/>
      <point x="195" y="1055"/>
      <point x="255" y="1055" type="curve" smooth="yes"/>
      <point x="322" y="1055"/>
      <point x="373" y="1118"/>
    </contour>
    <contour>
      <point x="753" y="1195" type="curve"/>
      <point x="753" y="1258"/>
      <point x="723" y="1291"/>
      <point x="665" y="1291" type="curve" smooth="yes"/>
      <point x="602" y="1291"/>
      <point x="547" y="1230"/>
      <point x="547" y="1152" type="curve" smooth="yes"/>
      <point x="547" y="1090"/>
      <point x="575" y="1055"/>
      <point x="635" y="1055" type="curve" smooth="yes"/>
      <point x="702" y="1055"/>
      <point x="753" y="1118"/>
    </contour>
  </outline>
</glyph>
<glyph name="aring" format="2">
  <advance width="905"/>
  <unicode hex="00E5"/>
  <anchor x="413" y="0" name="H"/>
  <anchor x="441" y="-95" name="L"/>
  <anchor x="688" y="0" name="O"/>
  <anchor x="903" y="851" name="R"/>
  <anchor x="460" y="1410" name="U"/>
  <outline>
    <contour>
      <point x="892" y="85" type="curve"/>
      <point x="876" y="135" type="line"/>
      <point x="827" y="114"/>
      <point x="804" y="110"/>
      <point x="786" y="110" type="curve" smooth="yes"/>
      <point x="764" y="110"/>
      <point x="749" y="131"/>
      <point x="749" y="184" type="curve" smooth="yes"/>
      <point x="749" y="696" type="line" smooth="yes"/>
      <point x="749" y="826"/>
      <point x="671" y="908"/>
      <point x="525" y="908" type="curve" smooth="yes"/>
      <point x="353" y="908"/>
      <point x="156" y="793"/>
      <point x="98" y="660" type="curve"/>
      <point x="113" y="620" type="line"/>
      <point x="143" y="612"/>
      <point x="297" y="656"/>
      <point x="294" y="679" type="curve" smooth="yes"/>
      <point x="287" y="755"/>
      <point x="363" y="804"/>
      <point x="438" y="806" type="curve" smooth="yes"/>
      <point x="553" y="809"/>
      <point x="586" y="744"/>
      <point x="586" y="660" type="curve" smooth="yes"/>
      <point x="586" y="155" type="line" smooth="yes"/>
      <point x="586" y="43"/>
      <point x="618" y="-28"/>
      <point x="664" y="-28" type="curve" smooth="yes"/>
      <point x="701" y="-28"/>
      <point x="786" y="11"/>
    </contour>
    <contour>
      <point x="595" y="458" type="curve"/>
      <point x="595" y="534" type="line"/>
      <point x="296" y="490"/>
      <point x="218" y="441"/>
      <point x="157" y="379" type="curve" smooth="yes"/>
      <point x="111" y="333"/>
      <point x="73" y="273"/>
      <point x="73" y="180" type="curve" smooth="yes"/>
      <point x="73" y="33"/>
      <point x="183" y="-28"/>
      <point x="277" y="-28" type="curve" smooth="yes"/>
      <point x="361" y="-28"/>
      <point x="485" y="22"/>
      <point x="603" y="149" type="curve"/>
      <point x="595" y="229" type="line"/>
      <point x="497" y="141"/>
      <point x="416" y="106"/>
      <point x="347" y="106" type="curve" smooth="yes"/>
      <point x="314" y="106"/>
      <point x="249" y="128"/>
      <point x="249" y="224" type="curve" smooth="yes"/>
      <point x="249" y="281"/>
      <point x="272" y="322"/>
      <point x="304" y="356" type="curve" smooth="yes"/>
      <point x="343" y="396"/>
      <point x="395" y="426"/>
    </contour>
    <contour>
      <point x="641" y="1220" type="curve"/>
      <point x="640" y="1305"/>
      <point x="576" y="1374"/>
      <point x="490" y="1374" type="curve" smooth="yes"/>
      <point x="388" y="1374"/>
      <point x="281" y="1276"/>
      <point x="281" y="1145" type="curve" smooth="yes"/>
      <point x="281" y="1060"/>
      <point x="344" y="993"/>
      <point x="432" y="993" type="curve" smooth="yes"/>
      <point x="532" y="993"/>
      <point x="641" y="1091"/>
    </contour>
    <contour>
      <point x="545" y="1182" type="curve"/>
      <point x="545" y="1115"/>
      <point x="501" y="1077"/>
      <point x="452" y="1077" type="curve" smooth="yes"/>
      <point x="408" y="1077"/>
      <point x="377" y="1126"/>
      <point x="377" y="1183" type="curve" smooth="yes"/>
      <point x="377" y="1246"/>
      <point x="419" y="1290"/>
      <point x="470" y="1290" type="curve" smooth="yes"/>
      <point x="515" y="1290"/>
      <point x="545" y="1242"/>
    </contour>
  </outline>
</glyph>
<glyph name="ae" format="2">
  <advance width="1439"/>
  <unicode hex="00E6"/>
  <anchor x="750" y="0" name="H"/>
  <anchor x="750" y="-100" name="L"/>
  <anchor x="1039" y="0" name="O"/>
  <anchor x="1493" y="900" name="R"/>
  <anchor x="750" y="1050" name="U"/>
  <outline>
    <contour>
      <point x="293" y="-30" type="curve" smooth="yes"/>
      <point x="388" y="-30"/>
      <point x="547" y="39"/>
      <point x="664" y="179" type="curve"/>
      <point x="725" y="47"/>
      <point x="843" y="-30"/>
      <point x="960" y="-30" type="curve" smooth="yes"/>
      <point x="1095" y="-30"/>
      <point x="1195" y="8"/>
      <point x="1355" y="195" type="curve"/>
      <point x="1349" y="205"/>
      <point x="1331" y="233"/>
      <point x="1314" y="242" type="curve"/>
      <point x="1177" y="127"/>
      <point x="1114" y="112"/>
      <point x="1030" y="112" type="curve" smooth="yes"/>
      <point x="880" y="112"/>
      <point x="796" y="278"/>
      <point x="796" y="424" type="curve" smooth="yes"/>
      <point x="796" y="445"/>
      <point x="797" y="465"/>
      <point x="798" y="483" type="curve"/>
      <point x="1245" y="483" type="line"/>
      <point x="1288" y="500"/>
      <point x="1337" y="528"/>
      <point x="1363" y="555" type="curve"/>
      <point x="1363" y="743"/>
      <point x="1281" y="960"/>
      <point x="1039" y="960" type="curve" smooth="yes"/>
      <point x="960" y="960"/>
      <point x="851" y="927"/>
      <point x="764" y="827" type="curve"/>
      <point x="730" y="917"/>
      <point x="661" y="960"/>
      <point x="549" y="960" type="curve" smooth="yes"/>
      <point x="411" y="960"/>
      <point x="138" y="831"/>
      <point x="102" y="659" type="curve"/>
      <point x="118" y="619" type="line"/>
      <point x="151" y="610"/>
      <point x="318" y="655"/>
      <point x="311" y="680" type="curve"/>
      <point x="276" y="776"/>
      <point x="397" y="852"/>
      <point x="477" y="852" type="curve" smooth="yes"/>
      <point x="596" y="852"/>
      <point x="625" y="768"/>
      <point x="625" y="660" type="curve" smooth="yes"/>
      <point x="625" y="576" type="line"/>
      <point x="565" y="572"/>
      <point x="503" y="566"/>
      <point x="461" y="554" type="curve" smooth="yes"/>
      <point x="197" y="482"/>
      <point x="76" y="348"/>
      <point x="76" y="190" type="curve" smooth="yes"/>
      <point x="76" y="31"/>
      <point x="197" y="-30"/>
    </contour>
    <contour>
      <point x="368" y="112" type="curve" smooth="yes"/>
      <point x="331" y="112"/>
      <point x="262" y="137"/>
      <point x="262" y="237" type="curve" smooth="yes"/>
      <point x="262" y="352"/>
      <point x="363" y="431"/>
      <point x="512" y="464" type="curve" smooth="yes"/>
      <point x="544" y="472"/>
      <point x="585" y="476"/>
      <point x="625" y="479" type="curve"/>
      <point x="625" y="382" type="line" smooth="yes"/>
      <point x="625" y="325"/>
      <point x="629" y="293"/>
      <point x="639" y="249" type="curve"/>
      <point x="544" y="154"/>
      <point x="438" y="112"/>
    </contour>
    <contour>
      <point x="806" y="580" type="line"/>
      <point x="840" y="815"/>
      <point x="950" y="856"/>
      <point x="1010" y="856" type="curve" smooth="yes"/>
      <point x="1127" y="856"/>
      <point x="1181" y="747"/>
      <point x="1181" y="616" type="curve" smooth="yes"/>
      <point x="1181" y="588"/>
      <point x="1171" y="580"/>
      <point x="1143" y="580" type="curve" smooth="yes"/>
    </contour>
  </outline>
</glyph>
<glyph name="ccedilla" format="2">
  <advance width="856"/>
  <unicode hex="00E7"/>
  <outline>
    <contour>
      <point x="807" y="180" type="curve"/>
      <point x="767" y="224" type="line"/>
      <point x="628" y="109"/>
      <point x="585" y="104"/>
      <point x="514" y="104" type="curve" smooth="yes"/>
      <point x="367" y="104"/>
      <point x="235" y="238"/>
      <point x="235" y="449" type="curve" smooth="yes"/>
      <point x="235" y="688"/>
      <point x="353" y="800"/>
      <point x="479" y="800" type="curve" smooth="yes"/>
      <point x="603" y="800"/>
      <point x="667" y="729"/>
      <point x="693" y="664" type="curve"/>
      <point x="736" y="655" type="line"/>
      <point x="757" y="688"/>
      <point x="794" y="787"/>
      <point x="794" y="826" type="curve"/>
      <point x="794" y="828"/>
      <point x="794" y="831"/>
      <point x="794" y="833" type="curve"/>
      <point x="752" y="878"/>
      <point x="644" y="908"/>
      <point x="561" y="908" type="curve" smooth="yes"/>
      <point x="283" y="908"/>
      <point x="72" y="692"/>
      <point x="72" y="420" type="curve" smooth="yes"/>
      <point x="72" y="139"/>
      <point x="254" y="-28"/>
      <point x="443" y="-28" type="curve" smooth="yes"/>
      <point x="561" y="-28"/>
      <point x="642" y="-11"/>
    </contour>
    <contour>
      <point x="633" y="-217" type="curve" smooth="yes"/>
      <point x="633" y="-146"/>
      <point x="569" y="-110"/>
      <point x="495" y="-95" type="curve"/>
      <point x="508" y="-56"/>
      <point x="522" y="-18"/>
      <point x="535" y="20" type="curve"/>
      <point x="450" y="22" type="line"/>
      <point x="387" y="-175"/>
      <point x="377" y="-196"/>
      <point x="377" y="-196" type="curve"/>
      <point x="377" y="-196"/>
      <point x="377" y="-196"/>
      <point x="377" y="-196" type="curve"/>
      <point x="449" y="-202"/>
      <point x="479" y="-217"/>
      <point x="479" y="-259" type="curve" smooth="yes"/>
      <point x="479" y="-300"/>
      <point x="431" y="-347"/>
      <point x="304" y="-368" type="curve"/>
      <point x="329" y="-420" type="line"/>
      <point x="534" y="-392"/>
      <point x="633" y="-310"/>
    </contour>
  </outline>
</glyph>
<glyph name="eacute" format="2">
  <advance width="905"/>
  <unicode hex="00E9"/>
  <outline>
    <contour>
      <point x="833" y="525" type="curve"/>
      <point x="833" y="697"/>
      <point x="749" y="908"/>
      <point x="501" y="908" type="curve" smooth="yes"/>
      <point x="427" y="908"/>
      <point x="336" y="871"/>
      <point x="277" y="830" type="curve" smooth="yes"/>
      <point x="147" y="739"/>
      <point x="72" y="583"/>
      <point x="72" y="412" type="curve" smooth="yes"/>
      <point x="72" y="146"/>
      <point x="244" y="-28"/>
      <point x="443" y="-28" type="curve" smooth="yes"/>
      <point x="578" y="-28"/>
      <point x="657" y="2"/>
      <point x="827" y="184" type="curve"/>
      <point x="822" y="194"/>
      <point x="805" y="220"/>
      <point x="789" y="229" type="curve"/>
      <point x="647" y="116"/>
      <point x="586" y="104"/>
      <point x="507" y="104" type="curve" smooth="yes"/>
      <point x="340" y="104"/>
      <point x="240" y="265"/>
      <point x="237" y="458" type="curve"/>
      <point x="722" y="458" type="line"/>
      <point x="762" y="474"/>
      <point x="810" y="499"/>
    </contour>
    <contour>
      <point x="472" y="805" type="curve" smooth="yes"/>
      <point x="628" y="805"/>
      <point x="660" y="653"/>
      <point x="660" y="583" type="curve" smooth="yes"/>
      <point x="660" y="556"/>
      <point x="653" y="549"/>
      <point x="624" y="549" type="curve" smooth="yes"/>
      <point x="242" y="549" type="line"/>
      <point x="263" y="701"/>
      <point x="345" y="805"/>
    </contour>
    <contour>
      <point x="780" y="1348" type="line"/>
      <point x="756" y="1389" type="line"/>
      <point x="728" y="1397"/>
      <point x="629" y="1412"/>
      <point x="599" y="1414" type="curve"/>
      <point x="384" y="1019" type="line"/>
      <point x="398" y="1007"/>
      <point x="422" y="992"/>
      <point x="445" y="989" type="curve"/>
    </contour>
  </outline>
</glyph>
<glyph name="ecircumflex" format="2">
  <advance width="901"/>
  <unicode hex="00EA"/>
  <anchor x="477" y="0" name="H"/>
  <anchor x="477" y="-95" name="L"/>
  <anchor x="525" y="0" name="O"/>
  <anchor x="958" y="851" name="R"/>
  <anchor x="486" y="1423" name="U"/>
  <outline>
    <contour>
      <point x="828" y="525" type="curve"/>
      <point x="828" y="697"/>
      <point x="744" y="908"/>
      <point x="499" y="908" type="curve" smooth="yes"/>
      <point x="425" y="908"/>
      <point x="335" y="871"/>
      <point x="277" y="830" type="curve" smooth="yes"/>
      <point x="147" y="739"/>
      <point x="73" y="583"/>
      <point x="73" y="412" type="curve" smooth="yes"/>
      <point x="73" y="146"/>
      <point x="244" y="-28"/>
      <point x="441" y="-28" type="curve" smooth="yes"/>
      <point x="575" y="-28"/>
      <point x="654" y="2"/>
      <point x="823" y="184" type="curve"/>
      <point x="817" y="194"/>
      <point x="800" y="220"/>
      <point x="784" y="229" type="curve"/>
      <point x="643" y="116"/>
      <point x="583" y="104"/>
      <point x="504" y="104" type="curve" smooth="yes"/>
      <point x="337" y="104"/>
      <point x="238" y="272"/>
      <point x="238" y="468" type="curve" smooth="yes"/>
      <point x="238" y="664"/>
      <point x="324" y="805"/>
      <point x="470" y="805" type="curve" smooth="yes"/>
      <point x="624" y="805"/>
      <point x="656" y="653"/>
      <point x="656" y="583" type="curve" smooth="yes"/>
      <point x="656" y="556"/>
      <point x="649" y="549"/>
      <point x="620" y="549" type="curve" smooth="yes"/>
      <point x="174" y="549" type="line"/>
      <point x="173" y="458" type="line"/>
      <point x="718" y="458" type="line"/>
      <point x="758" y="474"/>
      <point x="806" y="499"/>
    </contour>
    <contour>
      <point x="787" y="1037" type="curve"/>
      <point x="540" y="1397" type="line"/>
      <point x="432" y="1397" type="line"/>
      <point x="181" y="1037" type="line"/>
      <point x="199" y="1013"/>
      <point x="208" y="998"/>
      <point x="229" y="989" type="curve"/>
      <point x="485" y="1231" type="line"/>
      <point x="743" y="989" type="line"/>
      <point x="765" y="998"/>
      <point x="772" y="1013"/>
    </contour>
  </outline>
</glyph>
<glyph name="eth" format="2">
  <advance width="1027"/>
  <unicode hex="00F0"/>
  <anchor x="510" y="-100" name="L"/>
  <anchor x="512" y="1620" name="U"/>
  <outline>
    <contour>
      <point x="947" y="596" type="curve" smooth="yes"/>
      <point x="947" y="807"/>
      <point x="873" y="1022"/>
      <point x="692" y="1220" type="curve"/>
      <point x="930" y="1321" type="line"/>
      <point x="924" y="1358" type="line"/>
      <point x="889" y="1370"/>
      <point x="883" y="1371"/>
      <point x="820" y="1380" type="curve"/>
      <point x="618" y="1293" type="line"/>
      <point x="561" y="1346"/>
      <point x="491" y="1399"/>
      <point x="417" y="1448" type="curve"/>
      <point x="198" y="1370" type="line"/>
      <point x="206" y="1321" type="line"/>
      <point x="319" y="1337"/>
      <point x="405" y="1293"/>
      <point x="478" y="1233" type="curve"/>
      <point x="222" y="1122" type="line"/>
      <point x="232" y="1083" type="line"/>
      <point x="278" y="1069"/>
      <point x="282" y="1070"/>
      <point x="332" y="1065" type="curve"/>
      <point x="554" y="1160" type="line"/>
      <point x="645" y="1066"/>
      <point x="705" y="966"/>
      <point x="740" y="840" type="curve"/>
      <point x="676" y="909"/>
      <point x="586" y="960"/>
      <point x="506" y="960" type="curve" smooth="yes"/>
      <point x="279" y="960"/>
      <point x="76" y="709"/>
      <point x="76" y="444" type="curve" smooth="yes"/>
      <point x="76" y="172"/>
      <point x="236" y="-30"/>
      <point x="502" y="-30" type="curve" smooth="yes"/>
      <point x="659" y="-30"/>
      <point x="947" y="133"/>
    </contour>
    <contour>
      <point x="773" y="593" type="curve"/>
      <point x="773" y="590"/>
      <point x="773" y="558"/>
      <point x="773" y="555" type="curve" smooth="yes"/>
      <point x="773" y="227"/>
      <point x="659" y="84"/>
      <point x="512" y="84" type="curve" smooth="yes"/>
      <point x="397" y="84"/>
      <point x="255" y="266"/>
      <point x="255" y="477" type="curve" smooth="yes"/>
      <point x="255" y="690"/>
      <point x="331" y="844"/>
      <point x="479" y="844" type="curve" smooth="yes"/>
      <point x="587" y="844"/>
      <point x="724" y="743"/>
    </contour>
  </outline>
</glyph>
<glyph name="otilde" format="2">
  <advance width="980"/>
  <unicode hex="00F5"/>
  <anchor x="509" y="0" name="H"/>
  <anchor x="509" y="-95" name="L"/>
  <anchor x="547" y="0" name="O"/>
  <anchor x="989" y="851" name="R"/>
  <anchor x="509" y="1366" name="U"/>
  <outline>
    <contour>
      <point x="907" y="459" type="curve" smooth="yes"/>
      <point x="907" y="717"/>
      <point x="750" y="908"/>
      <point x="509" y="908" type="curve" smooth="yes"/>
      <point x="265" y="908"/>
      <point x="73" y="671"/>
      <point x="73" y="420" type="curve" smooth="yes"/>
      <point x="73" y="163"/>
      <point x="231" y="-28"/>
      <point x="472" y="-28" type="curve" smooth="yes"/>
      <point x="706" y="-28"/>
      <point x="907" y="207"/>
    </contour>
    <contour>
      <point x="738" y="427" type="curve" smooth="yes"/>
      <point x="738" y="213"/>
      <point x="668" y="79"/>
      <point x="499" y="79" type="curve" smooth="yes"/>
      <point x="383" y="79"/>
      <point x="243" y="248"/>
      <point x="243" y="447" type="curve" smooth="yes"/>
      <point x="243" y="647"/>
      <point x="301" y="800"/>
      <point x="482" y="800" type="curve" smooth="yes"/>
      <point x="610" y="800"/>
      <point x="738" y="626"/>
    </contour>
    <contour>
      <point x="840" y="1275" type="curve"/>
      <point x="783" y="1300" type="line"/>
      <point x="740" y="1226"/>
      <point x="694" y="1182"/>
      <point x="648" y="1182" type="curve" smooth="yes"/>
      <point x="586" y="1182"/>
      <point x="514" y="1288"/>
      <point x="417" y="1288" type="curve" smooth="yes"/>
      <point x="312" y="1288"/>
      <point x="230" y="1165"/>
      <point x="186" y="1062" type="curve"/>
      <point x="243" y="1041" type="line"/>
      <point x="289" y="1111"/>
      <point x="327" y="1156"/>
      <point x="375" y="1156" type="curve" smooth="yes"/>
      <point x="448" y="1156"/>
      <point x="519" y="1051"/>
      <point x="607" y="1051" type="curve" smooth="yes"/>
      <point x="712" y="1051"/>
      <point x="796" y="1173"/>
    </contour>
  </outline>
</glyph>
<glyph name="odieresis" format="2">
  <advance width="980"/>
  <unicode hex="00F6"/>
  <anchor x="509" y="0" name="H"/>
  <anchor x="509" y="-95" name="L"/>
  <anchor x="547" y="0" name="O"/>
  <anchor x="989" y="851" name="R"/>
  <anchor x="509" y="1368" name="U"/>
  <outline>
    <contour>
      <point x="907" y="459" type="curve" smooth="yes"/>
      <point x="907" y="717"/>
      <point x="750" y="908"/>
      <point x="509" y="908" type="curve" smooth="yes"/>
      <point x="265" y="908"/>
      <point x="73" y="671"/>
      <point x="73" y="420" type="curve" smooth="yes"/>
      <point x="73" y="163"/>
      <point x="231" y="-28"/>
      <point x="472" y="-28" type="curve" smooth="yes"/>
      <point x="706" y="-28"/>
      <point x="907" y="207"/>
    </contour>
    <contour>
      <point x="738" y="427" type="curve" smooth="yes"/>
      <point x="738" y="213"/>
      <point x="668" y="79"/>
      <point x="499" y="79" type="curve" smooth="yes"/>
      <point x="383" y="79"/>
      <point x="243" y="248"/>
      <point x="243" y="447" type="curve" smooth="yes"/>
      <point x="243" y="647"/>
      <point x="301" y="800"/>
      <point x="482" y="800" type="curve" smooth="yes"/>
      <point x="610" y="800"/>
      <point x="738" y="626"/>
    </contour>
    <contour>
      <point x="422" y="1195" type="curve"/>
      <point x="422" y="1258"/>
      <point x="392" y="1291"/>
      <point x="334" y="1291" type="curve" smooth="yes"/>
      <point x="270" y="1291"/>
      <point x="216" y="1230"/>
      <point x="216" y="1152" type="curve" smooth="yes"/>
      <point x="216" y="1090"/>
      <point x="244" y="1055"/>
      <point x="304" y="1055" type="curve" smooth="yes"/>
      <point x="370" y="1055"/>
      <point x="422" y="1118"/>
    </contour>
    <contour>
      <point x="802" y="1195" type="curve"/>
      <point x="802" y="1258"/>
      <point x="772" y="1291"/>
      <point x="714" y="1291" type="curve" smooth="yes"/>
      <point x="650" y="1291"/>
      <point x="596" y="1230"/>
      <point x="596" y="1152" type="curve" smooth="yes"/>
      <point x="596" y="1090"/>
      <point x="624" y="1055"/>
      <point x="684" y="1055" type="curve" smooth="yes"/>
      <point x="751" y="1055"/>
      <point x="802" y="1118"/>
    </contour>
  </outline>
</glyph>
<glyph name="divide" format="2">
  <advance width="715"/>
  <unicode hex="00F7"/>
  <outline>
    <contour>
      <point x="672" y="523" type="curve"/>
      <point x="648" y="547" type="line"/>
      <point x="77" y="547" type="line"/>
      <point x="66" y="523"/>
      <point x="50" y="486"/>
      <point x="44" y="459" type="curve"/>
      <point x="70" y="436" type="line"/>
      <point x="640" y="436" type="line"/>
      <point x="649" y="457"/>
      <point x="666" y="497"/>
    </contour>
    <contour>
      <point x="440" y="741" type="curve" smooth="yes"/>
      <point x="440" y="792"/>
      <point x="418" y="819"/>
      <point x="371" y="819" type="curve" smooth="yes"/>
      <point x="319" y="819"/>
      <point x="278" y="770"/>
      <point x="278" y="708" type="curve" smooth="yes"/>
      <point x="278" y="659"/>
      <point x="299" y="630"/>
      <point x="347" y="630" type="curve" smooth="yes"/>
      <point x="399" y="630"/>
      <point x="440" y="681"/>
    </contour>
    <contour>
      <point x="440" y="278" type="curve" smooth="yes"/>
      <point x="440" y="329"/>
      <point x="418" y="354"/>
      <point x="371" y="354" type="curve" smooth="yes"/>
      <point x="319" y="354"/>
      <point x="278" y="306"/>
      <point x="278" y="245" type="curve" smooth="yes"/>
      <point x="278" y="196"/>
      <point x="299" y="167"/>
      <point x="347" y="167" type="curve" smooth="yes"/>
      <point x="399" y="167"/>
      <point x="440" y="217"/>
    </contour>
  </outline>
</glyph>
<glyph name="yacute" format="2">
  <advance width="962"/>
  <unicode hex="00FD"/>
  <outline>
    <contour>
      <point x="945" y="832" type="curve"/>
      <point x="945" y="880" type="line"/>
      <point x="630" y="880" type="line"/>
      <point x="630" y="832" type="line"/>
      <point x="705" y="820"/>
      <point x="734" y="810"/>
      <point x="734" y="785" type="curve" smooth="yes"/>
      <point x="734" y="780"/>
      <point x="732" y="774"/>
      <point x="730" y="767" type="curve" smooth="yes"/>
      <point x="660" y="577"/>
      <point x="589" y="387"/>
      <point x="519" y="196" type="curve"/>
      <point x="297" y="767" type="line"/>
      <point x="293" y="775"/>
      <point x="292" y="782"/>
      <point x="292" y="788" type="curve" smooth="yes"/>
      <point x="292" y="812"/>
      <point x="321" y="822"/>
      <point x="398" y="832" type="curve"/>
      <point x="398" y="880" type="line"/>
      <point x="17" y="880" type="line"/>
      <point x="17" y="832" type="line"/>
      <point x="79" y="817"/>
      <point x="110" y="802"/>
      <point x="122" y="767" type="curve"/>
      <point x="434" y="-22" type="line"/>
      <point x="407" y="-87" type="line" smooth="yes"/>
      <point x="362" y="-196"/>
      <point x="288" y="-284"/>
      <point x="242" y="-300" type="curve" smooth="yes"/>
      <point x="224" y="-306"/>
      <point x="203" y="-310"/>
      <point x="180" y="-310" type="curve" smooth="yes"/>
      <point x="145" y="-310"/>
      <point x="106" y="-301"/>
      <point x="69" y="-279" type="curve"/>
      <point x="29" y="-304"/>
      <point x="-47" y="-400"/>
      <point x="-47" y="-417" type="curve" smooth="yes"/>
      <point x="-47" y="-441"/>
      <point x="27" y="-471"/>
      <point x="123" y="-471" type="curve" smooth="yes"/>
      <point x="258" y="-471"/>
      <point x="419" y="-354"/>
      <point x="525" y="-76" type="curve"/>
      <point x="841" y="767" type="line" smooth="yes"/>
      <point x="855" y="804"/>
      <point x="868" y="814"/>
    </contour>
    <contour>
      <point x="796" y="1348" type="line"/>
      <point x="772" y="1389" type="line"/>
      <point x="744" y="1397"/>
      <point x="645" y="1412"/>
      <point x="615" y="1414" type="curve"/>
      <point x="400" y="1019" type="line"/>
      <point x="414" y="1007"/>
      <point x="438" y="992"/>
      <point x="461" y="989" type="curve"/>
    </contour>
  </outline>
</glyph>
<glyph name="thorn" format="2">
  <advance width="1101"/>
  <unicode hex="00FE"/>
  <anchor x="698" y="-100" name="L"/>
  <anchor x="539" y="1690" name="U"/>
  <outline>
    <contour>
      <point x="1025" y="496" type="curve"/>
      <point x="1025" y="789"/>
      <point x="888" y="960"/>
      <point x="706" y="960" type="curve" smooth="yes"/>
      <point x="630" y="960"/>
      <point x="505" y="903"/>
      <point x="365" y="750" type="curve"/>
      <point x="365" y="1514" type="line"/>
      <point x="326" y="1550" type="line"/>
      <point x="241" y="1508"/>
      <point x="163" y="1489"/>
      <point x="53" y="1470" type="curve"/>
      <point x="53" y="1422" type="line"/>
      <point x="166" y="1409"/>
      <point x="191" y="1409"/>
      <point x="191" y="1289" type="curve" smooth="yes"/>
      <point x="191" y="-367" type="line" smooth="yes"/>
      <point x="191" y="-390"/>
      <point x="141" y="-408"/>
      <point x="53" y="-429" type="curve"/>
      <point x="53" y="-480" type="line"/>
      <point x="535" y="-480" type="line"/>
      <point x="535" y="-429" type="line"/>
      <point x="410" y="-410"/>
      <point x="365" y="-388"/>
      <point x="365" y="-367" type="curve" smooth="yes"/>
      <point x="365" y="75" type="line"/>
      <point x="465" y="-2"/>
      <point x="553" y="-30"/>
      <point x="603" y="-30" type="curve" smooth="yes"/>
      <point x="826" y="-30"/>
      <point x="1025" y="256"/>
    </contour>
    <contour>
      <point x="866" y="414" type="curve"/>
      <point x="866" y="250"/>
      <point x="786" y="102"/>
      <point x="647" y="102" type="curve" smooth="yes"/>
      <point x="561" y="102"/>
      <point x="476" y="137"/>
      <point x="365" y="217" type="curve"/>
      <point x="365" y="628" type="line"/>
      <point x="482" y="780"/>
      <point x="577" y="823"/>
      <point x="625" y="823" type="curve" smooth="yes"/>
      <point x="750" y="823"/>
      <point x="866" y="673"/>
    </contour>
  </outline>
</glyph>
<glyph name="OE" format="2">
  <advance width="1658"/>
  <unicode hex="0152"/>
  <anchor x="834" y="-100" name="L"/>
  <anchor x="834" y="1370" name="U"/>
  <outline>
    <contour>
      <point x="1535" y="1233" type="curve"/>
      <point x="1503" y="1260" type="line"/>
      <point x="1011" y="1260" type="line"/>
      <point x="983" y="1161" type="line"/>
      <point x="1359" y="1161" type="line" smooth="yes"/>
      <point x="1411" y="1161"/>
      <point x="1435" y="1117"/>
      <point x="1441" y="994" type="curve"/>
      <point x="1496" y="994" type="line"/>
      <point x="1513" y="1045"/>
      <point x="1531" y="1165"/>
    </contour>
    <contour>
      <point x="1435" y="705" type="curve"/>
      <point x="1404" y="735" type="line"/>
      <point x="993" y="735" type="line"/>
      <point x="968" y="647" type="line"/>
      <point x="1144" y="647" type="line" smooth="yes"/>
      <point x="1257" y="647"/>
      <point x="1302" y="631"/>
      <point x="1343" y="592" type="curve"/>
      <point x="1369" y="613"/>
      <point x="1410" y="668"/>
    </contour>
    <contour>
      <point x="1603" y="260" type="curve"/>
      <point x="1552" y="280" type="line"/>
      <point x="1493" y="124"/>
      <point x="1452" y="98"/>
      <point x="1329" y="98" type="curve" smooth="yes"/>
      <point x="1208" y="98" type="line" smooth="yes"/>
      <point x="1032" y="98"/>
      <point x="1036" y="123"/>
      <point x="1036" y="162" type="curve" smooth="yes"/>
      <point x="1036" y="1168" type="line" smooth="yes"/>
      <point x="1036" y="1186"/>
      <point x="1089" y="1190"/>
      <point x="1179" y="1209" type="curve"/>
      <point x="1179" y="1260" type="line"/>
      <point x="1011" y="1260" type="line"/>
      <point x="709" y="1260" type="line"/>
      <point x="709" y="1209" type="line"/>
      <point x="805" y="1190"/>
      <point x="850" y="1163"/>
      <point x="850" y="1147" type="curve" smooth="yes"/>
      <point x="850" y="112" type="line" smooth="yes"/>
      <point x="850" y="94"/>
      <point x="799" y="69"/>
      <point x="709" y="51" type="curve"/>
      <point x="709" y="0" type="line"/>
      <point x="1562" y="0" type="line"/>
      <point x="1572" y="39"/>
      <point x="1593" y="145"/>
    </contour>
    <contour>
      <point x="905" y="1032" type="curve"/>
      <point x="905" y="1032"/>
      <point x="889" y="1219"/>
      <point x="903" y="1260" type="curve"/>
      <point x="790" y="1260"/>
      <point x="751" y="1290"/>
      <point x="639" y="1290" type="curve" smooth="yes"/>
      <point x="317" y="1290"/>
      <point x="66" y="975"/>
      <point x="66" y="612" type="curve" smooth="yes"/>
      <point x="66" y="276"/>
      <point x="257" y="-30"/>
      <point x="581" y="-30" type="curve" smooth="yes"/>
      <point x="704" y="-30"/>
      <point x="743" y="0"/>
      <point x="903" y="0" type="curve" smooth="yes"/>
      <point x="903" y="0"/>
      <point x="936" y="96"/>
      <point x="868" y="158" type="curve"/>
      <point x="799" y="104"/>
      <point x="729" y="94"/>
      <point x="614" y="94" type="curve" smooth="yes"/>
      <point x="414" y="94"/>
      <point x="247" y="342"/>
      <point x="247" y="641" type="curve" smooth="yes"/>
      <point x="247" y="967"/>
      <point x="379" y="1172"/>
      <point x="604" y="1172" type="curve" smooth="yes"/>
      <point x="723" y="1172"/>
      <point x="833" y="1130"/>
    </contour>
  </outline>
</glyph>
<glyph name="oe" format="2">
  <advance width="1543"/>
  <unicode hex="0153"/>
  <outline>
    <contour>
      <point x="1470" y="525" type="curve"/>
      <point x="1470" y="686"/>
      <point x="1390" y="908"/>
      <point x="1147" y="908" type="curve" smooth="yes"/>
      <point x="1021" y="908"/>
      <point x="888" y="816"/>
      <point x="825" y="725" type="curve"/>
      <point x="758" y="837"/>
      <point x="643" y="908"/>
      <point x="509" y="908" type="curve" smooth="yes"/>
      <point x="272" y="908"/>
      <point x="72" y="671"/>
      <point x="72" y="420" type="curve" smooth="yes"/>
      <point x="72" y="163"/>
      <point x="235" y="-28"/>
      <point x="455" y="-28" type="curve" smooth="yes"/>
      <point x="585" y="-28"/>
      <point x="707" y="48"/>
      <point x="789" y="162" type="curve"/>
      <point x="856" y="42"/>
      <point x="970" y="-28"/>
      <point x="1090" y="-28" type="curve" smooth="yes"/>
      <point x="1212" y="-28"/>
      <point x="1296" y="0"/>
      <point x="1462" y="184" type="curve"/>
      <point x="1457" y="194"/>
      <point x="1440" y="220"/>
      <point x="1424" y="229" type="curve"/>
      <point x="1285" y="117"/>
      <point x="1224" y="105"/>
      <point x="1154" y="105" type="curve" smooth="yes"/>
      <point x="993" y="105"/>
      <point x="897" y="267"/>
      <point x="892" y="457" type="curve"/>
      <point x="1358" y="457" type="line"/>
      <point x="1399" y="473"/>
      <point x="1445" y="499"/>
    </contour>
    <contour>
      <point x="727" y="430" type="curve"/>
      <point x="727" y="418" type="line" smooth="yes"/>
      <point x="724" y="223"/>
      <point x="640" y="79"/>
      <point x="508" y="79" type="curve" smooth="yes"/>
      <point x="376" y="79"/>
      <point x="238" y="250"/>
      <point x="238" y="449" type="curve" smooth="yes"/>
      <point x="238" y="651"/>
      <point x="323" y="800"/>
      <point x="458" y="800" type="curve" smooth="yes"/>
      <point x="599" y="800"/>
      <point x="727" y="632"/>
    </contour>
    <contour>
      <point x="1120" y="806" type="curve" smooth="yes"/>
      <point x="1270" y="806"/>
      <point x="1299" y="651"/>
      <point x="1299" y="583" type="curve" smooth="yes"/>
      <point x="1299" y="556"/>
      <point x="1289" y="549"/>
      <point x="1262" y="549" type="curve" smooth="yes"/>
      <point x="897" y="549" type="line"/>
      <point x="918" y="702"/>
      <point x="1003" y="806"/>
    </contour>
  </outline>
</glyph>
<glyph name="scaron" format="2">
  <advance width="762"/>
  <unicode hex="0161"/>
  <anchor x="370" y="0" name="H"/>
  <anchor x="381" y="-95" name="L"/>
  <anchor x="381" y="1381" name="U"/>
  <outline>
    <contour>
      <point x="679" y="268" type="curve" smooth="yes"/>
      <point x="679" y="409"/>
      <point x="558" y="472"/>
      <point x="449" y="529" type="curve" smooth="yes"/>
      <point x="337" y="587"/>
      <point x="240" y="630"/>
      <point x="240" y="711" type="curve" smooth="yes"/>
      <point x="240" y="763"/>
      <point x="288" y="819"/>
      <point x="368" y="819" type="curve" smooth="yes"/>
      <point x="435" y="819"/>
      <point x="500" y="780"/>
      <point x="552" y="684" type="curve"/>
      <point x="596" y="676" type="line"/>
      <point x="616" y="702"/>
      <point x="660" y="821"/>
      <point x="645" y="835" type="curve" smooth="yes"/>
      <point x="593" y="880"/>
      <point x="475" y="908"/>
      <point x="389" y="908" type="curve" smooth="yes"/>
      <point x="240" y="908"/>
      <point x="96" y="817"/>
      <point x="96" y="660" type="curve" smooth="yes"/>
      <point x="96" y="540"/>
      <point x="200" y="476"/>
      <point x="304" y="421" type="curve" smooth="yes"/>
      <point x="418" y="360"/>
      <point x="534" y="310"/>
      <point x="534" y="209" type="curve" smooth="yes"/>
      <point x="534" y="125"/>
      <point x="475" y="72"/>
      <point x="386" y="72" type="curve" smooth="yes"/>
      <point x="262" y="72"/>
      <point x="165" y="157"/>
      <point x="154" y="271" type="curve"/>
      <point x="104" y="281" type="line"/>
      <point x="84" y="215"/>
      <point x="82" y="50"/>
      <point x="98" y="41" type="curve" smooth="yes"/>
      <point x="181" y="-7"/>
      <point x="278" y="-28"/>
      <point x="343" y="-28" type="curve" smooth="yes"/>
      <point x="426" y="-28"/>
      <point x="679" y="0"/>
    </contour>
    <contour>
      <point x="436" y="1009" type="line"/>
      <point x="683" y="1353" type="line"/>
      <point x="668" y="1378"/>
      <point x="661" y="1392"/>
      <point x="639" y="1403" type="curve"/>
      <point x="384" y="1173" type="line"/>
      <point x="125" y="1403" type="line"/>
      <point x="104" y="1392"/>
      <point x="95" y="1378"/>
      <point x="77" y="1353" type="curve"/>
      <point x="328" y="1009" type="line"/>
    </contour>
  </outline>
</glyph>
